<svg width="1076" height="720" viewBox="0 0 1076 720" fill="none" xmlns="http://www.w3.org/2000/svg">
<path d="M817.523 528.939C816.656 528.533 816.729 527.786 816.802 527.038C816.867 526.736 817.037 526.648 817.312 526.823C819.466 525.766 821.345 524.191 823.791 523.658C824.966 523.403 825.946 522.481 826.205 521.359C826.667 519.339 827.962 517.605 828.157 515.513C827.638 513.358 829.282 512.499 830.732 511.759C834.855 509.651 838.823 507.249 843.172 505.563C844.695 504.975 846.209 504.704 847.813 504.712C849.36 504.895 851.271 504.481 851.409 506.891C851.223 506.995 851.044 507.194 850.858 507.186C845.164 507.09 840.508 509.842 835.818 512.491C835.268 512.801 834.733 513.207 834.134 513.374C830.886 514.288 829.469 516.786 828.448 519.633C827.42 522.497 825.84 524.787 822.779 525.996C820.924 526.736 819.272 527.945 817.523 528.939Z" fill="#15340B"/>
<path d="M836.555 625.02C835.138 625.171 833.818 624.988 832.805 623.867C834.166 623.294 835.648 623.071 836.904 622.188C838.248 621.242 839.317 620.152 839.763 618.562C840.386 616.334 841.65 614.418 842.832 612.461C843.674 611.069 844.549 611.093 845.391 612.493C845.772 613.113 846.193 613.805 846.258 614.497C846.485 616.955 848.25 617.424 850.234 617.703C852 617.957 853.887 617.838 855.248 619.317C856.446 620.375 856.592 621.242 854.778 621.743C852.283 620.892 849.554 620.892 847.108 619.826C845.626 619.182 844.225 618.482 843.99 616.342C842.16 619.945 841.398 624.24 836.555 625.02Z" fill="#15330B"/>
<path d="M861.557 615.603C859.743 615.404 860.536 613.909 860.196 612.97C860.974 611.244 862.464 610.926 864.149 611.117C865.347 611.252 866.408 611.204 867.42 610.401C868.457 609.574 869.769 609.463 871.049 609.685C873.26 610.075 875.438 609.868 877.625 609.502C878.241 609.399 878.97 609.208 879.496 609.415C882.493 610.64 885.846 611.029 888.47 613.113C888.486 614.513 887.401 614.609 886.396 614.799C885.53 614.784 884.696 614.561 883.934 614.195C878.629 611.634 873.195 612.437 867.744 613.567C865.614 614.012 863.241 613.789 861.557 615.603Z" fill="#13320A"/>
<path d="M756.7 693.064C755.776 692.603 755.955 691.704 755.801 690.932C755.169 689.811 755.517 688.777 756.521 688.26C760.093 686.415 762.758 683.448 765.941 681.133C767.479 680.433 769.407 681.714 770.792 680.219C771.116 679.726 771.375 679.209 771.715 678.723C772.485 677.777 773.335 676.902 774.566 676.584C775.222 676.409 776.072 676.178 775.91 677.411C775.36 679.129 773.983 680.338 773.1 681.865C772.395 683.09 771.197 683.734 769.617 683.464C767.795 683.146 766.345 683.631 765.422 685.381C764.815 686.526 763.535 687.011 762.523 687.735C760.36 689.27 757.744 690.328 756.7 693.064Z" fill="#15340C"/>
<path d="M286.506 358.579C286.968 358.102 287.422 357.632 287.883 357.155L287.875 357.163C291.236 355.922 294.281 354.085 297.189 352.057C298.857 350.896 299.262 349.026 299.376 347.118C299.53 347.054 299.683 346.998 299.837 346.935C300.161 347.062 300.388 347.285 300.534 347.595C301.141 349.87 300.599 351.794 298.744 353.337C296.314 353.329 294.824 355.183 292.524 356.169C293.391 356.384 293.885 356.511 294.379 356.63C292.937 357.203 291.374 357.346 290.013 358.292C289.058 358.961 287.746 359.39 286.506 358.579Z" fill="#195A40"/>
<path d="M740.55 707.961C741.368 708.001 742 708.462 742.656 708.868C739.692 710.832 737.691 713.727 735.278 716.209C735.075 716.44 734.865 716.456 734.646 716.225C734.484 716.225 734.322 716.225 734.16 716.209C734.897 714.523 734.97 712.558 737.424 711.866C738.89 711.453 739.092 709.409 739.927 708.136C740.056 707.786 740.267 707.746 740.55 707.961Z" fill="#1D3D16"/>
<path d="M618.823 530.061C617.543 530.069 616.239 529.981 615.097 530.737C615.073 530.466 615.049 530.196 615.024 529.925C616.733 528.716 618.434 527.499 620.143 526.291C621.447 527.595 619.843 528.327 619.527 529.313C619.527 529.766 619.276 530.005 618.823 530.061Z" fill="#23441C"/>
<path d="M347.435 69.1594C346.544 68.1333 345.37 67.8947 344.074 67.9106C342.308 67.9345 340.543 67.9186 338.769 67.9027C337.959 67.8947 337.068 68.0777 336.55 67.1868C338.024 67.1153 339.49 67.2346 340.956 66.6937C342.964 65.954 344.94 66.4631 346.803 67.4095C347.07 67.5448 347.281 67.7834 347.589 67.847C347.945 67.855 348.131 68.0299 348.14 68.3799C348.48 69.1355 348.042 69.223 347.435 69.1594Z" fill="#21441B"/>
<path d="M437.827 91.056C437.252 91.8275 436.645 91.74 436.127 91.0321C435.657 90.3958 435.39 89.6004 434.555 89.2743C434.426 89.1948 434.288 89.1232 434.15 89.0516C433.689 88.6221 433.373 88.0972 433.098 87.5404C432.28 85.8701 432.425 84.0726 432.401 82.291C432.385 80.8275 432.45 79.3561 431.964 77.9324C430.49 73.6214 428.481 72.8022 424.407 74.8304C421.937 76.0632 419.451 77.2324 416.762 78.0039C412.696 79.1731 409.125 84.0408 409.052 88.2085C409.028 89.672 409.133 91.3025 407.481 92.0343C405.739 92.8137 404.403 91.74 403.18 90.698C401.487 89.2505 399.973 87.6279 398.394 86.069C396.806 84.5101 396.247 82.7364 397.146 80.6366C398.151 78.2903 397.341 77.1688 394.79 76.7632C392.481 76.3973 390.416 75.6178 388.27 77.6222C386.723 79.0618 384.698 78.6005 383.103 77.0654C381.24 75.2679 379.628 73.3669 379.531 70.6229C379.507 69.9071 379.458 69.064 378.575 68.8174C377.733 68.5788 377.191 69.1992 376.672 69.7162C376.065 70.3127 375.652 71.0524 375.174 71.7444C371.456 77.1131 365.892 78.0198 360.644 73.9237C358.806 72.492 357.858 72.8261 357.113 74.7986C356.822 75.586 356.514 76.3655 356.263 77.1688C354.586 82.5057 352.351 83.7942 346.455 82.8239C345.977 82.5853 345.686 82.2194 345.653 81.6865C346.568 80.5332 346.795 78.7039 348.787 78.6084C348.666 79.1095 348.326 79.6901 348.48 80.0957C348.747 80.7877 349.549 80.573 350.124 80.5014C351.12 80.3741 352.4 79.714 352.359 79.0061C352.254 76.9699 353.752 75.586 354.084 73.7407C354.684 70.3604 357.113 68.9367 360.377 69.6923C361.211 69.8832 361.519 70.5752 362.021 71.0922C363.26 72.3727 364.443 73.4624 366.532 73.6135C369.748 73.8441 371.57 72.158 372.866 69.8037C373.546 68.5629 374.38 67.5766 375.344 66.6142C376.51 65.445 377.644 64.4429 379.507 65.3416C381.402 66.2484 382.738 67.6959 382.56 69.7003C382.366 71.8796 383.289 73.2556 384.731 74.5997C386.027 75.8167 386.423 75.8485 387.468 74.5679C389.234 72.4045 389.452 72.2932 391.947 73.0647C393.478 73.5339 395.008 74.0032 396.604 74.0987C401.074 74.3532 401.706 77.8687 400.175 81.4717C399.617 82.7921 399.382 83.4443 400.524 84.2794C402.467 85.7111 403.82 87.8268 406.047 89.0516C406.703 87.6597 406.039 86.5382 405.521 85.4645C405.043 84.4623 404.962 83.5079 405.934 82.975C407.57 82.0762 408.323 80.3105 409.886 79.3799C410.153 79.2208 410.566 79.0538 410.615 78.8311C411.198 75.8962 413.628 75.6894 415.944 75.2201C419.111 74.5838 421.848 72.9295 424.529 71.2751C426.408 70.1218 429.404 69.8275 430.959 71.299C433.721 73.9157 435.576 76.9302 435.333 80.9786C435.155 83.9772 435.13 87.0632 437.414 89.5686C437.706 89.9265 437.69 90.5549 437.827 91.056Z" fill="#113007"/>
<path d="M469.195 89.4255C468.231 89.163 467.372 89.4652 466.538 89.9027C466.409 89.9027 466.271 89.8947 466.141 89.8947C465.591 89.8868 465.04 89.9584 464.489 89.9106C462.035 89.2823 459.589 88.5108 457.467 87.1905C455.41 85.9179 454.058 86.5065 452.478 87.9143C450.089 90.0458 448.307 92.8615 445.27 94.2852C444.525 94.7704 443.837 95.4544 443.019 95.7089C441.634 96.1463 441.836 95.2635 442.177 94.4283C445.359 91.215 448.251 87.7393 451.701 84.7725C454.317 82.5216 455.143 82.5932 458.067 84.3033C463.93 87.7393 469.907 88.5506 476.451 85.4566C482.963 82.3785 488.195 82.9591 493.775 88.7414C496.205 91.2548 495.67 94.2772 497.015 96.8781C497.484 97.7848 497.905 98.1507 498.732 98.6836C500.805 100.036 503.064 100.895 505.316 101.825C505.753 102.008 505.98 102.621 506.523 101.984C507.592 100.72 509.301 100.529 510.629 99.6778C512.2 98.6756 512.524 97.9359 511.552 96.3452C510.71 94.9612 510.345 93.5296 510.038 91.9547C509.382 88.5983 508.434 85.2975 507.527 81.9967C507.325 81.2491 507.26 80.5491 507.454 79.8412C507.786 78.6005 507.487 77.5983 506.539 76.7234C505.437 75.6974 505.689 74.6316 506.174 73.3113C507.154 70.6547 508.92 68.4834 510.912 66.7176C512.459 65.3416 512.856 64.1645 512.929 62.2477C513.018 59.8059 513.204 57.1891 515.286 55.2961C517.059 54.7712 516.97 55.9563 516.703 56.9584C516.355 58.2469 515.982 59.5036 516.063 60.8478C516.217 64.4906 515.14 67.5369 512.135 69.9707C509.803 71.8637 509.406 74.0112 510.111 77.3676C511.066 81.9172 511.747 86.5462 513.002 91.0639C513.253 91.9706 513.439 92.8933 513.747 93.7841C515.707 99.4312 515.44 100.171 510.256 103.408C509.6 103.758 508.961 104.132 508.523 104.752C508.167 105.245 507.827 105.754 507.227 106.001C502.903 104.951 499.007 102.955 495.46 100.378C494.237 99.4948 494.253 97.753 493.799 96.377C491.127 88.2801 488.519 86.5065 479.91 86.9996C479.27 87.0871 478.719 87.3893 478.152 87.6677C475.35 89.2425 472.572 90.8333 469.195 89.4255Z" fill="#113008"/>
<path d="M525.499 40.2397C525.75 40.3909 526.228 40.6613 526.219 40.6692C525.118 42.6338 524.413 44.7495 523.028 46.6504C521.384 48.9093 518.849 50.0308 517.197 52.1783C516.687 52.8464 516.582 51.7806 516.363 51.4306C516.606 50.4921 517.149 49.4819 517.942 49.2195C520.979 48.2253 521.417 45.2903 522.858 43.1508C523.62 42.0373 524.122 40.7886 525.499 40.2397Z" fill="#1A3A12"/>
<path d="M47.7653 254.672C47.7248 254.059 47.5224 253.55 46.8825 253.304C47.6519 251.904 48.3809 250.512 47.3442 248.905C47.1336 248.579 47.0202 248.022 47.1498 247.696C48.6643 243.966 45.935 241.19 44.7849 238.136C43.9993 236.044 43.3352 233.992 43.157 231.797C42.9465 229.188 44.7282 227.398 46.429 225.983C49.1341 223.74 50.519 220.757 52.1388 217.87C53.0216 216.295 53.7991 214.927 55.7428 214.179C58.4964 213.114 61.08 211.579 63.1533 209.383C63.5178 209.002 64.1171 208.731 64.2791 208.286C65.6397 204.611 68.8064 202.678 71.8354 200.61C72.6777 200.03 73.0503 199.203 73.4309 198.336C75.2046 194.311 78.104 191.185 81.6433 188.584C83.3522 187.328 85.1096 186.143 86.8104 184.878C88.2682 183.804 89.726 182.643 90.4387 180.973C91.8965 177.529 94.7393 175.827 98.1651 175.031C100.668 174.451 102.62 173.337 104.353 171.484C105.997 169.726 107.706 167.952 109.909 166.823C111.002 166.258 111.69 165.352 112.314 164.365C113.869 161.931 116.137 160.5 118.923 159.744C122.292 158.83 125.621 157.485 129.192 158.853C129.986 159.156 130.367 158.718 130.601 158.05C130.812 157.462 131.015 156.865 131.257 156.284C132.237 153.954 133.679 152.061 136.392 151.584C137.882 151.321 138.198 150.454 138.158 149.126C137.955 143.145 137.72 137.18 133.25 132.423C132.14 131.238 131.525 129.791 130.836 128.383C129.8 126.243 130.958 123.937 133.396 123.976C135.55 124.008 137.316 123.245 139.17 122.513C139.591 122.274 140.053 121.646 140.515 122.091C141.389 122.927 140.782 123.786 140.288 124.589C138.498 126.156 136.287 126.744 133.234 127.198C138.004 133.131 140.984 139.407 141.211 146.66C141.26 147.106 141.244 147.543 141.171 147.989C141.122 148.283 141.049 148.569 140.968 148.848C140.636 149.834 140.766 150.908 140.417 151.894C140.158 152.228 140.62 151.942 140.28 152.172C136.886 154.407 133.728 156.762 132.156 160.77C131.654 162.059 129.735 161.772 128.342 161.589C122.43 160.834 117.999 162.894 113.602 167.038C108.912 171.46 104.709 177.036 97.5334 178.324C95.7436 178.642 94.31 179.931 93.4273 181.593C92.018 184.265 89.9123 186.278 87.4016 187.948C83.4169 190.605 79.7562 193.603 77.1322 197.652C75.8039 198.972 75.65 200.992 74.2489 202.273C71.2847 204.484 68.4501 206.759 66.3443 209.892C64.4411 212.716 61.655 214.712 58.4317 216.033C56.496 216.828 55.2083 218.108 54.2769 220.081C52.8515 223.095 51.1345 225.983 48.397 228.162C46.0726 230.015 45.4004 232.449 46.8177 235.169C48.1298 237.683 48.559 240.562 50.2355 242.916C51.75 245.04 49.7334 247.187 50.3327 249.311C49.7496 251.212 49.9196 253.487 47.7653 254.672Z" fill="#102F07"/>
<path d="M124.568 89.3697C125.37 90.0299 126.39 90.0856 127.338 90.356C130.172 90.356 132.221 92.5273 132.408 96.1622C132.578 99.3914 132.91 102.557 133.501 105.746C134.141 109.206 135.655 112.014 137.899 114.591C139 115.856 140.223 117.049 140.604 118.767C140.579 119.769 141.057 120.986 139.47 121.312C137.218 117.939 133.922 115.251 132.213 111.584C130.367 107.623 129.427 103.352 129.638 98.9142C129.694 97.6734 129.84 96.4406 129.435 95.1998C128.771 93.1716 127.111 92.3205 125.297 91.6683C120.891 90.0776 120.607 89.6958 120.753 84.8679C121.911 86.2678 122.171 88.3119 124.001 89.2266C124.26 89.0039 124.454 89.0516 124.568 89.3697Z" fill="#133209"/>
<path d="M306.454 55.9563C306.43 55.7574 306.414 55.5665 306.397 55.3677C306.268 55.2245 306.236 55.0973 306.3 54.9859C306.365 54.8746 306.422 54.8189 306.47 54.8189C307.078 54.7632 307.677 54.7155 308.285 54.6598C308.511 54.4769 308.746 54.3019 308.997 54.1508C311.638 53.2838 314.245 52.8225 316.707 54.6439C316.78 54.7711 316.861 54.8984 316.934 55.0257C316.837 55.137 316.748 55.2563 316.651 55.3677C315.444 55.6142 314.27 55.996 313.063 55.1847C311.079 53.8565 309.54 55.7813 307.758 56.004C307.321 56.2983 306.883 56.3142 306.454 55.9563Z" fill="#1F4118"/>
<path d="M122.073 50.492C121.531 52.6395 120.259 54.4927 119.417 56.5209C118.89 57.7935 119.336 59.5751 117.667 60.3466C117.238 56.8391 119.182 53.9916 120.437 50.9692C120.68 50.3966 121.369 50.142 122.073 50.492Z" fill="#26461F"/>
<path d="M297.481 50.3568C295.334 51.3431 293.277 51.4465 291.439 49.7206C290.426 48.7661 288.936 48.6945 287.883 47.8355C288.288 47.7321 288.75 47.4458 289.082 47.5571C291.9 48.448 294.865 48.9013 297.481 50.3568Z" fill="#1F3F18"/>
<path d="M216.183 31.4429C215.819 32.127 215.39 32.8189 214.555 32.0077C212.855 30.3533 211.138 30.4726 209.17 31.602C207.776 32.3974 206.181 32.3656 204.691 31.602C206.959 30.576 209.145 29.55 211.842 29.9636C213.43 30.2022 214.831 30.6635 216.183 31.4429Z" fill="#1B3C14"/>
<path d="M136.716 51.7567C136.546 51.868 136.376 52.051 136.198 52.0669C135.582 52.1226 134.683 52.385 134.4 52.0987C132.383 50.0466 128.925 52.4089 127.176 49.7444C130.593 49.3388 133.801 49.8717 136.716 51.7567Z" fill="#21411A"/>
<path d="M144.904 53.9202C145.172 54.0951 145.495 54.3815 145.301 54.628C144.046 56.2426 142.264 57.0937 140.336 57.6584C139.664 57.8572 138.992 57.555 138.66 57.0619C138.134 56.2983 138.709 55.7416 139.332 55.2882C140.264 56.354 141.187 56.5449 142.353 55.5109C143.09 54.8667 144.046 54.4451 144.904 53.9202Z" fill="#214019"/>
<path d="M467.713 522.385C467.688 521.972 467.785 521.495 467.623 521.145C466.004 517.55 466.959 514.026 467.794 510.471C468.174 508.848 468.879 507.297 468.757 505.563C468.612 503.487 467.947 502.501 465.996 501.801C463.971 501.069 461.549 501.205 460.237 498.97C459.921 498.437 459.03 498.866 458.407 498.803C456.163 498.556 454.228 497.8 453.296 495.613C452.851 494.563 452.13 494.357 451.085 494.205C448.113 493.792 447.4 492.949 446.688 490.125C446.007 487.429 445.926 484.764 446.607 482.068C446.809 481.249 446.882 480.422 446.59 479.284C445.432 479.579 444.169 480.453 442.995 479.26C441.61 477.853 440.937 476.087 440.451 474.297C440.144 473.176 441.326 472.436 442.023 471.712C443.116 470.575 443.497 469.43 443.553 467.815C443.634 465.564 444.388 463.329 445.473 461.285C445.886 460.514 446.153 459.806 445.943 458.907C445.408 456.6 444.331 456.234 442.411 457.714C441.302 458.565 440.338 459.543 439.706 460.76C438.945 462.216 438.07 462.057 436.88 461.301C435.373 460.339 433.988 459.177 432.579 458.119C431.073 456.982 430.984 454.779 431.154 452.918C431.259 451.788 430.935 450.834 430.555 449.895C430.133 448.853 429.242 448.161 428.02 448.702C426.27 449.482 424.893 448.71 423.606 447.756C422.747 447.119 421.881 446.595 420.86 446.221C419.848 445.855 419.022 445.131 418.584 444.121C418.293 443.445 418.025 442.896 417.329 442.427C415.029 440.884 414.94 438.036 417.305 436.676C418.366 436.064 418.633 435.587 418.519 434.568C418.374 433.304 419.022 432.19 419.864 431.49C421.889 429.812 422.034 427.553 422.31 425.295C422.375 424.778 422.294 424.245 422.342 423.728C422.585 420.793 422.788 417.826 426.157 416.561C425.938 415.448 424.877 415.313 424.472 414.573C423.889 413.499 423.476 412.473 424.383 411.383C425.144 410.469 425.485 409.451 425.655 408.258C425.817 407.112 425.711 406.261 424.853 405.426C423.476 404.082 422.318 402.595 422.415 400.503C422.447 399.707 421.808 399.206 421.281 398.689C420.722 398.141 420.18 398.141 419.678 398.761C419.548 398.92 419.386 399.095 419.329 399.286C418.876 401.036 418.042 402.444 415.96 402.491C413.587 402.555 411.692 401.608 410.097 399.851C407.918 397.464 405.432 395.373 402.654 393.718C400.119 392.207 399.155 390.561 400.167 387.777C400.572 386.663 400.71 386.13 399.398 385.709C398.742 385.494 398.248 384.81 397.648 384.389C395.648 382.981 393.631 381.748 390.926 382.368C389.452 382.702 387.954 382.209 386.593 381.589C385.63 381.143 385.046 381.271 384.536 382.209C383.613 383.927 381.88 384.89 380.479 386.162C379.491 387.061 378.462 387.745 377.053 387.101C375.465 386.377 375.409 385.089 375.741 383.641C375.83 383.251 375.806 382.846 375.838 382.4C374.656 381.963 373.684 382.679 372.655 382.607C370.97 382.488 370.193 381.597 370.395 379.927C370.63 378.018 371.092 376.22 373.028 375.194C373.481 374.948 373.838 374.526 374.251 374.192C374.826 373.739 374.51 373.285 374.275 372.824C374.032 372.347 373.497 372.235 373.206 372.474C370.728 374.502 367.852 372.752 365.204 373.309C363.868 373.587 363.171 372.029 362.28 371.09C361.43 371.591 360.725 372.044 359.98 372.418C357.453 373.683 354.935 372.108 355.024 369.332C355.04 368.927 355.242 368.521 355.283 368.107C355.396 366.843 355.194 365.968 353.533 365.801C350.448 365.499 347.969 364.178 346.609 361.196C346.091 360.058 344.738 359.875 343.653 359.509C341.968 358.945 340.867 357.863 340.729 356.161C340.551 353.974 338.874 353.29 337.303 352.454C336.963 352.272 336.38 352.105 336.113 352.264C333.391 353.886 329.917 353.139 327.252 355.413C325.211 357.163 319.874 355.851 317.93 353.807C315.371 351.134 314.148 351.238 311.994 354.387C311.33 355.358 310.52 356.169 309.637 356.932C306.6 359.581 305.021 359.653 301.797 357.29C301.287 356.917 300.769 356.543 300.234 356.201C298.898 355.342 297.553 354.952 296.169 356.153C295.666 356.582 295.01 356.646 294.354 356.59C293.658 356.773 292.816 357.155 292.403 356.328C292.07 355.66 292.799 355.198 293.31 354.88C294.897 353.87 296.387 352.622 298.444 352.637C300.121 352.677 301.433 353.568 302.769 354.419C305.847 356.392 306.802 356.256 309.046 353.353C310.139 351.945 311.103 350.458 312.828 349.671C315.177 348.597 317.315 348.422 319.024 350.768C319.607 351.619 320.239 352.407 321.292 352.741C322.984 353.29 324.685 353.401 326.232 352.439C328.726 350.872 331.577 350.394 334.371 349.782C338.364 348.907 341.725 350.689 343.385 354.403C343.596 354.88 343.645 355.604 344.05 355.795C347.88 357.593 349.84 361.983 354.206 362.953C356.773 363.526 358.093 364.982 358.271 367.471C358.369 368.863 358.612 369.809 360.328 368.943C361.811 368.195 363.171 368.561 364.572 369.308C366.605 370.39 368.792 370.732 371.051 370.088C373.335 369.428 375.49 369.149 376.915 371.615C378.276 373.985 376.875 375.552 375.279 377.071C374.834 377.501 374.283 377.875 374.226 378.574C378.446 378.71 378.575 378.837 379.037 382.877C379.159 383.084 379.321 383.084 379.555 382.949C381.783 381.66 382.69 377.978 385.775 378.598C391.461 379.736 397.843 379.028 402.297 383.975C403.302 385.089 403.982 386.186 403.431 387.626C402.686 389.59 403.447 390.839 405.189 391.73C406.12 392.334 406.857 393.146 407.651 393.901C409.481 395.317 411.53 396.454 413.036 398.292C414.187 399.699 415.409 399.66 416.681 398.069C419.726 394.235 423.087 394.8 424.934 399.365C425.29 400.24 425.387 401.274 426.011 401.974C428.651 404.909 429.526 408.075 427.768 411.765C427.364 412.616 427.922 413.372 428.457 414.056C429.801 415.774 429.623 417.404 427.914 418.725C425.671 420.451 424.966 422.749 425.096 425.39C425.242 428.214 424.723 430.703 422.634 432.898C420.982 434.624 421.662 437.623 419.491 439.245C419.135 439.516 419.499 440.025 419.734 440.367C421.71 443.254 424.213 445.354 427.914 445.712C431.729 446.085 433.389 447.676 433.94 451.391C434.078 452.321 433.98 453.284 434.256 454.198C435.171 457.173 437.69 457.976 439.941 455.924C441.812 454.222 443.764 453.164 446.25 454.445C448.283 455.495 449.563 458.454 448.405 461.094C446.639 465.135 447.425 469.875 444.509 473.566C443.578 474.743 444.347 475.331 445.821 475.451C449.644 475.761 450.154 476.453 449.717 480.183C449.482 482.156 449.19 484.136 449.142 486.116C449.077 488.757 449.53 491.231 452.916 491.708C453.224 491.756 453.588 491.851 453.79 492.074C457.484 496.345 463.161 496.997 467.834 499.487C471.041 501.197 472.499 504.354 471.381 508.323C470.434 511.672 469.575 514.996 469.737 518.504C469.794 519.077 469.867 519.649 469.972 520.222C470.021 520.508 470.013 520.787 469.972 521.073C469.567 521.972 469.276 522.966 468.134 523.276C467.721 523.133 467.364 522.91 467.713 522.385Z" fill="#102F07"/>
<path d="M93.2572 374.765C93.6379 375.56 94.383 375.425 95.0633 375.433C96.9908 374.733 98.9103 376.689 100.846 375.457C101.267 375.385 101.672 375.258 102.085 375.138C102.377 375.107 102.636 375.186 102.846 375.393C103.883 375.616 104.92 375.83 105.956 376.053C106.872 375.982 107.463 376.451 107.892 377.183C108.362 377.198 108.832 377.214 109.293 377.23C111.788 376.339 113.618 377.175 114.946 379.314C115.4 380.086 116.023 380.531 116.987 380.356C119.328 379.958 121.523 381.366 123.863 380.873C124.179 380.873 124.487 380.905 124.795 380.976C124.948 381 125.102 381.032 125.256 381.064C125.896 381.47 126.52 381.446 127.151 381.04C129.022 380.539 130.95 380.475 132.869 380.364C133.323 380.507 133.946 380.992 134.165 380.245C134.7 378.383 135.825 378.431 137.34 379.02C138.004 379.282 138.814 379.155 139.51 379.346C140.029 379.489 140.434 379.895 139.907 380.491C138.279 379.545 136.846 380.38 135.461 381.064C134.23 381.668 133.055 382.416 131.905 383.164C131.258 383.585 130.504 384.062 129.848 383.84C127.597 383.084 125.499 383.736 123.288 384.039C119.449 384.564 116.064 383.227 113.254 380.595C112.152 379.561 110.71 379.545 109.374 379.41C108.184 379.29 107.034 379.203 106.037 378.527C104.401 377.413 102.717 377.302 100.927 378.113C97.5254 379.656 94.7474 377.835 92.0262 376.331C91.2244 375.886 90.5846 375.242 89.5803 375.17C87.9443 375.059 86.9967 373.802 85.871 372.872C83.8057 371.162 83.6276 371.05 81.619 372.633C80.5176 373.5 79.3027 373.762 78.0555 373.731C76.1765 373.683 74.3785 372.991 72.4024 373.412C71.309 373.643 70.3048 372.848 70.2967 371.567C70.2886 370.08 69.6812 369.292 68.1747 368.919C67.0166 368.64 66.7655 367.479 66.4254 366.469C65.5993 364.019 63.6636 362.77 61.161 363.001C58.3912 363.256 56.8524 364.6 56.3989 367.169C55.8724 370.104 55.6133 370.406 52.6976 369.69C51.1669 369.308 50.0655 369.475 48.9235 370.462C47.571 371.623 45.935 372.41 44.5177 373.54C41.7883 375.719 39.8284 374.971 38.6297 371.599C38.3868 370.915 38.0466 370.255 37.747 369.587C36.4835 366.835 36.4754 366.7 38.6297 364.457C39.3667 363.693 39.7636 362.937 39.14 361.959C38.8484 361.498 38.6783 361.013 38.7107 360.48C38.7755 359.414 38.7674 357.823 37.8117 357.744C36.605 357.64 35.131 357.529 33.9 358.475C31.3569 360.432 28.7328 359.827 26.2302 358.308C25.0316 357.585 24.3756 356.471 25.1774 355.135C25.6228 354.387 25.8334 353.894 25.0154 353.353C24.2703 352.852 24.003 352.049 23.6548 351.277C23.2012 350.291 22.4156 349.337 21.3871 349.217C19.5081 348.995 19.5567 347.825 19.5648 346.529C19.5648 346.322 19.5486 346.107 19.5486 345.901C19.5648 343.292 19.5648 343.284 16.7707 343.324C15.815 343.339 14.8836 343.467 13.9846 342.918C12.3891 341.948 11.4334 340.572 11.6602 338.774C11.9437 336.595 11.5711 334.917 9.51399 333.7C8.6069 333.167 8.28295 332.117 8.16146 330.987C7.80511 327.758 7.38397 327.36 4.35495 326.629C2.68657 326.231 1.22875 324.497 0.985785 322.517C0.896696 321.793 0.848102 321.021 1.01008 320.329C2.4517 314.213 4.7032 308.574 10.8908 305.551C13.0613 304.494 14.2924 302.577 15.24 300.684C16.6411 297.9 18.358 295.204 19.0546 292.102C19.2165 291.394 19.581 290.63 19.4433 289.97C18.9007 287.393 19.994 285.572 21.8001 283.862C22.6019 283.106 23.4118 282.191 23.4199 280.895C23.4361 277.65 25.8496 276.115 28.3279 274.938C30.2311 274.031 31.6241 273.172 32.3045 270.953C33.1953 268.058 37.7065 267.557 39.7474 269.887C40.0957 270.285 40.5735 270.643 40.7355 271.112C41.8774 274.437 44.9469 274.222 47.5548 274.58C49.4661 274.842 50.2517 273.554 49.8954 271.581C49.5633 269.736 49.4581 267.891 47.6601 266.61C46.7368 265.958 45.7163 265.815 44.7445 265.425C42.9141 264.701 42.4363 263.906 42.8412 262.053C43.5458 258.855 44.8659 255.92 46.8907 253.304C47.8626 252.954 48.0731 253.654 48.3242 254.29C48.389 254.616 48.4052 254.942 48.3647 255.268C48.2837 255.785 48.0974 256.27 47.8869 256.755C45.8783 261.416 45.8864 261.408 49.62 264.574C51.8472 266.467 52.811 268.964 53.0459 271.78C53.0621 274.715 51.742 276.632 48.7291 277.252C48.0731 277.395 47.409 277.443 46.7368 277.459C46.4209 277.475 46.1051 277.467 45.7811 277.451C42.7683 276.942 40.1847 275.924 38.4597 273.108C37.1638 270.993 36.1272 271.128 34.8151 273.283C33.6732 275.152 32.102 276.425 30.1096 277.324C27.9796 278.278 26.4327 279.766 26.0035 282.144C25.6228 284.22 23.9949 285.524 22.8287 287.115C21.8082 289.119 22.6667 291.457 21.6624 293.454C21.5814 293.724 21.4762 293.987 21.3628 294.249C21.136 294.758 20.9416 295.283 20.7634 295.816C20.6744 296.087 20.561 296.349 20.4395 296.604C20.2532 297.001 20.0507 297.391 19.8483 297.781C17.8397 302.489 15.1428 306.506 10.4859 309.298C6.80083 311.509 5.44021 315.653 4.03099 319.478C3.29398 321.491 3.95 323.185 6.323 323.861C7.35966 324.155 8.50162 324.593 8.92277 325.555C10.7531 329.715 14.1304 333.191 14.6487 337.923C14.8431 339.713 15.7178 340.381 17.5967 340.365C21.1441 340.341 22.1889 341.327 22.6667 344.938C22.8206 346.068 23.3227 346.847 24.0759 347.627C26.1897 349.806 28.5141 351.842 28.7328 355.206C28.83 356.71 30.1339 356.535 31.203 356.248C32.839 355.803 34.4264 355.191 36.1191 354.92C39.4639 354.379 40.4925 355.016 41.3186 358.324C41.5697 359.334 41.7397 360.368 41.9746 361.394C42.0718 361.856 42.1123 362.325 42.1123 362.794C42.1123 363.415 42.0313 364.027 41.8288 364.624C40.9056 366.214 39.5449 367.678 40.8974 369.738C41.5697 370.764 42.1447 371.337 43.4243 370.66C46.4209 369.07 48.802 366.246 52.7462 366.469C53.7829 366.525 53.7181 364.767 54.3579 363.955C54.5199 363.685 54.7143 363.438 54.9248 363.2C55.0382 363.081 55.1516 362.969 55.2569 362.85C55.8724 362.277 56.5365 361.768 57.2735 361.355C59.2902 360.185 61.4526 359.843 63.7203 360.337C64.8785 360.583 65.9961 360.989 66.2391 362.373C66.8627 363.168 67.4863 363.955 68.11 364.751C69.9646 366.445 72.2323 367.781 73.1718 370.279C73.431 370.509 73.7306 370.668 74.0789 370.724C74.3138 370.772 74.4838 370.899 74.6053 371.098C75.1561 371.639 75.5124 372.903 76.5572 371.599C77.9097 370.772 79.3594 370.263 80.9792 370.318C82.3884 369.523 83.9353 369.786 85.4498 369.762C86.0653 369.563 86.3569 369.722 86.1787 370.398C87.7094 371.726 88.8352 373.707 91.3378 373.42C92.6741 372.951 93.3058 373.397 93.2572 374.765Z" fill="#102F07"/>
<path d="M143.649 382.973C145.787 383.02 147.075 384.834 148.962 385.415L148.978 385.422C149.399 386.894 149.82 388.365 150.233 389.845C150.752 390.863 150.298 392.255 151.497 393.002C151.861 393.861 152.525 394.251 153.473 394.235C155.457 394.187 156.81 395.229 157.863 396.772C158.478 396.955 158.794 397.329 158.656 397.981C159.061 399.127 159.482 400.264 160.276 401.219C161.499 402.388 161.993 404.193 163.678 404.957C164.131 404.925 164.585 404.885 165.038 404.853C167.484 403.032 170.359 402.618 173.307 402.451C174.206 402.467 174.579 401.998 174.571 401.155C176.077 399.691 177.575 398.22 178.831 396.526C183.042 389.535 189.351 387.005 197.361 388.127C198.641 388.302 199.929 388.453 201.152 388.023C203.638 387.164 206.124 387.069 208.684 387.626C210.684 388.055 212.441 387.3 214.11 386.297C214.758 386.043 215.438 385.947 216.135 385.971C220.314 386.95 224.452 387.268 228.737 386.186C231.263 385.55 233.96 386.512 236.641 385.844C242.513 384.396 246.02 380.515 247.567 375.186C249.591 368.211 251.219 366.747 258.46 366.485C262.185 366.349 265.53 364.393 269.102 363.438C269.823 363.248 270.147 362.444 270.519 361.808C272.439 358.547 272.552 358.515 276.537 359.812C277.403 357.592 277.816 354.872 280.934 354.419C282.344 354.992 282.149 355.898 281.477 356.908C280.586 357.64 279.655 358.276 279.922 359.724C280.06 360.496 279.784 361.386 279.525 362.182C279.007 363.78 277.849 364.194 276.342 363.375C275.783 363.073 275.265 362.707 274.731 362.365C274.196 362.023 273.524 362.062 273.443 362.643C272.787 367.208 268.705 366.62 265.725 367.686C265.239 367.861 264.615 367.757 264.194 368.012C261.724 369.515 259.132 369.825 256.241 369.475C253.366 369.117 251.503 371.042 251.154 374.017C250.669 378.145 248.263 381.263 245.558 384.237C241.565 388.628 236.422 389.535 230.802 388.994C229.717 388.89 228.623 388.93 227.643 389.24C224.039 390.378 220.484 389.964 216.961 389.065C215.9 388.795 215.195 388.858 214.361 389.535C212.895 390.728 211.259 391.078 209.299 390.648C206.699 390.083 204.116 390.115 201.467 391.062C199.264 391.849 196.843 391.165 194.559 390.728C192.591 390.354 190.777 390.123 189.311 391.897C188.679 392.66 187.748 392.915 186.752 393.01C184.913 393.185 183.65 394.148 182.783 395.762C179.657 401.616 174.636 404.893 168.116 406.253C165.929 406.715 163.775 407.303 161.531 407.343C159.296 407.375 159.353 407.216 158.883 404.766C158.381 402.109 157.441 399.572 155.854 397.297C155.32 396.534 154.615 396.24 153.781 395.985C151.958 395.42 150.144 394.816 148.354 394.156C147.075 393.686 146.411 392.907 147.269 391.507C147.65 390.887 147.885 390.187 148.152 389.503C148.581 388.397 148.282 387.538 147.374 386.719C146.054 385.55 144.329 384.746 143.649 382.973Z" fill="#112F07"/>
<path d="M619.536 524.469C616.069 523.849 612.603 523.682 609.112 524.342C607.298 524.684 605.5 524.596 603.937 523.419C602.795 522.568 601.402 522.401 600.09 522.012C596.834 521.041 594.745 519.228 593.708 515.776C592.744 512.563 591.951 509.421 591.959 506.08C591.959 505.229 591.797 504.426 591.359 503.686C590.987 503.424 591.116 502.183 590.145 503.074C589.1 504.211 588.662 505.539 588.695 507.067C588.711 507.886 588.816 508.8 588.517 509.524C587.626 511.64 587.739 513.318 589.464 515.132C590.865 516.595 590.112 518.766 588.314 519.904C583.738 522.791 581.155 522.513 576.968 518.56C575.931 519.347 574.805 519.999 573.849 521.009C572.732 522.187 571.225 522.823 569.565 521.868C568.788 521.415 567.978 521.312 567.127 521.399C565.516 521.55 564.519 520.787 563.888 519.419C564.05 518.241 564.941 517.478 565.588 516.579C565.953 515.959 566.277 515.322 566.803 514.67C566.244 515.227 565.961 515.839 565.621 516.412C564.827 517.398 564.22 518.528 563.305 519.419C561.782 522.004 559.417 522.457 556.704 521.813C555.538 521.534 554.461 521.526 553.27 521.789C552.152 522.035 550.84 522.179 549.787 521.852C546.856 520.93 543.916 521.359 540.976 521.407C540.441 521.415 539.899 521.32 539.615 521.916C538.441 524.382 536.068 524.398 533.857 524.421C532.626 524.437 531.63 524.525 530.617 525.296C529.977 525.79 529.062 526.179 528.268 526.179C525.904 526.179 523.668 526.887 521.336 527.301C521.287 528.557 522.04 529.544 522.785 530.57C524.211 532.526 524.705 534.722 524.195 537.092C523.846 538.682 523.15 540.138 521.563 540.79C519.489 541.641 518.145 543.176 516.808 544.839C516.241 545.547 515.699 546.207 515.942 547.058C516.565 549.253 515.391 550.613 513.893 551.933C512.791 552.912 512.273 554.168 511.73 555.584C510.491 558.829 507.754 561.319 506.377 564.58C506.118 565.2 505.024 565.566 504.247 565.86C502.57 566.481 501.639 566.051 501.088 564.333C500.667 563.029 500.416 561.748 499.007 560.993C498.27 560.603 497.922 559.752 497.776 558.877C497.274 555.95 495.8 553.389 494.577 550.732C494.172 549.849 493.516 549.197 492.73 548.625C491.443 547.686 490.341 546.596 489.491 545.212C488.276 543.24 487.158 543.057 485.069 543.996C483.433 544.727 481.724 545.364 480.339 546.509C478.938 547.67 479.164 548.887 480.93 549.102C483.886 549.468 486.194 550.589 487.733 553.15C488.122 553.802 488.875 554.025 489.636 554.192C490.382 554.351 491.2 554.693 491.451 555.377C492.625 558.567 495.873 560.022 497.679 562.734C498.877 564.54 499.631 566.099 499.128 568.215C498.966 568.899 498.926 569.742 499.185 570.37C500.878 574.554 498.003 576.765 495.298 578.904C493.896 580.018 492.584 580.869 491.896 582.738C491.119 584.846 488.956 586.254 487.928 588.353C487.774 588.679 487.272 588.966 486.891 589.029C483.813 589.594 481.554 591.463 479.351 593.46C478.735 594.016 477.917 594.669 477.075 594.144C476.16 593.571 476.743 592.632 476.921 591.845C477.043 591.169 476.929 590.739 476.079 591.042C473.722 591.042 471.43 591.328 469.43 592.696C467.526 594 466.125 595.432 466.49 598.089C466.943 601.397 465.453 602.415 462.181 601.397C461.784 601.278 461.387 601.127 460.982 601.103C460.683 601.087 460.375 601.246 459.921 601.358C460.48 602.654 461.954 602.845 462.74 603.784C464.214 605.557 464.036 606.917 461.817 607.569C459.306 608.309 456.698 608.794 454.106 609.176C452.001 609.486 450.867 607.967 450.041 606.265C447.967 607.267 447.473 609.51 445.57 610.337C444.857 610.648 445.197 611.435 445.4 612.024C445.643 612.724 446.655 612.867 446.712 613.718C447.052 614.577 447.408 615.658 446.518 616.159C445.562 616.692 444.938 615.539 444.226 615.038C441.48 611.825 441.334 610.139 444.396 607.601C447.004 605.438 446.639 602.861 446.461 600.157C446.356 598.582 445.862 597.071 445.764 595.496C445.611 592.998 447.198 591.861 449.32 591.36C451.563 590.835 452.762 592.259 453.28 594.12C453.936 596.458 454.001 598.892 453.515 601.27C452.511 606.201 452.891 606.591 457.986 605.462C458.293 605.39 458.626 605.366 458.877 605.056C459.006 604.603 458.593 604.364 458.31 604.078C457.192 602.94 456.552 601.644 457.249 600.093C457.897 598.653 459.371 598.176 460.723 598.288C463.072 598.486 463.631 597.611 464.019 595.4C464.692 591.575 467.964 589.833 471.39 588.727C473.285 588.115 475.455 587.773 477.391 588.051C483.238 588.878 486.624 585.816 489.159 581.354C490.276 579.382 491.54 577.727 493.516 576.486C495.735 575.095 496.197 573.082 496.278 570.338C496.48 563.371 491.37 560.134 487.15 556.181C484.923 554.089 482.477 552.466 479.391 551.52C476.225 550.541 475.836 547.074 478.306 544.632C479.91 543.049 481.918 542.047 484.121 541.458C485.044 541.259 485.96 541.053 486.883 540.87C487.369 540.814 487.838 540.862 488.308 540.989C489.215 541.315 490.066 541.753 490.835 542.333C497.347 547.527 499.477 555.497 503.664 562.552C505.664 560.301 507.09 558.097 508.037 555.966C509.681 552.283 512.978 549.523 513.528 545.157C513.844 542.659 516.217 540.75 518.461 539.223C521.716 537.004 522.081 535.485 520.242 532.113C519.837 531.373 519.368 530.673 519.028 529.902C517.521 526.497 518.396 524.461 522.154 524.254C526.794 524 530.731 521.113 535.412 521.288C535.825 521.304 536.303 521.089 536.538 520.755C538.222 518.464 540.7 518.528 543.171 518.512C544.142 518.496 545.066 518.09 546.046 518.202C549.949 519.777 554.064 518.297 558.048 518.957C559.466 519.196 560.389 518.138 561.158 517.088C562.527 515.211 563.596 513.159 564.868 511.226C565.686 509.986 566.544 508.625 568.366 509.103C570.205 509.58 570.642 511.155 570.885 512.753C571.12 514.288 570.545 515.633 569.67 516.873C569.371 517.295 568.917 517.78 569.241 518.273C569.622 518.87 570.359 518.798 570.99 518.727C572.23 518.583 573.072 517.709 573.995 517.025C576.141 515.442 578.166 515.076 580.199 517.255C581.26 518.393 582.629 519.005 584.24 518.472C585.731 517.987 586.654 517.144 585.917 515.41C583.884 510.63 585.488 506.144 587.439 501.857C589.14 498.111 591.181 494.627 589.302 490.316C588.541 488.566 589.707 487.556 591.489 487.317C593.951 486.991 596.113 488.415 596.778 490.833C597.571 493.68 597.223 496.639 595.976 499.097C594.696 501.626 594.429 504.004 594.793 506.629C594.745 507.743 594.915 508.84 595.101 509.938C595.433 512.117 596.599 514.042 597.142 516.158C597.328 516.873 597.733 517.621 598.405 517.899C602.139 519.458 605.573 521.98 610.027 521.264C612.538 520.858 615.106 520.962 617.632 521.192C618.985 521.32 620.41 521.51 621.115 522.966C621.083 523.984 620.694 524.62 619.536 524.469Z" fill="#102F07"/>
<path d="M436.313 625.783C434.418 625.815 432.612 625.958 430.708 626.523C427.436 627.493 423.962 628.758 420.536 626.595C419.346 625.839 418.131 626.34 417.515 627.446C416.649 629.013 415.134 629.792 413.863 630.882C412.324 632.194 410.599 632.878 408.574 632.528C406.914 632.242 405.934 632.822 405.44 634.397C405.132 635.392 404.63 636.314 404.249 637.284C403.18 640.021 400.742 640.657 398.369 638.843C397.284 638.016 396.442 636.903 395.421 635.98C394.611 635.248 394.004 635.638 393.874 636.553C393.769 637.253 393.955 638 394.028 638.724C394.344 641.651 392.619 643.52 389.647 643.242C388.715 643.154 388.011 643.544 387.193 643.687C383.589 644.316 380.381 643.6 378.154 640.538C377.385 639.48 376.429 639.281 375.401 639.44C373.505 639.742 371.991 638.851 370.282 638.422C366.84 637.555 364.969 634.278 361.478 633.626C360.15 633.379 359.851 631.963 360.482 630.786C361.049 629.728 360.75 629.148 359.98 628.352C358.369 626.69 356.911 624.885 355.404 623.127C354.222 621.735 354.117 620.407 355.048 618.864C355.429 618.235 355.817 617.623 356.222 617.018C357.299 615.428 358.636 614.545 360.766 614.823C362.62 615.07 364.556 615.515 366.403 614.489C366.962 614.179 367.666 614.378 368.201 614.799C368.695 615.189 369.14 615.658 369.65 616.024C372.801 618.251 374.299 617.822 375.87 614.322C376.324 613.312 375.384 612.533 375.554 611.61C375.943 609.415 375.352 607.681 373.684 606.05C371.967 604.372 372.598 602.161 373.133 600.109C373.246 599.671 373.57 599.202 373.943 599.226C376.105 599.345 376.98 597.476 378.381 596.482C379.725 595.527 380.584 594.096 382.601 593.977C383.848 593.905 384.722 592.41 385.006 591.256C385.508 589.18 387.055 588.512 388.732 587.828C389.614 587.462 390.602 587.208 391.307 586.627C392.044 586.015 393.056 585.172 391.736 584.074C390.983 583.446 390.999 582.627 391.347 581.776C391.736 580.813 392.012 579.803 392.368 578.833C393.599 575.492 395.583 573.806 399.382 574.856C400.143 575.063 401.066 574.744 401.908 574.617C404.306 574.243 405.18 572.931 404.654 570.442C404.33 568.922 403.982 567.395 403.52 565.916C403.212 564.946 403.415 564.238 404.29 563.8C406.088 562.901 407.23 561.517 407.861 559.64C408.169 558.718 409.4 558.646 410.048 557.644C407.74 556.403 406.225 554.431 404.622 552.506C403.464 551.122 403.075 549.754 403.909 548.195C404.597 546.899 404.711 545.618 404.281 544.258C404.184 543.964 403.901 543.566 404.006 543.391C405.561 540.814 403.512 538.73 402.986 536.471C402.67 535.143 402.921 534.236 403.885 533.409C404.362 532.995 405.108 532.749 405.367 532.248C406.63 529.774 408.865 529.138 411.384 528.883C413.093 528.708 413.806 527.317 414.567 526.092C416.406 523.165 419.653 522.966 421.67 525.766C422.82 527.356 424.245 528.804 424.829 530.753C425.282 532.264 425.881 533.719 424.561 535.191C424.173 535.62 423.598 536.384 424.254 537.139C424.569 537.505 425.023 537.617 425.412 537.489C426.286 537.219 426.861 536.63 426.845 535.652C426.837 535.342 426.675 535.032 426.699 534.729C426.853 532.844 428.109 532.001 429.996 532.526C430.401 532.638 430.757 532.916 431.154 533.035C432.199 533.345 433.187 533.353 433.114 531.914C433.008 529.941 434.183 529.377 435.859 529.194C437.487 529.011 439.245 528.12 440.241 530.387C440.751 531.548 441.618 532.486 443.035 532.717C444.987 533.043 444.145 534.888 444.809 535.843C445.529 536.877 447.554 536.392 448.04 538.046C448.291 538.897 448.186 539.708 447.878 540.504C447.668 541.053 447.595 541.546 448.243 541.8C448.891 542.055 449.198 541.546 449.474 541.1C449.919 540.384 450.389 539.685 450.745 538.929C451.296 537.792 451.741 536.622 453.062 536.074C453.969 535.7 453.977 534.745 454.317 533.99C455.224 532.017 456.463 531.747 458.35 532.988C460.715 534.546 462.246 536.519 461.978 539.494C461.825 541.259 462.392 542.739 463.874 543.82C464.076 543.638 464.327 543.518 464.335 543.391C464.449 540.154 465.963 538.873 469.178 540.154C471.462 541.061 473.779 540.162 475.965 541.108C476.953 541.538 477.537 540.233 478.427 539.844C477.885 537.601 475.253 537.935 474.143 536.439C473.414 535.779 472.596 535.032 473.503 534.085C474.257 533.298 475.139 533.974 475.747 534.483C477.026 535.565 478.233 536.662 479.82 537.386C481.06 537.959 481.359 539.303 481.189 540.647C480.144 543.089 478.16 544.115 475.585 543.884C473.479 543.693 471.308 544.25 469.259 543.319C468.514 542.977 467.753 543.2 467.389 544.019C466.627 545.745 465.728 547.455 463.428 546.708C461.136 545.968 459.784 544.218 459.403 541.84C459.201 540.599 459.306 539.311 458.812 538.126C458.123 536.479 457.378 535.549 455.677 537.394C454.374 538.81 453.224 540.265 452.357 541.975C451.474 543.725 450.057 544.783 447.983 544.441C445.959 544.107 444.744 542.946 444.752 540.79C444.752 540.377 444.979 540.742 444.728 540.496C442.233 538.062 441.083 534.491 437.876 532.693C437.277 532.359 436.637 532.439 436.135 532.988C435.924 533.226 435.722 533.473 435.576 533.751C434.41 535.914 432.037 535.246 430.36 536.034C428.862 536.742 428.538 539.279 426.513 539.939C424.974 540.44 423.541 540.154 422.285 539.191C420.884 538.126 420.811 536.638 421.395 535.199C422.496 532.478 421.662 530.323 419.759 528.319C418.665 527.165 417.556 526.879 416.616 528.311C415.175 530.514 413.093 531.373 410.607 532.017C407.197 532.9 406.25 535.286 407.262 538.722C408.072 541.474 407.74 544.425 407.254 547.081C406.703 550.072 407.707 551.901 409.708 553.683C413.62 557.175 413.603 557.517 410.461 561.557C408.371 564.246 406.233 566.743 407.659 570.807C408.76 573.949 406.622 576.407 403.204 577.218C401.755 577.56 400.297 577.791 398.774 577.775C396.102 577.751 394.385 579.93 394.862 582.571C395.575 586.54 394.879 588.162 391.275 589.857C389.363 590.755 387.897 591.948 386.836 593.738C386.075 595.018 384.998 596.116 383.54 596.617C380.673 597.595 379.021 600.069 376.777 601.811C375.271 602.98 376.34 604.157 377.166 605.334C379.45 608.572 379.134 615.396 376.664 618.251C374.542 620.701 372.712 621.266 369.966 619.42C367.115 617.504 364.013 617.965 361.025 617.861C358.271 617.766 357.291 620.184 358.863 622.483C359.762 623.795 360.936 624.877 361.956 626.086C362.572 626.809 363.333 627.47 363.592 628.392C365.309 634.334 370.485 635.598 375.571 636.728C377.49 637.149 379.175 637.42 380.641 638.915C382.957 641.293 387.444 641.619 390.092 639.909C390.991 639.329 390.837 638.47 390.821 637.658C390.781 635.463 391.566 633.697 393.729 632.886C395.818 632.099 397.082 633.514 398.377 634.819C400.483 636.927 401.204 636.831 402.394 634.008C403.69 630.937 405.65 629.315 409.23 629.569C411.554 629.736 413.207 628.042 414.519 626.42C416.802 623.596 419.467 623.071 422.755 624.328C425.566 625.402 428.206 624.129 430.895 623.604C432.604 623.246 434.304 623.421 435.957 623.811C437.414 624.145 437.431 624.535 436.313 625.783Z" fill="#102F07"/>
<path d="M447.238 639.583C448.202 638.557 448.858 638.597 449.142 639.782C449.393 640.848 449.174 642.057 450.454 642.653C451.588 641.858 449.846 639.4 452.381 639.408C454.43 638.637 454.738 636.362 456.22 635.105C456.649 637.173 456.358 639.018 454.471 640.331C453.677 640.88 453.653 641.595 453.628 642.486C453.588 644.117 452.665 645.047 451.183 645.095C449.741 645.151 448.397 644.745 447.935 643.21C447.579 642.041 447.457 640.8 447.238 639.583Z" fill="#1A3910"/>
<path d="M438.346 626.897C438.572 626.308 438.791 625.72 439.018 625.131C439.196 624.853 439.407 624.845 439.633 625.076L439.609 625.052C439.844 625.259 440.233 625.314 440.273 625.704C440.986 626.539 441.399 627.605 442.444 628.17C444.031 629.029 443.861 630.15 442.841 631.351C441.764 629.458 440.046 628.178 438.346 626.897Z" fill="#214019"/>
<path d="M786.164 596.108C787.354 598.184 788.739 600.117 790.44 601.827C790.181 603.346 790.804 604.205 792.392 604.34C793.315 604.921 793.849 605.82 794.368 606.718C793.809 607.569 794.813 608.102 794.813 608.85C795.429 612.207 795.874 615.555 797.413 618.737C798.361 620.685 797.964 623.024 796.895 625.06C796.717 625.274 796.506 625.489 796.231 625.616C796.522 625.664 796.717 625.418 797.008 625.394C799.389 625.322 801.714 625.561 803.989 626.165C805.423 626.547 806.921 626.937 807.286 628.695C805.836 629.896 807.545 630.365 807.877 631.152C807.78 631.884 808.152 631.51 808.42 631.367C810.558 632.186 812.696 632.997 814.842 633.817C816.3 635.097 816.851 636.783 816.761 638.621C816.624 641.253 814.486 642.447 811.853 642.041C810.128 641.77 807.909 641.341 807.035 643.846C806.816 644.475 806.33 644.888 805.553 644.689C803.609 644.188 800.734 639.782 800.912 637.539C800.985 636.632 801.471 635.606 800.337 635.026C799.316 634.501 798.466 634.493 797.583 635.575C796.676 636.696 795.688 636.092 795.04 635.042C794.214 633.697 793.744 632.115 792.651 630.985C792.108 630.428 792.513 627.939 790.464 629.633C790.335 629.744 789.978 629.601 789.905 629.418C789.039 627.303 786.147 626.921 785.427 625.465C784.05 622.682 781.458 621.202 779.814 618.832C779.701 616.923 780.583 615.444 781.92 614.171C783.054 613.519 784.187 613.901 785.313 614.219C786.269 614.489 787.233 614.895 787.038 616.096C786.828 617.416 785.767 617.249 784.787 617.09C784.277 617.011 783.758 616.859 783.135 617.472C784.69 619.19 786.131 620.908 788.828 620.558C789.144 620.518 789.468 620.494 789.784 620.534C790.893 620.669 792.481 620.319 792.618 621.846C792.764 623.405 790.991 622.984 790.165 623.461C794.74 622.634 795.064 621.791 793.185 617.583C792.392 615.81 791.914 614.298 789.687 613.702C788.472 613.376 788.196 611.769 788.14 610.481C788.099 609.431 788.618 608.667 789.662 608.349C791.193 607.88 791.153 609.216 791.558 610.329C791.89 608.405 790.691 607.554 789.784 606.591C788.618 605.358 787.597 604.07 786.917 602.495C785.24 598.653 782.333 597.643 778.461 599.457C778.162 599.52 777.862 599.497 777.579 599.385C777.279 595.504 774.671 594.271 771.205 593.833C770.184 593.706 769.212 593.086 768.427 592.346C767.568 591.543 767.22 590.509 767.917 589.523C768.751 588.337 769.553 589.228 770.306 589.801C771.051 590.366 771.82 591.233 772.817 590.437C773.545 589.857 773.497 588.894 773.157 588.099C772.606 586.81 771.504 586.93 770.46 587.359C769.366 587.813 768.152 587.773 767.066 588.234C766.216 588.592 765.26 589.419 764.637 588.107C763.989 586.739 764.556 585.562 765.924 585.029C767.479 584.424 768.888 583.812 769.237 581.998C769.318 581.593 769.407 581.179 768.824 580.583C767.285 583.327 764.726 585.14 763.073 587.797C761.089 590.978 759.21 590.819 757.453 587.574C757.137 586.985 756.886 586.46 756.133 586.405C755.258 586.341 754.286 586.309 754.489 585.061C754.651 584.035 755.42 583.454 756.4 583.152C756.708 583.056 757.04 583.024 757.348 583.088C758.457 583.319 759.502 583.422 759.899 582.022C760.004 581.64 760.312 581.155 759.769 580.933C758.643 580.479 757.801 581.147 756.829 581.625C754.699 582.659 752.464 583.128 750.05 582.34C748.179 581.728 746.746 580.789 746.487 578.769C746.211 576.646 745.061 576.152 743.15 576.757C742.64 576.916 742.146 577.123 741.611 577.178C740.631 577.274 739.538 577.345 739.182 576.224C738.858 575.206 739.918 574.896 740.566 574.379C741.376 573.727 743.417 573.703 742.705 572.231C741.935 570.633 740.194 571.07 738.752 571.746C737.983 572.112 737.238 572.502 736.517 572.955C733.844 574.633 733.496 574.586 732.119 571.698C731.228 569.845 729.868 570.116 728.369 570.521C727.438 570.776 726.345 571.985 725.648 570.505C725 569.105 726.069 568.191 727.236 567.483C727.746 567.173 728.531 567.364 728.815 566.648C725.373 564.643 722.627 564.731 719.906 567.117C718.942 567.96 717.954 568.223 716.731 568.278C715.12 568.35 714.14 568.922 715.524 570.593C716.164 571.372 717.355 572.207 715.881 573.114C714.731 573.822 713.613 573.281 712.795 572.279C712.261 571.627 711.702 570.943 711.467 570.147C710.924 568.342 710.39 566.823 707.855 567.173C706.907 567.3 705.692 566.457 705.862 565.176C706.016 563.991 707.223 564.031 708.163 563.943C709.75 563.8 711.24 564.103 712.674 564.922C708.924 562.456 706.065 558.583 700.825 558.257C702.015 559.744 703.757 561.231 699.764 561.693C701.91 562.822 702.922 561.621 704.064 561.064C704.85 560.682 705.676 560.213 706.308 561.176C706.81 561.947 706.664 562.782 706.057 563.506C705.919 563.665 705.749 563.792 705.587 563.928C704.316 564.962 701.829 565.065 701.829 566.974C701.837 570.084 701.845 573.233 702.169 576.335C702.291 577.457 703.246 577.894 704.291 577.027C705.425 576.089 706.729 575.779 708.163 575.914C710.576 576.144 711.175 577.091 710.608 579.708C709.863 580.352 709.264 579.891 708.608 579.509C707.264 578.737 706.494 579.35 705.368 580.32C702.307 582.969 699.756 586.755 694.734 585.967C693.528 585.776 692.945 586.898 692.151 587.574C690.499 588.982 689.008 590.779 686.36 590.207C688.523 593.746 689.341 593.802 692.969 590.803C692.386 590.835 692.11 591.336 691.681 591.599C691.106 591.948 690.483 592.171 689.964 591.583C689.397 590.938 689.486 590.222 690.013 589.586C691.228 588.139 692.734 587.288 694.71 587.351C700.792 587.534 706.154 586.238 709.394 580.511C709.596 580.161 710.09 580.05 710.43 579.803C712.09 576.343 716.334 576.789 718.805 574.49C719.444 573.894 720.659 574.204 721.615 574.283C722.652 574.371 723.583 574.768 723.542 575.946C723.502 577.099 722.449 577.011 721.615 577.115C721.194 577.17 720.773 577.242 719.955 577.505C722.571 577.298 724.466 578.888 726.806 578.427C728.24 578.141 729.69 578.125 731.131 577.6C732.549 577.083 734.557 576.693 733.966 579.517C733.885 579.915 733.982 580.01 734.581 579.986C737.942 579.835 741.004 581.036 744.09 582.046C745.847 582.619 747.645 581.052 749.33 582.356C750.164 583.001 752.002 582.826 751.597 584.44C751.273 585.697 749.896 585.395 748.844 585.323C748.528 585.299 748.204 585.251 747.645 586.166C750.974 585.983 753.096 587.828 755.428 589.467C756.991 590.564 757.275 592.672 759.324 593.348C759.98 593.563 759.502 594.852 758.554 595.281C757.761 595.639 756.845 595.353 756.052 595.758C759.315 596.037 759.356 596.013 760.555 593.587C761.356 591.964 764.985 590.652 766.645 591.392C767.496 591.773 767.998 592.426 767.892 593.38C767.787 594.303 767.115 594.486 766.281 594.525C765.39 594.565 763.859 594.311 764.013 595.464C764.167 596.649 765.641 597.349 766.953 597.405C768.111 597.444 769.221 596.721 770.395 596.816C772.314 596.983 773.051 597.707 771.31 599.258C770.314 599.783 769.285 600.228 768.192 600.562C767.617 600.737 767.001 601.183 767.981 601.771C768.395 601.93 768.751 602.145 768.945 602.551C768.751 603.656 767.86 603.935 766.953 604.205C764.79 604.428 763.778 603.362 763.657 601.326C763.592 600.165 763.146 599.274 761.891 599.035C760.66 598.797 759.81 599.369 759.348 600.451C758.562 602.272 757.647 602.089 756.683 600.642C756.116 599.791 755.25 599.457 754.375 599.051C752.593 598.24 751.719 596.856 752.44 594.971C752.958 593.619 752.942 592.72 751.719 591.694C750.439 590.62 749.848 590.962 748.989 592.123C748.512 592.768 747.775 592.195 747.434 591.678C746.738 590.612 745.353 589.833 745.094 588.751C744.203 585.037 741.417 584.098 738.21 583.812C734.557 583.478 731.018 581.799 727.244 582.905C726.539 583.112 726.005 582.682 725.519 582.293C723.137 580.376 720.206 581.123 717.517 580.694C716.723 580.567 716.432 581.203 716.091 581.736C715.8 582.197 715.2 582.794 714.852 582.428C712.487 579.938 712.406 582.937 711.767 583.764C709.96 586.11 707.531 587.55 704.98 588.87C702.266 590.278 699.44 591.352 696.986 593.388C695.731 594.43 693.301 594.525 691.438 595.241C689.867 595.854 688.142 596.053 686.984 597.5C686.328 598.311 685.404 598.303 684.886 597.357C684.02 595.774 682.173 595.353 681.104 594.04C680.505 593.261 680.853 592.41 680.918 591.575C682.173 589.165 683.971 587.622 686.935 587.94C688.693 588.131 689.664 586.914 690.555 585.792C692.216 583.7 694.07 582.674 696.889 583.478C698.76 584.011 701.481 581.195 700.477 579.811C698.419 576.964 699.885 573.909 699.375 571.006C699.075 569.272 698.322 567.419 699.318 565.59C699.489 565.28 697.61 563.538 696.516 562.886C696.946 560.507 697.561 558.177 698.33 555.878C699.667 554.423 701.4 555.528 702.914 555.194C703.684 556.101 704.421 557.135 705.611 555.616C705.887 555.266 706.356 555.258 706.794 555.33C708.203 557.063 709.321 559.052 711.953 559.458C713.006 559.617 713.921 560.595 714.52 561.621C715.12 562.289 714.164 563.936 715.978 563.848C718.432 565.502 718.683 562.456 720.125 561.971C720.764 561.78 721.445 561.899 722.093 561.796C722.352 561.772 722.611 561.788 722.87 561.82C723.672 561.987 724.433 561.732 725.211 561.605C729.301 561.979 732.395 564.031 734.403 567.427C735.343 569.01 736.153 569.169 737.659 568.445C739.757 567.435 741.927 567.443 744.049 568.469C745.426 569.352 744.835 571.722 746.9 572.088C748.163 572.891 748.576 574.172 748.908 575.492C749.986 579.819 751.654 580.455 755.485 578.006C756.327 577.528 757.258 577.274 758.174 576.988C760.077 577.504 761.632 577.417 762.15 575.063C762.272 574.522 762.895 574.442 763.357 574.951C764.223 577.083 763.802 579.254 763.6 581.402C763.6 581.601 763.665 581.807 763.786 581.967C763.972 581.99 764.151 581.959 764.305 581.831C764.24 581.632 764.183 581.45 764.126 581.259C764.224 580.917 764.434 580.654 764.653 580.4C765.163 579.819 765.463 579.111 765.86 578.459C766.572 577.481 767.374 576.661 768.759 576.868C769.779 577.17 770.727 577.624 771.594 578.228C771.909 578.515 772.209 578.833 772.331 579.23C772.752 580.559 775.457 585.379 776.259 586.158C775.886 591.4 778.996 593.786 783.661 594.899C784.56 595.138 785.127 596.1 786.164 596.108Z" fill="#2A6D39"/>
<path d="M816.162 530.092C815.085 531.389 814.081 532.765 812.599 533.64C811.7 534.173 811.359 535.016 810.938 535.867C810.128 537.497 808.905 538.77 807.431 539.876C806.111 540.87 804.824 541.291 803.35 540.337C801.989 539.454 801.017 537.06 801.446 535.676C801.568 535.294 801.981 534.968 802.021 534.594C802.119 533.624 801.957 532.741 800.847 532.288C799.794 531.858 799.195 532.51 798.668 533.123C797.972 533.934 797.583 535.024 797.688 536.026C798.101 539.883 795.453 541.824 792.797 543.685C791.89 544.322 790.837 544.568 790.148 545.682C789.492 546.748 788.091 547.002 786.747 547.074C783.766 547.233 781.15 548.06 779.684 550.971C779.377 551.591 778.729 552.092 778.138 552.514C774.776 554.924 774.161 556.682 775.7 560.325C778.421 566.775 780.988 573.305 784.042 579.596C786.69 585.037 788.796 590.803 792.699 595.591C795.639 599.186 797.664 603.402 800.491 607.021C805.787 613.797 810.841 620.884 818.26 625.76C818.689 626.038 818.989 626.491 819.353 626.865C820.884 628.178 823.257 626.07 824.609 628.114C823.524 630.102 821.597 629.546 819.888 629.625C816.826 629.076 814.915 626.889 812.898 624.861C811.586 623.095 809.796 621.799 808.177 620.343C806.913 619.19 805.698 617.989 805.002 616.398C803.844 615.165 802.734 613.885 801.6 612.628C798.814 610.107 797.413 606.607 795.153 603.72C787.549 594.525 782.438 583.979 777.951 573.106C776.712 570.108 775.773 566.99 774.031 564.198C773.699 563.665 773.505 563.037 773.059 562.583C772.282 561.796 771.205 561.645 770.46 562.281C769.472 563.124 770.63 563.729 771.132 564.254C772.574 565.773 774.825 566.672 775.473 568.755C776.574 572.319 778.243 575.786 778.445 579.533C778.599 582.444 779.498 584.559 782.228 585.864C783.491 586.468 784.568 587.439 785.111 588.711C787.54 594.374 791.72 598.9 795.226 603.871C797.437 606.758 798.887 610.186 801.624 612.708C802.702 613.845 803.649 615.094 804.799 616.167C805.561 617.846 806.832 619.134 808.16 620.375C809.691 621.671 811.278 622.904 812.566 624.455C813.846 627.382 817.361 628.448 818.584 631.423C818.632 632.552 818.333 633.578 817.612 634.469C816.664 634.986 815.757 634.548 814.842 634.358C812.591 633.745 810.307 633.22 808.241 632.083C807.95 631.94 807.683 631.765 807.431 631.574C806.597 630.635 805.382 629.752 806.954 628.464C809.278 628.066 810.865 629.713 812.526 630.349C810.428 627.295 807.278 624.702 804.88 621.695C801.43 617.376 796.96 613.781 794.514 608.691C794.271 608.198 794.044 607.697 793.769 607.22C793.234 606.305 792.659 605.422 791.817 604.73C790.91 604.038 790.408 603.044 789.76 602.153C788.059 600.419 786.52 598.566 785.427 596.395C784.835 595.671 784.05 595.042 783.75 594.168C782.681 591.089 780.721 588.831 777.789 587.303C776.963 586.874 776.356 586.11 775.902 585.267C774.938 581.346 774.193 577.377 773.059 573.48C772.517 571.595 771.974 569.917 770.314 568.716C768.832 567.65 767.811 566.147 766.742 564.723C764.515 561.748 765.244 559.736 768.824 558.726C769.229 558.614 769.666 558.583 770.249 558.097C768.727 557.024 767.204 557.294 765.876 557.978C760.668 560.682 755.153 560.078 749.662 559.537C747.685 559.346 745.888 558.447 744.891 556.721C743.563 554.431 741.571 553.548 739.068 553.58C736.517 553.612 734.395 553.103 733.933 550.001C732.573 551.21 731.763 552.307 730.856 553.325C729.746 554.574 728.353 555.441 726.685 555.29C723.745 555.027 720.7 555.711 717.857 554.415C716.95 554.001 715.913 553.954 715.071 554.479C712.585 556.022 709.798 555.91 707.053 556.093C705.522 556.547 703.967 557.684 702.485 555.99C701.246 555.274 700.039 554.868 698.995 556.284C698.039 558.447 698.29 561.048 696.484 562.894C696.581 564.182 695.488 564.723 694.71 565.319C693.625 566.147 692.507 566.791 691.665 567.976C690.539 569.567 688.191 569.543 687.016 567.881C686.101 566.584 684.943 566.433 683.663 565.94C681.047 564.938 678.537 563.601 676.115 562.186C674.6 561.303 674.519 559.585 674.584 558.058C673.839 557.684 673.459 558.113 673.151 558.487C671.239 560.849 668.008 560.802 665.683 562.44C665.06 562.878 664.25 562.48 663.521 562.305C661.618 561.852 660.006 562.17 658.694 563.816C657.171 565.717 655.163 566.011 652.976 564.914C652.191 564.516 651.324 564.206 650.522 564.413C645.736 565.638 640.65 564.962 635.977 567.419C633.247 568.851 630.064 570.139 626.598 569.734C624.832 569.527 623.196 569.233 622.022 567.865C620.993 566.664 619.722 566.163 618.191 565.86C616.75 565.582 615.348 564.977 614.004 564.365C612.813 563.824 611.906 563.029 611.963 561.494C612.036 559.505 610.708 557.899 608.772 557.867C605.346 557.811 602.682 556.204 600.228 554.16C598.932 553.079 597.596 552.57 595.887 552.593C592.501 552.641 589.1 553.015 585.731 552.1C583.406 551.464 581.713 550.239 580.661 548.163C580.021 546.907 580.442 545.825 581.778 545.92C584.508 546.111 586.549 544.401 588.994 543.852C590.63 543.487 592.153 542.659 593.919 542.707C594.801 542.731 595.49 542.118 596.227 541.705C597.336 541.077 597.353 539.947 597.288 538.937C597.207 537.768 596.17 537.744 595.206 537.466C591.262 536.304 587.375 536.193 583.26 536.758C580.507 537.132 577.583 536.28 574.732 535.986C571.557 535.66 568.52 530.816 568.326 527.81C568.253 526.728 568.893 526.283 569.93 526.418C570.561 526.497 571.185 526.656 571.808 526.808C575.898 527.818 579.98 527.611 584.078 526.831C586.581 526.354 589.092 525.845 591.627 526.736C591.983 526.863 592.477 526.768 592.866 526.649C596.049 525.686 599.151 527.046 602.309 526.935C603.856 526.879 604.787 528.136 605.63 529.162C606.836 530.617 608.059 531.087 610.027 530.745C611.688 530.458 613.364 530.14 615.049 529.917C615.308 530.164 615.438 530.458 615.438 530.816C615.089 532.431 613.664 532.693 612.4 533.155C608.861 534.308 605.962 533.751 603.103 531.031C600.689 528.732 597.102 529.631 593.967 529.321C586.921 528.629 580.053 531.198 573.023 530.196C573.639 532.304 574.514 533.091 577.138 533.449C579.778 533.815 582.451 533.767 585.123 533.695C588.849 533.584 592.566 533.481 596.186 534.769C598.511 535.596 600.284 536.797 600.244 539.374C600.195 541.999 598.891 544.043 596.227 544.847C593.068 545.801 589.821 546.461 586.816 547.869C586.435 548.044 585.99 548.116 585.585 548.736C587.869 549.818 590.193 550.152 592.639 549.818C596.502 549.293 600.017 549.897 603.095 552.514C604.715 553.89 606.707 554.717 608.869 555.043C611.979 555.505 614.158 557.143 615.227 560.086C615.519 560.889 615.851 561.716 616.669 562.082C622.913 564.866 628.785 568.779 636.228 564.484C641.662 561.343 647.955 561.04 654.207 562.154C655.341 562.353 656.37 562.138 657.171 561.358C658.824 559.768 660.832 559.434 663.043 559.386C666.121 559.322 668.842 558.137 671.223 556.236C674.657 553.5 676.39 553.985 677.395 558.129C677.759 559.64 678.707 560.325 679.97 561.056C682.724 562.647 686.069 562.925 688.587 565.001C689.462 565.725 690.159 565.057 690.831 564.516C693.706 562.202 695.496 559.306 695.245 555.576C695.067 552.896 696.395 552.021 698.808 551.902C702.291 551.734 705.741 553.134 709.248 552.092C709.637 551.973 710.203 552.236 710.503 552.021C714.958 548.847 719.687 551.035 724.279 551.392C726.58 551.575 728.216 551.106 729.43 549.181C729.932 548.386 730.589 547.678 731.172 546.938C733.221 544.322 735.586 544.473 737.027 547.519C737.772 549.094 738.704 549.46 740.348 549.762C743.442 550.327 746.722 550.915 748.366 554.192C748.706 554.868 749.346 555.33 750.107 555.473C754.626 556.316 759.162 557.223 763.503 554.773C765.527 553.627 767.836 553.492 770.03 553.532C771.934 553.572 773.068 552.999 774.404 551.695C776.647 549.507 778.518 546.907 781.531 545.483C783.523 544.544 785.661 544.505 787.694 543.94C788.553 543.574 789.039 542.787 789.703 542.198C792.87 540.631 794.967 538.372 795.016 534.65C795.032 533.616 795.445 532.582 796.077 531.723C797.283 530.061 798.96 529.257 801.041 529.488C803.115 529.719 804.07 531.126 804.791 532.9C805.358 534.308 804.678 535.795 805.31 537.617C808.946 534.761 810.331 529.965 814.826 528.47C815.725 528.661 816.373 529.043 816.162 530.092Z" fill="#102F06"/>
<path d="M529.2 38.2672C529.208 36.4935 529.273 34.7119 529.192 32.9462C529.119 31.4032 529.872 30.1942 531.297 30.4726C534.019 30.9975 536.691 29.7329 539.421 30.6953C541.437 31.4111 543.405 32.0315 545.106 33.3996C546.896 34.8392 549.139 34.187 549.391 31.9122C549.812 28.166 552.476 27.7763 555.335 26.9889C558.745 26.0503 561.831 27.482 565.07 27.657C565.281 27.6649 565.556 27.6968 565.678 27.824C568.925 31.5225 572.991 29.4863 576.668 29.1125C581.697 28.5955 584.5 29.6374 587.205 34.0677C587.731 34.9267 588.395 35.2846 589.318 34.8869C591.87 33.7734 594.639 33.5268 597.296 32.8507C601.475 31.7929 603.759 28.7307 605.354 25.1197C605.897 23.8949 606.197 22.5507 606.78 21.3099C607.533 19.7112 607.541 18.0887 606.974 16.4264C605.913 13.3085 606.893 10.7235 609.922 9.5623C611.971 8.77489 614.174 8.17836 616.401 9.37937C617.973 10.2304 619.851 10.652 621.236 11.7098C623.52 13.4517 626.225 13.2846 628.76 13.7698C630.72 14.1436 632.769 13.8573 634.77 14.3027C636.082 14.589 637.313 13.9528 638.633 13.4199C642.998 11.678 646.116 8.40902 649.591 5.5775C651.267 4.20946 653.187 3.35046 655.203 2.66644C655.689 2.49942 656.313 2.3642 656.775 2.51532C660.476 3.73224 664.299 3.08798 668.065 3.31864C670.907 3.49362 672.179 4.55147 672.819 7.39889C672.908 7.80453 672.883 8.28176 673.11 8.59195C673.661 9.3396 674.374 9.83273 675.151 8.84647C675.467 8.44084 675.678 7.9477 675.888 7.47047C677.071 4.79803 678.771 2.91301 682.068 2.86529C683.169 2.84938 684.327 2.45965 685.153 1.44953C686.303 0.0337688 687.478 0.510988 688.717 1.52111C690.434 2.92096 691.543 4.69463 692.005 6.7626C692.329 8.21812 693.066 9.48276 693.455 10.8906C694.168 13.4994 696.03 15.1219 698.395 16.2116C700.047 16.9752 701.4 18.2716 703.57 18.1603C705.304 18.0728 705.992 19.4965 706.211 21.3974C706.47 23.6801 706.057 25.7163 704.712 27.6252C703.522 29.3034 704.38 32.9462 706.275 33.6859C707.458 34.1552 707.911 34.8869 708.284 35.8811C708.94 37.615 710.09 39.1023 711.686 39.9295C714.698 41.4885 717.104 43.9223 720.214 45.3062C721.113 45.7039 721.858 46.3164 722.4 47.0958C723.85 49.1558 725.243 51.2477 726.652 53.3395C726.823 53.594 727.049 53.8644 727.106 54.1508C727.551 56.4891 726.199 58.1594 724.822 59.7661C723.575 61.2136 722.676 63.0828 719.987 62.534C717.946 62.1204 715.751 62.4067 713.621 62.4226C712.374 62.4306 711.564 62.8442 710.94 64.1486C709.637 66.8846 709.645 67.5607 712.155 69.2389C715.201 71.283 716.537 74.3134 716.869 77.7176C717.063 79.6424 716.877 81.6228 716.513 83.6033C716.172 85.4406 716.342 87.4847 717.711 89.1152C718.594 90.1651 719.542 91.1673 720.351 92.2649C721.688 94.1022 721.696 95.3191 720.198 97.0371C719.331 98.0313 718.869 99.1767 718.4 100.33C718.14 100.966 718.383 101.523 719.056 101.905C719.631 102.231 720.052 102.032 720.473 101.682C721.663 100.672 722.732 99.6857 724.466 99.3039C726.596 98.8347 728.467 98.262 730.281 100.012C730.783 100.505 731.682 100.402 732.443 100.298C736.169 99.7891 738.777 101.746 740.818 104.37C741.684 105.484 742.445 106.128 743.814 106.263C744.867 106.367 745.92 106.597 746.948 106.86C748.43 107.234 749.694 107.552 750.658 105.754C751.314 104.537 752.869 103.909 754.237 103.989C757.736 104.195 761.13 103.599 764.556 103.122C766.353 102.867 767.925 103.742 768.605 105.524C769.196 107.075 769.787 108.634 769.925 110.352C770.225 113.907 771.44 115.108 775.036 115.561C776.404 115.736 777.805 115.633 779.19 115.72C781.142 115.856 782.041 117.025 781.62 118.862C781.507 119.363 781.288 119.888 780.972 120.286C778.316 123.65 779.952 126.545 781.952 129.425C782.309 129.942 782.778 130.49 782.843 131.063C783.183 134.054 785.321 136.002 787.006 138.198C787.532 138.89 787.953 139.542 788.099 140.409C788.31 141.649 788.78 142.747 789.598 143.805C791.274 145.976 790.974 150.589 788.95 152.53C787.589 153.827 787.387 154.781 788.164 156.547C789.152 158.798 789.8 161.263 790.351 163.641C790.764 165.431 791.679 166.171 793.096 166.624C794.627 167.117 796.142 167.555 797.437 168.533C798.911 169.646 799.592 170.927 799.146 172.86C798.442 175.93 798.733 176.161 802.127 175.97C803.609 175.89 806.119 174.435 806.937 173.09C807.342 172.422 807.942 172.025 808.533 171.579C810.833 169.837 813.57 168.756 816.219 167.897C818.503 167.149 821.216 167.658 823.743 167.69C827.387 167.738 830.424 169.575 833.559 171.07C834.741 171.635 835.883 172.597 835.81 173.918C835.64 177.147 837.997 178.149 840.265 179.302C841.018 179.684 841.82 179.986 842.694 180.368C843.358 179.605 843.982 178.769 844.727 178.046C847.133 175.723 850.526 176.272 852.105 179.207C852.405 179.764 852.875 180.304 852.948 180.885C853.231 183.359 855.418 183.788 857.102 184.711C858.05 185.228 858.868 184.87 858.876 183.756C858.908 179.779 861.654 178.3 864.861 177.051C866.011 176.606 866.991 175.683 867.979 174.904C869.559 173.663 871.033 172.263 873.308 172.438C873.657 172.462 874.159 172.176 874.377 171.881C876.524 168.994 879.472 169.495 882.169 170.458C884.412 171.261 886.145 171.659 887.741 169.495C888.405 168.589 889.49 168.477 890.64 168.573C893.029 168.772 893.507 168.406 894.439 166.306C895.589 163.713 897.265 161.629 900.318 161.152C903.072 160.722 904.708 161.605 905.793 164.174C907.413 167.984 909.98 170.498 914.265 171.428C917.877 172.208 919.189 175.222 917.423 178.316C916.549 179.851 916.856 181.052 917.982 181.911C920.793 184.043 922.177 187.455 925.182 189.388C925.595 189.65 925.992 190.199 926.057 190.668C926.357 192.665 927.612 192.959 929.434 193.102C932.423 193.333 935.192 194.215 936.982 196.983C938.003 198.558 939.388 199.886 940.287 201.581C941.113 203.124 945.381 204.301 946.863 203.585C948.758 202.67 950.078 199.218 949.179 197.174C948.791 196.283 948.58 195.361 948.483 194.454C948.337 192.999 948.54 191.615 949.957 190.597C953.367 188.155 959.336 188.807 962.024 191.996C962.769 192.879 963.596 193.706 964.308 194.621C966.341 197.222 968.706 198.137 972.108 197.087C974.74 196.268 977.631 196.657 980.36 197.047C982.466 197.341 983.495 199.226 984.313 200.873C984.92 202.106 985.568 202.575 986.896 202.623C990.273 202.758 992.776 204.826 995.368 206.599C998.324 208.62 998.291 208.683 1000.98 206.599C1001.48 206.21 1001.94 205.724 1002.59 205.629C1004.21 205.398 1004.85 204.197 1005.45 202.949C1005.54 202.758 1005.58 202.551 1005.66 202.36C1006.24 200.976 1007.04 199.362 1008.63 199.457C1010.37 199.56 1012.25 200.348 1013.08 202.121C1014 204.086 1015.32 205.876 1015.54 208.182C1015.76 210.473 1016.68 210.926 1018.98 210.799C1019.96 210.743 1020.81 210.33 1021.73 210.115C1023.76 209.646 1025.84 208.651 1027.88 210.115C1028.4 210.489 1028.84 210.218 1029.35 210.043C1033.36 208.683 1037.88 211.499 1038.36 215.643C1038.49 216.796 1038.68 217.894 1039.51 218.824C1040.24 219.651 1040.95 220.224 1042.21 220.065C1044.9 219.739 1047.26 220.097 1048.59 222.952C1049.21 224.257 1050.54 224.312 1051.91 223.756C1054.52 222.698 1057.24 222.014 1059.03 219.445C1060.01 218.037 1061.63 217.011 1063.33 216.271C1065.96 215.134 1068.34 215.587 1070.49 217.289C1072.73 219.055 1072.7 221.966 1070.52 223.795C1069.62 224.543 1068.6 225.036 1067.46 225.426C1065.2 226.213 1064.96 227.335 1065.46 229.609C1066.23 233.077 1068.65 235.455 1070.59 238.184C1072.94 241.484 1074.62 244.833 1073.62 249.215C1072.82 252.755 1070.5 255.284 1068.81 258.235C1068.23 259.237 1067.54 260.176 1066.83 261.09C1065.89 262.299 1065.35 263.484 1065.67 265.131C1066.05 266.992 1065.16 268.288 1063.19 268.925C1062 269.314 1060.77 269.704 1059.71 270.468C1058.56 271.311 1057.28 271.494 1055.8 271.16C1053.7 270.69 1051.54 272.114 1050.89 274.118C1050.42 275.59 1051.48 277.841 1053.08 278.787C1055.14 279.996 1055.44 280.505 1055.98 284.084C1056.99 281.778 1058.56 281.46 1060.5 282.104C1061.21 282.335 1061.97 282.239 1062.71 282.048C1063.22 281.913 1063.76 281.857 1064.28 281.794C1065.86 281.619 1067.05 282.836 1068.41 283.042C1069.64 283.233 1070.89 281.977 1072.35 282.144C1074.16 282.358 1075.32 284.124 1074.34 285.524C1072.84 287.656 1071.13 289.652 1068.94 291.195C1067.17 292.452 1065.38 292.277 1063.51 291.418C1061.15 290.328 1058.88 291.418 1057.54 293.589C1055.57 296.794 1055.49 300.763 1053.09 303.754C1051.99 304.295 1051.49 303.706 1051.19 302.768C1051.81 298.584 1053.36 294.695 1055.64 291.147C1057.48 288.284 1060.43 287.115 1063.69 288.173C1066.41 289.063 1068.22 288.26 1070.21 285.786C1068.76 286.637 1067.72 286.717 1066.68 286.128C1063.76 284.474 1060.87 284.585 1057.9 286.136C1055.31 287.481 1053.7 286.757 1052.92 283.933C1052.53 282.525 1051.8 281.515 1050.69 280.624C1048.22 278.636 1047.18 275.94 1048.25 273.061C1049.33 270.157 1051.66 268.28 1055.1 268.304C1057.07 268.32 1058.86 267.628 1060.61 266.857C1061.41 266.507 1062.27 266.021 1062.32 265.131C1062.56 260.382 1066 257.209 1068.31 253.534C1071.72 248.102 1071.61 244.706 1067.64 239.528C1064.73 235.726 1061.57 231.916 1062.11 226.635C1063.16 224.758 1064.67 223.39 1066.67 222.523C1067.81 222.03 1069.4 221.521 1068.6 219.946C1067.88 218.522 1066.23 218.164 1064.73 218.808C1062.88 219.604 1061.33 220.868 1060.05 222.427C1059.12 223.565 1058.18 224.686 1056.69 225.155C1055.66 225.426 1054.6 225.648 1053.65 226.11C1050.62 227.589 1048.08 227.08 1046.03 224.432C1045.11 223.254 1043.88 222.865 1042.41 222.753C1038.49 222.475 1036.75 221.004 1035.7 217.305C1034.55 213.249 1033.62 213.129 1029.42 212.915C1025.54 212.708 1021.85 213.105 1018.08 213.694C1015.56 214.092 1013.4 212.135 1012.72 209.272C1012.29 207.514 1011.78 205.844 1010.72 204.364C1009.79 203.076 1008.79 202.973 1008.06 204.412C1006.41 207.681 1002.82 208.564 1000.24 210.68C998.85 211.817 997.158 211.228 995.765 210.322C992.404 208.134 989.294 205.549 984.92 205.398C983.632 205.359 982.709 204.142 982.142 202.988C980.782 200.228 978.392 199.497 975.533 199.505C974.027 199.513 972.545 199.711 971.103 200.077C967.281 201.04 964.47 199.552 962.154 196.737C961.215 195.599 960.332 194.406 959.279 193.372C957.74 191.853 954.128 191.646 952.443 192.919C951.099 193.937 951.722 195.218 952.095 196.371C952.889 198.837 952.686 201.056 951.066 203.195C948.321 206.814 946.523 207.323 941.672 205.621C940.667 205.136 939.55 204.858 938.635 204.173C937.242 202.344 936.253 200.228 934.48 198.654C932.949 197.294 931.337 196.18 929.183 196.021C926.454 195.822 924.664 194.605 923.125 192.163C921.303 189.276 918.76 186.787 916.314 184.321C914.354 182.341 913.358 180.233 914.492 177.537C915.22 175.787 914.565 174.673 912.856 174.132C908.482 172.74 905.154 170.323 903.347 165.964C902.529 163.975 900.254 163.824 898.553 165.304C897.735 166.02 897.33 166.998 896.844 167.928C895.702 170.132 893.969 171.531 891.369 171.691C890.624 171.738 889.765 171.675 889.239 172.208C886.712 174.761 883.91 174.26 880.978 173.106C879.974 172.709 878.824 172.51 877.876 173.106C873.43 175.922 868.303 177.545 864.043 180.694C862.958 181.49 862.35 182.5 861.913 183.725C860.269 188.377 859.467 188.712 855.013 186.755C853.766 186.071 852.389 185.57 851.457 184.409C851.117 184.003 850.874 183.534 850.647 183.064C848.736 179.199 848.25 179.111 845.31 182.293C844.419 183.255 843.423 183.725 842.192 183.263C838.151 181.776 834.239 180.161 832.724 175.572C831.493 171.834 827.865 171.253 824.731 170.768C820.762 170.156 816.697 170.179 812.923 172.303C811.197 173.273 809.553 174.172 808.833 176.049C807.691 179.024 805.544 179.636 802.677 178.841C802.216 178.833 801.762 178.889 801.309 178.913C801.001 178.928 800.693 178.897 800.385 178.849C799.462 178.658 798.514 178.571 797.705 178.022C796.133 176.86 796.052 175.166 796.085 173.472C796.125 171.5 795.243 170.315 793.283 169.861C789.922 169.09 788.107 166.863 787.046 163.745C786.172 161.152 785.702 158.472 784.86 155.871C784.317 154.184 784.884 152.482 786.05 151.17C787.597 149.428 787.67 147.527 786.844 145.602C785.726 143.017 784.957 140.265 783.054 138.038C779.79 134.213 778.939 129.146 776.178 125.034C775.23 123.626 776.194 122.226 777.068 120.986C778.097 119.538 778.219 118.647 775.951 118.345C768.88 117.407 767.99 116.508 766.661 109.779C766.013 106.494 765.657 106.065 762.191 106.446C758.279 106.876 753.97 106.168 750.876 109.58C750.528 109.962 749.88 110.113 749.378 110.01C745.345 109.182 740.647 110.081 737.926 105.786C737.537 105.166 736.865 104.633 736.169 104.466C731.382 103.313 726.563 100.378 721.769 104.482C721.372 104.824 720.813 104.935 720.279 105.023C719.785 105.086 719.29 105.07 718.805 104.975C715.33 103.416 714.366 101.221 716.472 97.6893C718.084 94.993 717.752 93.2671 715.646 91.1355C713.362 88.8209 712.787 85.8781 713.629 82.6648C714.82 78.1073 713.718 74.202 709.936 71.124C707.709 69.3105 706.559 67.0596 707.539 64.1804C708.681 60.8398 710.495 59.615 714.261 59.5275C715.856 59.4877 717.468 59.6149 719.056 59.4797C723.073 59.1457 724.425 56.004 722.652 52.568C720.125 47.6844 715.014 46.1096 711.143 42.9599C707.215 39.7625 703.489 36.3742 701.546 31.5225C700.784 29.6136 700.849 27.991 701.983 26.1855C704.048 22.8927 703.635 21.9065 699.966 20.4271C694.475 18.2159 690.904 14.3663 689.349 8.71125C688.911 7.12846 688.693 4.66283 686.781 4.84576C684.19 5.10028 681.169 5.12413 679.274 7.58183C679.079 7.82839 678.966 8.13064 678.82 8.40902C677.791 10.3179 676.504 12.2427 674.131 12.195C671.677 12.1473 670.656 10.0872 669.903 8.04314C669.595 7.208 669.109 6.5558 668.105 6.50012C667.619 6.47626 667.141 6.46831 666.663 6.4524C663.319 5.72861 659.893 6.46832 656.515 5.83997C654.483 5.4582 652.92 6.81827 651.454 8.09086C647.947 11.1451 644.359 14.088 640.066 16.0684C639.095 16.5138 638.155 17.1024 637.07 17.0626C630.915 16.832 624.67 17.0786 619.05 13.8732C618.224 13.4039 617.349 12.9983 616.474 12.6165C612.076 10.6758 609.663 12.3143 610.06 16.9672C610.821 26.0106 604.407 34.4097 595.409 36.1038C593.821 36.406 592.364 37.0583 590.825 37.4798C587.844 38.299 585.957 37.6707 584.232 35.1335C582.515 32.6042 580.329 31.4588 577.178 32.0474C575.202 32.4212 573.153 32.3974 571.144 32.7235C569.411 33.0019 567.71 32.7633 566.228 31.785C563.815 30.1863 561.053 29.9397 558.283 29.7647C555.278 29.5738 553.051 30.2022 551.893 33.5666C550.638 37.2332 546.653 38.0922 543.195 35.7459C540.627 34.004 538.011 33.0257 534.829 33.3916C532.861 33.6143 531.929 34.3142 532.01 36.3186C532.059 37.5434 532.164 38.8637 531.119 39.8659C530.05 40.1841 528.949 40.5738 528.592 38.9592L528.617 38.9433C528.884 38.7842 529.07 38.5456 529.2 38.2672Z" fill="#0F2E06"/>
<path d="M1053.06 310.499C1055.41 309.982 1057.77 310.522 1060.01 310.857C1062.61 311.246 1064.99 312.646 1065.52 315.716C1065.73 316.949 1066.27 318.15 1066.35 319.383C1066.49 321.96 1068.27 323.869 1069.11 326.152C1069.57 327.408 1071.26 328.124 1071.54 329.707C1071.79 331.17 1070.36 332.149 1070.42 333.509C1070.98 334.272 1071.83 333.97 1072.52 334.161C1075.58 335.02 1076.81 337.342 1075.16 339.983C1074.24 341.454 1073.57 343.109 1072.21 344.389C1070.68 345.829 1070.15 347.786 1070.65 349.885C1071.58 353.791 1071.31 357.569 1069.43 361.172C1067.75 364.409 1068.36 367.908 1068.27 371.305C1068.24 372.76 1068.25 374.248 1068.07 375.671C1067.58 379.64 1064.13 381.724 1060.23 380.412C1057.06 379.346 1053.91 379.585 1050.93 380.746C1048.83 381.565 1047.1 381.764 1045.33 380.261C1044.45 379.513 1043.36 379.274 1042.36 379.831C1038.07 382.209 1033.29 382.162 1028.62 382.599C1026.1 382.838 1023.67 384.134 1021.11 383.514C1019.32 383.076 1017.52 383.148 1015.74 382.933C1013.77 382.686 1012.21 383.203 1010.98 384.754C1009.94 386.067 1008.69 387.236 1007.76 388.62C1006.82 390.004 1007.06 391.603 1007.48 393.169C1008.02 395.15 1007.93 397.107 1006.81 398.92C1006.36 399.66 1005.66 400.566 1004.84 400.193C1002.98 399.357 1002.7 400.924 1001.95 401.759C1001.62 402.133 1001.54 402.714 1001.3 403.183C999.83 406.19 997.36 407.454 994.104 406.508C993.084 406.214 992.371 406.277 991.432 406.548C989.788 407.017 988.071 406.898 986.354 406.77C983.503 406.556 982.499 407.542 982.709 410.341C982.855 412.25 982.806 414.088 981.826 415.822C980.822 417.603 981.365 419.377 981.713 421.262C982.045 423.044 979.923 424.714 980.895 426.67C982.175 429.224 981.365 431.482 980.174 433.741C979.883 434.298 979.591 434.855 979.307 435.412C979.097 435.825 979.137 436.215 979.47 436.557C979.818 436.923 980.207 436.907 980.587 436.628C981.211 436.175 981.923 436 982.677 435.921C983.973 435.785 984.709 436.255 984.75 437.623C984.774 438.561 984.912 439.5 984.977 440.438C985.155 442.896 985.066 443.095 982.596 444.025C981.591 444.407 981.195 444.956 980.968 446.046C980.514 448.249 980.506 450.372 980.992 452.568C981.794 456.163 979.348 459.082 975.631 458.684C972.448 458.342 969.548 458.605 966.803 460.299C966.195 460.673 965.41 460.919 964.697 460.967C959.336 461.349 954.055 462.868 948.588 461.953C945.916 461.508 943.405 462.796 940.789 463.162C939.372 463.361 938.278 464.594 937.663 466.057C936.796 468.117 935.403 469.787 933.67 471.267C931.726 472.913 930.139 474.91 929.24 477.32C928.721 478.712 927.96 479.968 927.077 481.145C925.628 483.086 924.162 483.022 922.866 481.034C922.639 480.684 922.477 480.294 922.267 479.928C921.521 478.64 920.371 478.195 919.035 478.799C918.023 479.252 916.986 479.292 915.941 479.467C914.573 479.698 913.414 480.215 912.289 481.161C910.79 482.434 909.478 483.762 907 484.017C904.554 484.271 902.189 486.22 900.578 488.336C899.403 489.879 897.832 491.207 897.346 493.251C897.136 494.158 896.415 495.168 895.427 495.16C893.005 495.144 890.551 496.806 888.138 495.009C887.255 494.349 886.259 494.683 885.505 495.359C884.615 496.162 883.675 496.074 882.557 496.003C879.464 495.812 876.645 495.971 874.507 499.025C872.984 501.197 870.62 502.748 869.502 505.38C869.024 506.518 867.639 507.353 866.521 508.14C865.08 509.158 863.509 509.111 862.164 507.902C861.2 507.035 860.261 506.605 859.014 506.86C856.867 507.297 854.891 505.857 852.745 506.311C850.971 505.81 851.514 505.022 852.599 504.426C853.903 503.702 855.369 503.646 856.835 503.988C859.135 504.195 861.468 504.004 863.63 505.245C865.08 506.072 866.092 504.871 866.692 503.774C868.481 500.481 871.575 498.294 873.859 495.422C875.681 493.132 878.621 493.283 881.205 492.988C884.704 492.591 888.162 491.167 891.79 492.67C893.013 493.179 894.123 492.384 894.868 491.087C897.103 487.19 900.27 484.16 904.303 482.052C904.935 481.67 905.502 481.185 906.158 480.843C906.433 480.732 906.717 480.676 907.016 480.652C907.462 480.62 907.891 480.541 908.312 480.382C911.001 478.012 914.224 476.763 917.642 475.793C920.015 475.116 922.121 475.244 923.781 477.105C925.061 478.529 925.709 477.924 926.259 476.612C928.511 471.275 933.16 467.64 936.432 463.003C939.404 458.795 944.895 458.97 949.641 459.145C955.893 459.376 961.96 459.034 967.758 456.568C969.37 455.884 971.022 455.693 972.747 455.67C978.036 455.582 978.368 455.208 977.72 449.935C977.566 448.678 977.655 447.446 977.712 446.189C977.834 443.54 980.061 442.387 981.543 440.748C981.024 439.691 980.15 440.247 979.494 440.064C976.902 439.349 975.307 437.074 976.586 434.807C979.154 430.234 977.72 425.374 978.19 420.673C978.376 418.82 978.198 416.919 978.87 415.13C979.542 413.332 979.777 411.495 979.858 409.594C980.012 405.856 982.555 403.406 986.281 403.867C989.723 404.289 992.922 402.451 996.38 403.263C997.627 403.557 998.332 402.221 998.939 401.211C1000.02 399.397 1001.1 397.584 1003.16 396.629C1004.62 395.953 1004.66 394.728 1004.39 393.416C1003.26 387.928 1006.71 384.516 1010.32 381.358C1012.58 379.386 1015.64 380.404 1018.36 380.181C1018.85 380.189 1019.36 380.189 1019.85 380.189C1027.2 379.982 1034.56 379.815 1041.53 377.031C1042.77 376.538 1044.11 376.411 1045.26 377.071C1047.51 378.368 1049.72 378.057 1052.04 377.334C1054.63 376.522 1057.23 376.522 1059.91 377.254C1063.51 378.24 1064.93 377.23 1065.02 373.5C1065.08 370.684 1065.74 367.893 1065.32 365.045C1065.03 363.081 1066.11 361.386 1066.86 359.66C1067.92 357.187 1068.61 354.626 1067.99 352.001C1067.04 347.976 1068.19 344.612 1070.57 341.391C1072.72 338.464 1072.65 338.376 1069.42 336.714C1068.12 336.038 1067.37 334.917 1067.68 333.644C1068.68 329.572 1065.91 326.724 1064.44 323.487C1063.82 322.135 1063.2 320.87 1063.03 319.375C1062.55 315.04 1061.81 314.348 1057.4 313.672C1056.76 313.577 1056.15 313.378 1055.56 313.139C1054.49 312.487 1052.75 312.423 1053.06 310.499Z" fill="#102F07"/>
<path d="M680.893 591.583C681.922 592.179 681.306 592.927 681.096 593.643C680.326 596.037 678.399 595.687 676.682 595.217C675.111 594.796 673.831 594.788 672.527 595.878C666.064 601.31 659.391 606.488 652.409 611.268C650.044 612.891 648.368 615.229 645.954 616.867C642.472 619.222 638.382 620.55 635.223 623.477C633.417 625.147 631.635 626.531 632.34 629.219C633.061 631.995 635.434 633.618 638.568 633.658C639.872 633.674 641.144 633.53 642.269 632.854C644.132 631.749 646.278 631.518 648.287 630.874C655.252 628.639 660.557 631.518 665.36 635.909C669.239 639.464 673.151 642.979 677.152 646.407C678.042 647.171 678.958 647.457 680.083 647.203C682.165 646.734 684.287 646.344 686.028 645.023C687.632 643.807 689.284 643.544 691.074 644.546C692.321 645.453 693.325 646.726 694.994 646.988C699.707 651.888 703.927 657.034 704.129 664.24C704.162 665.409 704.607 666.467 705.093 667.525C707.191 672.13 706.243 675.478 702.064 678.413C701.805 678.596 701.538 678.763 701.27 678.938C696.427 681.984 696.136 683.503 699.529 688.387C700.193 689.349 700.736 690.352 701.092 691.457C702.015 694.392 701.189 696.007 698.201 697.017C696.5 697.59 694.629 697.629 693.026 698.544C691.811 699.236 691.122 699.96 692.604 701.097C694.038 702.203 695.22 703.547 696.233 705.034C697.188 706.45 698.638 706.633 700.169 706.585C703.093 706.49 705.587 707.46 707.636 709.512C708.697 710.538 708.454 712.129 709.329 713.234C712.042 715.493 715.573 714.73 718.634 715.668C719.558 715.923 720.376 716.48 721.372 716.503C725.008 716.153 728.653 716.01 732.281 715.613C732.783 715.525 733.294 715.509 733.796 715.565C734.136 715.613 734.452 715.74 734.743 715.915C735.043 716.177 735.067 716.456 734.816 716.766C733.788 718.571 732.565 719.613 730.175 718.889C728.11 718.269 725.948 718.993 723.85 719.343C722.158 719.629 720.489 719.9 718.991 718.643C718.132 717.919 716.958 718.102 715.913 717.991C714.431 717.832 712.917 717.879 711.459 717.601C708.9 717.108 706.948 715.732 706.073 713.211C705.255 710.856 703.489 709.043 701.149 709.417C697.035 710.069 694.475 708.478 692.556 705.161C692.037 704.271 691.219 703.563 690.272 703.006C687.413 701.328 687.405 698.576 690.215 696.715C692.191 695.402 694.41 694.726 696.727 694.297C698.436 693.979 698.833 693.39 698.225 691.799C697.772 690.614 696.921 689.652 696.022 688.761C694.038 686.812 694.783 684.028 693.754 681.778C693.495 681.205 694.159 680.648 694.653 680.227C696.079 679.01 697.172 677.419 699.181 676.87C700.055 676.631 700.809 675.892 701.554 675.295C703.376 673.824 704.089 671.151 702.615 669.433C701.295 667.882 700.873 666.204 701.092 664.51C701.457 661.694 700.428 659.292 699.067 657.129C697.196 654.146 695.609 650.909 692.645 648.674C691.876 648.094 691.074 647.608 690.223 647.203C689.211 646.718 688.247 646.614 687.308 647.529C684.951 649.827 681.622 649.684 678.723 650.543C677.338 650.957 675.783 650.4 675.062 648.73C674.463 647.338 673.41 646.296 671.895 645.819C671.134 645.58 670.697 644.992 670.195 644.451C667.797 641.826 665.036 639.551 662.46 637.086C660.192 634.914 657.131 633.737 654.086 632.759C653.786 632.663 653.397 632.52 653.154 632.632C650.093 634.047 646.473 633.443 643.5 635.399C640.528 637.356 637.037 637.078 634.057 635.686C630.542 634.039 628.971 630.739 628.987 626.897C628.995 624.423 630.907 623.039 632.615 621.648C633.976 620.534 635.823 619.993 636.657 618.251C636.778 618.005 637.135 617.766 637.418 617.718C640.228 617.265 642.399 615.698 644.675 614.131C646.019 613.201 646.918 612.047 648.028 611.005C650.32 608.858 652.814 606.726 655.616 605.35C658.095 604.133 659.828 602.256 661.869 600.65C665.246 597.985 668.526 595.186 671.993 592.632C673.515 591.511 675.354 590.811 677.305 592.171C678.634 593.11 679.711 591.861 680.893 591.583Z" fill="#102F07"/>
<path d="M893.685 622.594C893.24 624.686 892.179 626.245 889.992 626.921C889.393 627.104 888.858 627.486 888.283 627.772C886.526 628.655 884.687 629.204 883.861 631.439C883.011 633.737 882.873 635.924 883.521 638.144C884.039 639.909 884.793 641.627 885.983 643.131C887.652 645.238 886.899 647.346 884.21 648.03C883.359 648.245 882.533 648.507 881.909 649.032C880.776 649.987 879.577 650.36 878.095 650.225C875.973 650.018 874.556 651.569 873.033 652.572C871.494 653.59 869.866 654.226 868.174 654.815C866.449 655.419 864.845 655.276 863.347 654.154C861.97 653.136 860.334 652.619 858.755 652.031C858.05 652.341 858.001 652.985 857.839 653.59C857.402 655.188 856.187 656.055 854.665 656.342C853.377 656.58 852.243 656.994 851.125 657.646C849.246 658.744 848.339 658.672 846.906 657.153C845.375 655.538 843.326 654.457 841.876 652.961C840.224 651.251 837.665 650.623 836.604 648.356C836.523 648.173 836.353 647.974 836.183 647.903C833.607 646.837 830.999 645.875 828.14 645.938C827.517 645.954 827.298 646.511 826.91 646.845C826.432 647.251 825.938 647.919 825.411 647.95C822.431 648.141 821.84 650.44 821.54 652.524C820.924 656.731 818.511 659.253 815.036 661.583C812.566 663.238 809.691 664.606 807.836 667.119C807.529 667.532 807.124 667.994 806.662 668.169C803.957 669.195 803.52 671.549 803.05 673.903C802.904 674.619 802.831 675.359 802.637 676.059C802.046 678.238 800.863 678.787 798.612 678.119C796.846 677.594 795.348 676.632 793.833 675.669C791.501 674.174 789.776 674.237 787.443 675.86C787.006 676.162 786.512 676.393 786.131 676.751C784.074 678.707 781.928 679.057 779.62 677.18C778.113 675.884 779.198 675.407 780.349 674.953C782.227 675.367 783.807 674.937 785.41 673.792C789.452 670.897 792.027 670.953 796.214 673.689C799.341 675.733 799.584 675.661 800.458 672.018C801.066 669.489 801.884 667.222 804.589 666.069C805.99 665.472 806.549 663.882 807.723 662.967C810.614 661.559 812.955 659.396 815.539 657.566C817.239 656.358 818.138 654.648 818.551 652.58C820.009 645.302 826.091 641.922 833.3 643.751C837.041 644.705 839.665 647.076 842.411 649.271C844.282 650.766 846.306 652.15 847.983 653.932C849.441 655.483 853.207 654.465 854.875 652.269C857.766 648.46 858.293 648.11 862.35 650.48C865.728 652.46 868.49 652.055 871.486 650.034C873.495 648.682 875.6 647.418 878.192 647.354C879.156 647.33 879.966 646.702 880.84 646.32C882.63 645.525 883.019 644.602 882.128 642.669C880.257 638.605 879.196 634.437 881.44 629.991C882.574 627.74 883.894 626.126 886.461 625.712C887.23 625.561 888.048 625.545 888.688 625.004C888.883 624.853 889.093 624.718 889.312 624.583C889.628 624.384 889.944 624.177 890.227 623.93C890.502 623.644 890.754 623.342 891.005 623.039C892.697 621.449 892.989 621.401 893.685 622.594Z" fill="#102F07"/>
<path d="M800.021 555.29C799.413 556.666 798.725 558.209 797.113 559.02C794.392 560.396 791.606 561.629 789.023 563.283C787.8 564.071 786.423 563.586 785.767 562.361C785.143 561.2 784.908 559.959 786.131 558.988C787.03 558.273 787.953 557.517 788.998 557.048C791.679 555.839 794.408 554.733 797.154 553.691C798.652 553.134 800.021 553.89 800.021 555.29Z" fill="#16340D"/>
<path d="M755.987 577.894C755.371 577.6 754.926 577.091 754.869 576.471C754.748 575.222 754.335 574.53 752.958 574.021C751.046 573.305 750.536 571.563 751.306 569.662C751.783 568.477 752.01 567.411 751.711 566.067C751.314 564.293 752.18 563.148 753.962 562.448C756.157 561.589 758.327 561.032 760.749 561.971C762.264 562.56 763.114 563.331 762.968 564.914C762.741 567.34 763.033 569.622 764.394 571.738C764.985 572.653 765.033 573.742 764.847 574.776C764.58 576.248 764.734 577.672 764.985 579.111C765.309 579.787 765.398 580.447 764.823 581.052C764.491 581.092 764.329 581.291 764.264 581.593C764.418 581.76 764.466 581.911 764.402 582.07C764.337 582.221 764.28 582.293 764.224 582.293L764.264 582.253C763.94 582.627 763.559 582.643 763.13 582.444C763.025 579.851 762.928 577.266 762.822 574.673C761.275 572.343 759.55 570.084 760.036 567.03C760.247 565.717 759.801 564.699 758.255 564.707C756.878 564.715 755.242 564.715 754.999 566.465C754.707 568.612 753.743 570.871 756.222 572.709C757.542 573.687 757.955 575.492 757.947 577.21C757.566 578.149 756.878 578.308 755.987 577.894Z" fill="#14330B"/>
<path d="M644.318 570.712C647.032 569.654 649.469 569.24 652.174 569.734C654.758 570.203 657.455 570.084 660.111 570.219C661.083 570.267 662.088 570.298 662.46 571.404C662.719 572.16 662.395 572.804 661.877 573.408C661.148 574.259 660.419 573.822 659.585 573.599C656.41 572.772 653.244 572 649.882 572.462C648.012 572.724 646.416 572.12 644.318 570.712Z" fill="#FAFBF9"/>
</svg>
