<svg width="882" height="540" viewBox="0 0 882 540" fill="none" xmlns="http://www.w3.org/2000/svg">
<path d="M352.098 405.516C352.147 406.041 352.22 406.55 352.73 406.853C352.592 408.364 352.835 409.557 354.212 410.67C356.48 412.492 357.768 415.307 357.031 417.956C356.01 421.639 358.48 423.253 360.497 424.979C362.684 426.848 365.146 427.572 368.369 426.069C370.807 424.923 373.998 425.114 376.752 426.347C377.335 426.61 377.877 426.856 378.517 426.983C382.64 427.779 385.045 430.841 384.77 435.096C384.632 437.26 384.478 439.439 384.34 441.563C384.219 443.471 383.433 445.587 383.279 447.615C383.109 449.858 383.393 452.141 383.595 454.392C383.684 455.402 384.672 455.696 385.499 455.784C388.074 456.046 390.123 457.406 391.913 459.005C393.144 460.103 394.043 459.999 395.258 459.291C396.278 458.695 397.347 458.273 398.595 458.663C400.393 459.228 401.413 460.437 401.51 462.33C401.551 463.165 401.453 464.008 401.47 464.843C401.494 465.821 400.271 466.831 401.397 467.754C402.393 468.565 403.584 469.019 404.928 469.027C407.925 469.059 408.67 469.536 409.431 472.248C409.876 473.855 410.111 475.517 410.379 477.163C410.516 477.991 410.646 478.778 411.035 479.557C412.039 481.578 411.958 481.554 410.071 482.572C406.912 484.274 403.592 485.61 400.231 486.875C400.133 486.915 400.028 486.938 399.931 486.986C397.153 488.267 397.153 488.267 394.812 487.09C394.059 490.581 395.047 493.079 397.809 494.677C403.041 497.708 403.81 498.789 402.717 504.5C401.972 508.398 403.413 511.165 405.965 513.742C405.017 513.711 404.264 514.514 403.292 514.347C403.907 513.663 403.721 513.138 403.138 512.47C401.219 510.275 400.563 507.769 401.405 504.914C401.64 504.118 401.64 503.259 401.769 502.432C402.101 500.261 401.372 498.519 399.534 497.286C398.303 496.459 397.015 495.719 395.744 494.964C394.586 494.28 393.727 493.437 393.792 491.981C393.865 490.406 392.771 489.006 393.071 487.368C393.346 485.841 394.262 484.99 395.404 485.769C397.299 487.05 398.854 486.286 400.36 485.475C403.065 484.019 406.191 483.518 408.751 481.753C409.609 481.164 410.03 480.727 409.642 479.518C408.953 477.338 408.629 475.056 408.159 472.813C407.819 471.19 407.042 470.212 405.122 470.299C404.094 470.347 403.008 470.029 402.02 469.679C399.688 468.86 399.348 468.176 399.963 465.662C400.247 464.517 400.295 463.372 400.166 462.234C399.971 460.476 398.173 459.26 396.74 460.222C393.913 462.107 391.84 461.081 389.783 459.188C388.487 457.995 386.916 457.502 385.231 457.12C382.591 456.516 382.218 456.046 382.186 453.525C382.154 450.55 381.182 447.504 382.275 444.609C383.369 441.706 382.607 438.683 383.312 435.74C384.227 431.907 382.097 429.25 378.072 428.312C376.047 427.834 374.265 426.586 371.973 426.896C370.41 427.111 368.912 427.095 367.373 427.811C365.559 428.654 363.51 428.908 361.736 427.262C360.61 426.212 359.039 425.894 357.962 424.534C356.326 422.474 355.03 420.787 355.735 417.821C356.237 415.681 355.411 413.088 353.313 411.68C350.665 409.891 350.681 407.902 352.098 405.516Z" fill="#366C23"/>
<path d="M801.647 199.881C800.068 200.247 800.408 201.226 800.789 202.299C801.769 205.083 802.263 207.923 801.761 210.873C801.615 211.709 801.437 212.52 800.991 213.244C800.481 214.095 800.206 214.938 800.692 215.908C801.097 216.711 800.797 217.515 800.643 218.35C800.214 220.617 800.578 221.221 802.7 222.239C805.292 223.48 805.438 224.602 803.348 226.598C802.587 227.322 801.898 228.117 801.234 228.92C799.396 231.139 799.461 231.497 801.842 233.367C804.077 235.124 804.053 236.047 801.672 237.598C801.242 237.876 800.4 237.98 800.489 238.481C801.04 241.463 797.671 243.857 799.412 247.182C800.028 248.359 799.59 250.459 799.315 252.002C798.934 254.11 799.307 255.939 800.084 257.776C801.056 260.067 800.894 262.008 798.683 263.551C797.63 264.283 797.525 265.197 798.91 265.547C800.643 265.985 801.064 267.297 801.68 268.625C802.53 270.471 802.66 270.463 804.49 269.588C807.211 268.291 808.264 268.49 810.2 270.797C810.686 271.369 811.245 271.807 811.828 272.268C813.804 273.803 813.828 274.121 812.508 276.706C811.941 276.873 811.642 276.539 811.39 276.126C811.01 274.654 810.078 273.557 809.001 272.499C807.803 271.322 806.58 270.82 805.008 271.656C802.919 272.769 801.259 272.236 800.182 270.248C798.675 267.456 796.262 266.358 793.184 266.032C789.321 265.619 785.441 264.243 781.716 266.661C781.845 268.228 784.437 268.617 783.652 270.59C783.02 270.94 782.429 270.924 781.878 270.431C781.513 269.429 780.444 269.254 779.732 268.649C777.853 267.066 778.193 265.189 780.55 264.394C784.51 263.066 788.543 262.859 792.625 263.797C794.755 264.29 797.638 263.233 798.74 261.562C799.453 260.481 799.38 259.2 798.821 258.254C797.08 255.303 798.238 252.137 797.954 249.099C797.865 248.113 798.116 247.103 797.59 246.14C796.95 244.979 797.671 243.873 797.922 242.808C798.278 241.312 799.185 240.016 799.064 238.322C798.942 236.604 801.178 236.818 801.866 235.657C801.826 234.623 800.902 234.377 800.279 233.86C798.197 232.158 797.954 230.861 799.566 228.769C800.522 227.528 801.72 226.479 802.822 225.357C803.535 224.633 803.429 223.957 802.506 223.687C799.21 222.709 799.266 220.41 799.234 217.547C799.202 215.089 799.582 212.918 800.457 210.722C801.34 208.503 800.546 206.348 799.947 204.296C799.42 202.466 799.072 200.661 798.959 198.792C799.809 199.269 800.894 199.174 801.647 199.881Z" fill="#366C23"/>
<path d="M648.447 539.465C647.403 537.993 646.714 536.442 646.496 534.581C646.155 531.71 644.609 529.109 644.584 526.079C644.568 523.899 642.641 523.025 640.519 523.939C639.571 524.345 638.931 524.13 638.137 523.772C636.226 522.929 634.712 521.609 633.594 519.931C632.922 518.92 632.201 518.157 631.035 517.727C627.844 516.55 626.75 513.902 626.24 510.895C626.119 510.179 626.2 509.432 625.787 508.772C625.033 507.555 624.175 506.839 622.49 506.823C619.315 506.799 618.538 505.105 620.101 502.345C620.927 500.881 622.069 499.688 623.09 498.408C624.588 496.523 625.244 493.97 626.2 491.679C626.434 491.114 626.394 490.446 626.58 489.85C627.39 487.281 627.309 486.628 624.718 485.515C621.753 484.234 619.502 481.92 616.602 480.6C616.23 480.432 615.703 480.083 615.679 479.788C615.509 477.323 613.428 476.551 611.848 475.239C610.245 473.91 609.613 471.938 609.872 469.862C610.018 468.693 609.775 467.635 608.884 467.054C607.005 465.822 607.264 464.135 607.888 462.6C608.609 460.843 609.305 459.443 607.183 458.083C606.365 457.558 606.3 456.237 606.276 455.164C606.26 454.328 606.309 453.493 605.952 452.69C605.442 451.545 604.924 450.63 603.344 451.386C602.121 451.974 600.72 452.078 599.505 452.849C597.91 453.859 597.043 453.589 596.071 452.038C595.181 450.614 594.282 449.151 594.225 447.409C594.152 444.935 593.293 442.986 590.953 441.738C590.143 441.308 589.471 440.545 589.033 439.67C589.722 439.025 590.378 438.962 590.993 439.765C591.431 440.219 591.795 440.815 592.33 441.093C594.484 442.191 595.172 444.124 595.432 446.247C595.577 447.409 595.764 448.538 596.217 449.588C596.541 450.344 597.003 451.123 597.61 451.664C598.55 452.507 599.044 451.219 599.781 451.012C600.801 450.725 601.838 450.487 602.834 450.145C605.32 449.294 606.203 449.723 607.143 452.181C607.531 453.191 607.564 454.217 607.604 455.267C607.645 456.237 607.799 457.152 608.771 457.701C610.577 458.719 610.52 460.198 609.702 461.749C608.795 463.483 608.439 464.986 610.237 466.506C611.087 467.229 611.289 468.462 611.176 469.695C610.949 472.216 611.864 474.221 614.351 475.247C615.444 475.7 616.116 476.472 616.319 477.537C616.554 478.802 617.364 479.399 618.408 480.067C621.073 481.785 623.689 483.55 626.507 485.054C628.548 486.143 628.621 487.623 628.176 489.818C627.593 492.721 625.851 495.131 625.066 497.915C624.831 498.75 624.531 499.561 623.656 499.895C621.786 500.611 621.567 502.512 620.846 503.912C620.133 505.296 621.664 505.717 622.701 505.534C625.009 505.129 625.932 506.664 626.993 508.111C627.52 508.835 627.463 509.686 627.544 510.521C627.803 513.321 629.002 515.5 631.845 516.51C632.995 516.916 633.861 517.608 634.452 518.69C635.343 520.296 636.704 521.434 638.332 522.309C638.907 522.619 639.32 522.778 640.057 522.555C643.296 521.561 645.767 522.865 645.921 526.071C646.074 529.491 647.937 532.442 648.091 535.814C648.132 536.737 648.626 537.659 649.873 537.675C649.484 538.351 649.33 539.187 648.447 539.465Z" fill="#356B23"/>
<path d="M572.852 434.007C570.414 432.05 569.199 432.026 566.794 434.022C566.041 434.643 565.312 435.279 564.275 435.208C562.21 435.064 560.347 435.104 558.347 436.186C556.759 437.037 555.253 435.351 554.046 434.174C553.754 433.895 553.641 433.442 553.439 433.076C551.26 429.123 550.96 429.02 546.725 430.054C545.931 430.244 545.348 430.571 544.894 431.175C544.457 431.764 544.06 432.384 543.663 432.996C541.962 435.629 541.525 435.693 539.371 433.569C538.731 433.895 538.626 434.524 538.399 435.112C538.075 435.955 537.945 437.116 536.641 436.973C535.645 436.87 535.362 436.003 535.192 435.136C535.111 434.73 535.03 434.309 534.86 433.935C534.584 433.346 534.098 432.774 533.442 432.79C531.709 432.829 530.162 431.78 528.429 432.01C526.169 432.304 524.461 431.676 523.497 429.505C523.302 429.067 523.011 428.566 522.079 428.503C521.666 431 521.278 433.498 522.411 435.955C523.626 438.596 523.173 439.916 520.427 441.149C519.472 441.578 518.37 441.698 517.892 442.843C517.536 443.694 517.139 444.482 518.564 444.617C520.865 444.824 521.456 446.581 521.804 448.323C522.015 449.349 522.015 450.495 522.557 451.338C524.226 453.923 523.756 456.524 522.97 459.188C522.849 459.586 522.582 459.999 522.614 460.381C522.873 463.738 520.767 465.249 517.9 465.607C513.794 466.116 513.106 469.305 512.021 472.192C511.559 473.417 512.587 474.57 514.053 474.944C516.038 475.453 517.714 476.607 519.52 477.474C520.371 477.879 520.589 478.73 520.403 479.637C519.99 481.705 518.2 483.137 515.949 483.216C513.989 483.288 513.705 483.558 513.446 485.578C513.365 486.199 513.3 486.819 513.171 487.432C512.879 488.863 512.344 490.048 510.514 489.961C510.109 489.945 509.696 490.16 509.291 490.271C507.194 490.82 506.756 491.4 506.861 493.5C507.015 496.554 507.007 496.539 504.003 496.801C502.95 496.896 501.873 497.374 500.868 497.231C499.022 496.968 497.191 496.737 495.993 494.781C494.843 492.904 492.591 493.158 491.352 494.98C490.882 495.672 490.477 496.419 489.935 497.056C488.299 498.957 487.181 499.211 484.913 498.225C484.452 498.018 483.998 497.39 483.52 497.732C481.18 499.434 478.134 498.217 475.737 499.609C475.559 499.712 475.324 499.895 475.162 499.855C472.279 499.211 470.489 501.215 468.416 502.52C467.039 503.387 465.5 503.705 463.905 503.959C460.803 504.46 457.798 505.757 454.558 504.938C454 503.928 453.765 502.878 454.04 501.74C454.526 502.949 455.093 503.832 456.753 503.705C461.572 503.347 466.278 502.774 470.262 499.728C471.404 498.861 472.4 497.573 474.198 498.519C474.782 498.821 475.397 498.209 475.948 497.93C476.839 497.477 477.77 497.231 478.726 497.477C479.617 497.708 480.386 497.604 481.172 497.191C482.824 496.316 484.395 495.664 486.169 497.159C486.938 497.811 488.007 497.517 488.655 496.562C489.125 495.863 489.603 495.171 490.048 494.463C491.822 491.647 495.045 491.353 497.046 493.993C498.074 495.346 499.378 495.87 500.86 495.87C502.423 495.87 503.986 495.465 505.598 495.226C505.574 494.844 505.566 494.542 505.533 494.24C505.12 490.708 505.736 489.77 509.064 488.871C511.891 488.108 511.891 488.108 512.15 485.141C512.353 482.85 513.162 482.015 515.471 481.753C515.892 481.705 516.329 481.816 516.75 481.753C518.143 481.562 518.678 480.393 518.961 479.351C519.245 478.309 518.095 478.142 517.301 477.839C516.313 477.466 515.382 476.917 514.369 476.63C513.349 476.344 511.972 477.124 511.47 475.445C510.968 473.767 509.931 472.184 511.219 470.403C511.64 469.822 511.834 469.074 512.11 468.39C512.903 466.426 514.159 465.01 516.426 464.66C517.155 464.549 517.852 464.239 518.564 464.024C520.111 463.555 521.205 462.759 521.205 460.954C521.205 460.246 521.521 459.53 521.723 458.83C522.387 456.484 522.906 454.201 521.334 451.918C520.832 451.187 520.759 450.129 520.622 449.206C520.346 447.417 519.779 446.12 517.609 445.77C515.981 445.508 515.697 444.49 516.345 442.899C516.872 441.594 517.706 440.664 519.156 440.107C522.136 438.962 522.136 438.842 520.954 436.059C520.484 434.953 520.476 433.824 520.443 432.67C520.411 431.541 520.711 430.38 520.087 429.075C518.119 429.743 516.767 428.614 515.406 427.389C514.491 426.562 514.013 425.687 514.102 424.375C514.232 422.513 514.24 420.636 513.616 418.791C513.073 417.2 513.713 415.888 515.195 415.085C515.851 414.727 516.491 414.393 517.05 413.884C519.002 412.094 519.075 411.943 517.439 409.788C516.669 408.769 516.88 407.895 517.261 406.861C517.771 405.493 518.33 404.093 516.775 402.884C516.175 402.422 516.426 401.897 516.953 401.309C518.451 399.631 518.313 399.233 516.37 398.764C513.972 398.191 513.592 397.499 514.596 395.288C514.985 394.429 515.511 393.657 515.511 392.647C515.503 390.794 514.896 389.712 513.43 389.203C511.032 388.376 510.425 388.488 509.024 390.317C508.255 391.319 507.599 392.305 506.432 393.005C504.57 394.135 502.828 394.469 500.722 393.634C498.414 392.719 498.406 392.886 497.102 394.986C495.644 397.324 494.721 399.893 494.065 402.51C493.604 404.355 492.834 405.803 491.32 406.924C490.809 407.298 490.34 407.735 489.91 408.197C486.582 411.792 482.662 411.434 478.604 409.788C475.794 408.65 472.903 408.412 469.93 408.714C468.448 408.865 467.395 409.644 466.602 410.885C465.678 412.317 464.415 413.454 462.973 414.385C461.888 415.093 461.127 415.124 460.017 413.963C457.871 411.72 455.182 410.384 451.821 411.378C448.938 412.229 446.711 410.631 444.491 409.239C443.698 408.746 443.673 407.855 443.973 406.964C444.41 405.683 444.629 404.411 444.483 402.995C444.305 401.253 443.787 400.012 442.046 399.352C441.479 399.138 440.79 398.732 440.555 398.231C439.616 396.219 438.19 394.835 436.044 394.087C435.145 393.769 435.259 392.886 435.542 392.202C435.858 391.43 436.368 390.746 436.765 390.007C438.045 387.605 437.413 385.791 434.789 385.234C432.205 384.686 429.492 384.248 427.184 386.229C426.868 386.499 426.496 386.722 426.115 386.913C424.422 387.764 423.718 387.676 422.811 385.911C421.685 383.707 419.96 383.31 417.773 383.707C416.518 383.93 415.262 384.177 414.007 384.407C410.451 385.052 407.414 383.755 405.722 380.645C404.92 379.182 403.924 378.243 402.336 377.551C400.83 376.891 399.526 375.73 398.182 374.704C395.323 372.509 393.346 372.691 391.451 374.736C389.856 376.469 387.718 377.511 385.669 378.617C384.227 379.388 382.761 379.707 381.311 378.299C379.813 376.851 377.902 376.979 376.282 377.989C374.484 379.118 372.419 379.094 370.524 379.723C369.827 379.953 368.969 380.049 368.345 379.587C364.077 376.438 359.015 376.843 354.131 376.438C353.087 376.35 352.746 377.082 352.876 377.83C353.402 380.86 351.758 382.769 349.596 384.503C348.365 385.489 347.782 387.064 346.332 387.907C345.393 388.456 345.692 389.41 346.186 390.134C348.017 392.775 348.77 395.725 349.102 398.867C349.248 400.259 350.519 401.126 351.378 402.192C352.431 403.496 354.204 404.753 352.73 406.821C351.507 406.845 351.815 406.153 352.099 405.485C352.05 405.349 352.05 405.222 352.099 405.087C351.977 404.793 351.775 404.554 351.548 404.339C351.345 404.101 351.175 403.822 350.94 403.615C348.883 401.842 347.425 399.837 347.409 396.95C347.393 394.508 345.935 392.488 344.753 390.444C343.87 388.933 343.927 387.867 345.506 386.77C347.652 385.282 348.851 382.832 350.932 381.202C351.823 380.502 351.572 379.261 351.434 378.235C351.272 377.074 350.641 376.66 349.418 377.066C347.118 377.838 344.753 378.434 342.477 379.269C341.133 379.762 340.209 379.603 339.011 378.736C336.897 377.201 334.532 376 332.272 374.656C331.762 374.052 330.005 375.141 330.385 373.32C332.102 371.904 333.746 372.779 335.018 373.821C338.589 376.74 342.453 377.169 346.68 375.674C353.556 373.232 360.424 374.402 367.082 376.263C370.119 377.114 372.686 376.907 375.424 375.929C377.068 375.34 378.874 374.767 380.412 375.523C384.478 377.503 387.418 375.69 390.131 373.081C392.65 370.663 395.703 370.178 398.263 372.119C401.486 374.553 405.665 375.849 407.787 379.723C409.002 381.934 411.286 382.665 413.845 382.339C415.432 382.132 416.971 381.655 418.575 381.56C420.324 381.456 422.138 381.504 423.264 382.992C424.625 384.789 425.856 384.399 427.597 383.54C430.172 382.276 433.031 382.395 435.704 383.31C439.511 384.606 440.361 386.34 438.903 390.062C438.215 391.828 438.433 392.926 439.859 394.151C441.454 395.519 442.742 397.189 444.532 398.398C446.881 399.981 446.751 402.574 446.638 404.96C446.484 408.157 447.415 409.708 450.582 409.127C454.413 408.427 457.498 409.43 460.511 411.346C462.099 412.357 463.184 411.609 464.067 410.464C467.784 405.628 472.611 405.683 477.835 407.314C478.345 407.473 478.839 407.672 479.341 407.847C485.043 409.835 490.072 407.473 491.951 401.802C492.948 398.803 494.081 395.877 495.612 393.109C496.73 391.08 498.252 390.19 500.609 391.208C503.257 392.361 505.436 391.542 507.056 389.339C509.072 386.603 511.551 385.982 514.58 387.493C515.665 388.034 516.588 388.074 517.423 387.096C519.156 385.067 521.448 383.699 523.57 382.125C525.756 380.502 528 378.903 529.036 376.159C529.563 374.767 530.883 373.885 532.381 373.423C533.807 372.978 535.192 372.413 536.512 371.729C539.565 370.154 540.861 367.561 540.537 364.229C540.173 360.49 539.67 356.887 538.261 353.276C536.22 348.043 539.103 343.533 541.987 339.326C542.853 338.061 544.465 337.95 545.971 337.655C550.191 336.82 553.657 334.816 555.544 330.752C556.492 328.707 555.941 327.363 553.641 327.26C550.75 327.133 548.482 325.375 545.801 324.699C544.497 324.373 543.363 323.251 543.242 321.748C543.121 320.229 544.392 319.553 545.55 319.052C547.551 318.185 549.446 316.753 551.892 317.715C552.693 318.034 553.277 317.397 553.844 316.912C555.933 315.154 557.974 315.115 560.169 316.856C562.121 318.407 562.744 318.121 563.109 315.624C563.311 314.24 563.295 312.808 565.263 312.744C565.773 312.864 566.114 313.15 566.235 313.659C566.057 314.796 566.146 315.958 566.016 317.095C565.781 319.282 564.291 320.348 562.315 320.937C560.574 321.454 558.938 321.621 557.901 319.68C557.585 319.091 556.921 318.423 556.419 319.012C554.184 321.668 551.106 321.024 548.134 321.223C550.126 322.75 551.9 324.198 554.589 324.42C558.565 324.739 559.902 327.411 558.784 331.006C556.905 337.043 551.786 339.079 546.53 340.726C544.465 341.37 543.291 342.141 542.44 344.074C540.683 348.107 540.845 351.606 542.319 356.013C544.028 361.135 545.566 367.267 540.756 372.342C539.354 373.821 537.686 374.537 535.872 375.141C533.45 375.945 531.677 377.233 530.527 379.675C529.028 382.848 525.643 384.248 522.865 386.101C519.747 388.185 517.892 390.898 517.277 394.501C517.171 395.113 516.791 395.94 517.382 396.266C521.27 398.398 519.674 401.985 519.723 405.023C519.755 406.797 519.399 408.364 520.662 410.018C521.934 411.673 520.808 413.47 519.366 414.353C515.495 416.739 515.981 420.199 516.451 423.762C516.75 426.013 518.062 427.039 520.209 426.347C522.557 425.584 524.137 426.212 525.351 428.169C526.234 429.6 527.627 429.807 529.19 429.974C531.903 430.252 534.827 430.165 536.633 432.821C536.771 433.02 537.079 433.49 537.208 433.195C538.488 430.292 542.068 431.827 544.06 429.409C546.959 425.894 552.523 426.968 554.799 430.944C556.16 433.315 557.367 434.038 560.363 433.124C562.898 432.344 565.571 432.018 568.106 430.889C569.831 430.117 572.147 430.03 573.484 432.225C573.597 432.965 573.573 433.609 572.852 434.007Z" fill="#346B22"/>
<path d="M772.224 280.93C769.162 282.831 768.385 285.893 768.32 289.082C768.239 292.995 766.96 295.986 763.113 297.585C761.809 298.126 761.153 299.144 761.201 300.567C761.217 301.092 761.258 301.625 761.177 302.134C760.934 303.709 759.889 305.181 757.832 303.972C757.387 303.709 756.884 303.526 756.212 303.216C755.224 304.687 754.228 306.095 753.321 307.559C752.033 309.635 750.251 310.215 748.3 308.728C746.396 307.28 744.906 307.026 742.979 308.688C741.82 309.682 740.225 310.183 738.516 309.635C737.828 309.412 737.042 309.452 736.297 309.468C733.859 309.523 733.64 309.802 734.215 312.283C734.961 315.536 735.05 318.861 735.414 322.154C735.487 322.838 735.487 323.267 736.119 323.649C739.504 325.661 739.496 325.677 737.933 329.153C737.86 329.32 737.925 329.551 737.925 329.869C739.69 330.736 740.913 329.28 742.282 328.731C744.283 327.928 745.408 327.841 746.194 328.906C746.939 329.932 746.655 331.65 745.473 332.907C744.971 333.44 744.331 333.854 743.821 334.387C743.464 334.752 742.954 335.214 742.946 335.643C742.857 340.614 742.63 345.633 746.404 349.705C747.085 350.437 747.927 350.843 748.769 351.264C750.592 352.163 751.393 353.754 751.563 355.575C751.709 357.094 751.555 358.677 751.312 360.196C751.142 361.246 750.462 361.962 749.247 362.312C747.044 362.948 746.809 363.656 747.797 365.7C748.073 366.265 748.486 366.758 748.777 367.315C749.466 368.659 749.968 370.035 748.988 371.459C748.478 372.198 748.543 373.026 748.453 373.861C748.219 375.992 746.388 377.098 744.331 376.406C743.311 376.064 742.379 375.539 741.658 374.736C740.16 373.081 738.087 372.461 736.07 371.833C733.211 370.95 731.591 372.278 732.191 375.141C732.79 377.973 732.798 380.932 734.062 383.628C734.467 384.503 734.669 385.433 734.418 386.38C734.126 387.485 733.001 387.072 732.312 387.446C730.287 388.543 729.453 390.468 728.919 392.536C728.66 393.53 729.615 394.015 730.215 393.968C733.705 393.665 734.086 396.362 734.847 398.549C735.276 399.774 735.536 400.935 736.929 401.468C739.018 402.279 740.176 403.981 740.387 406.033C740.646 408.587 742.825 409.875 743.853 411.895C744.25 412.667 745.084 412.516 745.854 412.277C747.279 411.832 748.575 412.396 749.158 413.526C750.713 416.524 753.394 416.413 756.002 415.992C757.532 415.745 758.674 415.673 759.711 416.898C759.954 417.185 760.448 417.28 760.821 417.463C762.861 418.457 765.34 418.569 766.279 421.456C766.66 422.625 768.749 423.707 770.572 423.73C772.248 423.754 773.228 424.963 774.435 425.751C775.05 426.148 775.48 426.84 775.204 427.668C774.945 428.455 774.313 428.861 773.504 428.861C772.281 428.853 771.195 429.203 770.175 429.815C768.814 430.626 768.685 431.326 769.697 432.535C769.964 432.853 770.41 433.036 770.637 433.37C771.325 434.404 770.985 435.414 769.721 435.756C768.677 436.035 767.535 436.17 766.887 437.053C765.769 438.556 764.708 439.853 762.505 438.962C761.89 438.715 761.315 439.264 760.853 439.725C760.48 440.099 760.156 440.704 759.719 440.807C756.617 441.515 756.755 443.806 756.893 446.128C756.901 446.231 756.884 446.335 756.876 446.438C756.747 449.23 756.747 449.23 753.912 449.54C753.815 450.336 754.325 450.741 754.989 450.813C757.289 451.075 759.314 451.791 760.691 453.764C760.804 453.931 760.983 454.106 761.169 454.169C763.526 454.981 765.356 456.221 765.988 458.846C766.198 459.729 767.316 460.119 768.288 460.373C769.673 460.731 770.742 461.574 771.746 462.545C774.346 465.074 773.755 467.874 770.256 469.242C769.146 469.671 768.174 470.252 767.3 471.055C764.959 473.203 764.951 473.187 766.466 475.97C766.239 476.551 765.89 477.028 765.307 477.307C765.105 475.915 764.133 474.857 763.655 473.576C763.38 472.837 763.104 472.025 763.979 471.66C766.15 470.745 767.502 468.693 769.867 467.969C772.175 467.261 772.402 465.074 770.653 463.372C769.794 462.537 768.839 461.908 767.68 461.606C766.717 461.351 765.575 460.97 765.324 460.135C764.295 456.659 760.545 455.983 758.561 453.533C757.678 452.443 756.293 452.435 755.07 452.229C754.163 452.077 753.442 451.807 752.916 451.075C751.977 449.779 752.292 448.117 753.839 447.846C755.475 447.56 755.653 446.756 755.613 445.516C755.589 444.784 755.661 444.036 755.564 443.32C755.354 441.738 755.832 440.632 757.532 440.306C758.415 440.131 759.112 439.694 759.671 439.025C760.545 437.976 761.622 437.411 763.032 437.649C764.093 437.824 764.846 437.514 765.469 436.6C766.336 435.327 767.705 434.722 769.179 434.444C769.3 433.498 768.401 433.498 768.118 433.02C767.105 431.326 767.778 429.378 769.648 428.55C770.329 428.248 770.993 427.906 771.706 427.707C772.305 427.54 772.953 427.564 773.755 427.477C773.269 425.989 772.046 425.273 770.928 425.194C768.96 425.059 767.656 423.738 765.98 423.134C765.461 422.943 764.886 422.681 764.765 422.187C764.23 419.976 762.019 419.825 760.529 418.831C760.043 418.505 759.298 418.457 758.869 417.988C758.14 417.2 757.403 417.24 756.326 417.368C753.24 417.717 750.081 417.861 748.235 414.528C747.684 413.542 746.631 413.629 745.659 413.788C744.064 414.051 743.124 413.303 742.242 412.054C740.84 410.082 739.439 408.173 738.961 405.731C738.759 404.713 738.249 403.592 737.212 403.21C734.791 402.327 733.883 400.418 733.325 398.223C732.912 396.584 732.102 395.845 730.263 395.248C728.157 394.572 726.562 394.445 724.675 395.495C723.784 395.988 722.683 396.33 721.589 396.02C720.804 395.797 720.075 395.94 719.451 396.362C716.77 398.223 714.324 397.125 712.032 395.694C710.396 394.668 709.109 393.777 707.286 395.535C706.468 396.322 704.962 396.529 703.723 396.759C701.56 397.157 700.216 395.733 700.67 393.634C700.799 393.029 701.156 392.472 701.39 391.892C702.549 389.005 702.492 388.846 700.135 386.722C699.43 386.086 698.815 385.354 698.118 384.702C697.138 383.779 696.677 382.904 697.09 381.393C697.738 379.015 697.373 378.633 694.887 378.617C693.291 378.601 692.222 378.108 691.566 376.708C690.789 375.054 689.76 374.815 687.962 375.507C685.719 376.374 683.427 376.82 681.24 374.664C680.05 373.487 678.041 373.089 676.373 372.397C675.53 372.047 674.712 372.238 673.984 372.819C671.06 375.165 667.221 375.181 663.917 376.589C662.872 377.034 661.544 376.883 660.588 376.04C658.596 374.306 656.344 374.25 654.02 375.046C651.663 375.849 649.646 375.611 647.994 373.67C647.646 373.256 647.613 372.811 647.84 372.342C650.91 373.217 653.979 373.169 657.081 372.453C657.794 372.286 658.636 372.532 659.235 372.93C663.163 375.563 667.083 374.028 670.371 372.151C674.356 369.876 677.806 370.043 681.435 372.246C683.654 373.59 685.849 374.227 688.392 373.248C689.307 372.898 690.392 372.922 691.161 373.527C693.243 375.157 695.3 376.621 698.118 376.971C699.447 377.138 699.495 378.76 699.374 379.89C699.123 382.252 700.038 384.057 701.974 385.242C704.67 386.897 705.011 388.997 703.796 391.677C703.472 392.385 702.71 393.316 703.439 394C704.225 394.739 705.375 394.254 706.104 393.737C708.801 391.82 711.255 392.353 713.749 394.095C715.231 395.129 716.884 395.344 718.601 394.564C719.581 394.119 720.625 393.952 721.711 393.928C724.448 393.856 726.311 392.488 727.437 390.086C728.02 388.838 728.676 387.549 729.842 386.801C732.118 385.354 731.98 383.548 731.267 381.345C730.393 378.657 729.656 375.897 730.401 373.026C731.138 370.21 732.264 369.383 735.228 369.645C737.722 369.868 739.917 370.934 742.063 372.143C743.254 372.811 744.42 374.998 745.716 373.582C746.826 372.373 747.579 370.274 746.809 368.293C746.583 367.705 746.194 367.188 745.927 366.615C744.647 363.855 745.076 362.304 747.603 360.411C750.098 358.55 750.389 354.843 747.749 353.221C740.921 349.037 740.67 342.571 740.881 335.81C740.946 333.75 742.979 332.836 743.861 331.078C742.088 330.799 741.002 331.881 739.69 332.167C736.775 332.804 735.544 331.81 735.924 328.994C736.354 325.765 735.576 324.898 732.393 325.812C729.397 326.671 726.781 326.202 724.043 325.009C720.536 323.49 718.576 324.611 717.92 328.286C717.775 329.113 717.596 329.932 717.386 330.744C716.859 332.788 715.944 334.601 713.604 334.927C711.19 335.261 710.008 333.432 708.898 331.754C708.072 330.513 707.521 329.089 707.513 327.61C707.497 325.224 706.606 323.307 704.719 321.891C700.945 319.052 697.705 315.87 697.025 310.947C696.369 308.807 694.66 307.622 692.862 306.525C691.801 305.873 690.595 305.419 689.817 304.377C689.153 303.415 688.878 302.285 688.375 301.251C686.448 297.282 682.35 296.368 678.956 299.287C677.328 300.687 675.814 301.824 673.595 300.607C672.534 300.042 671.359 300.273 670.234 300.122C669.286 299.995 668.031 300.257 667.885 298.754C670.29 298.833 672.712 297.982 675.101 299.032C676.081 299.462 676.632 298.555 677.223 297.99C681.945 293.489 688.197 294.777 690.424 300.758C691.153 302.723 692.133 304.353 694.271 305.053C697.543 306.127 698.361 309.412 700.354 311.631C700.475 311.766 700.548 312.076 700.475 312.228C699.009 315.353 701.65 316.443 703.415 317.97C704.849 319.211 706.266 320.483 707.724 321.7C709.133 322.877 709.716 324.293 709.587 326.131C709.417 328.397 709.943 330.497 711.749 332.12C712.996 333.249 714.454 333.106 714.98 331.571C715.369 330.426 715.766 329.233 715.701 327.92C715.499 323.53 719.905 320.786 724.019 322.639C725.177 323.156 726.424 323.49 727.582 323.999C729.923 325.025 731.697 323.808 733.454 322.599C733.964 322.249 734.369 321.669 734.167 320.969C733.26 317.867 733.713 314.55 732.547 311.472C731.818 309.547 732.304 308.72 734.296 308.37C735.746 308.115 737.277 308.123 738.751 308.274C740.338 308.442 741.61 308.123 742.857 307.137C744.59 305.769 746.688 305.872 748.64 307.209C750.754 308.656 751.329 308.577 752.422 306.278C753.005 305.045 754.171 304.282 754.601 302.874C755.022 301.474 756.431 301.872 757.605 302.254C759.768 302.961 759.946 302.938 759.922 300.742C759.905 298.547 760.845 297.187 762.797 296.328C765.907 294.952 767.049 292.415 767.008 289.249C766.984 287.651 767.47 286.147 767.778 284.612C768.223 282.401 769.867 281.041 771.673 279.864C772.151 279.474 772.605 279.466 772.864 280.063C773.01 280.54 772.605 280.755 772.224 280.93Z" fill="#346A22"/>
<path d="M878.409 376C879.648 374.052 880.296 372.087 879.276 369.781C878.919 368.969 879.114 367.927 879.049 366.989C878.928 365.167 878.191 364.348 876.352 364.141C875.615 364.062 874.821 363.998 874.125 364.189C871.088 365.04 868.391 364.038 865.613 363.02C864.066 362.455 863.483 361.779 864.074 360.26C864.147 360.061 864.228 359.87 864.285 359.663C865.103 356.792 863.847 355.345 860.948 356.196C858.996 356.768 857.401 356.633 855.854 355.456C855.149 354.915 854.388 354.716 853.513 354.613C851.067 354.326 849.771 352.966 849.634 350.509C849.569 349.26 849.763 348.003 849.844 346.755C849.933 345.45 849.941 344.233 848.241 343.828C847.366 343.621 846.864 342.889 846.459 342.118C845.301 339.906 843.487 338.34 841.373 337.035C839.85 336.097 838.271 335.214 837.097 333.782C836.327 332.844 835.177 332.621 833.93 332.565C831.338 332.438 831.119 332.159 831.014 329.559C830.99 328.93 831.03 328.302 831.079 327.674C831.119 327.125 831.087 326.465 830.569 326.298C828.155 325.502 828.066 323.259 827.289 321.446C826.892 321.072 826.851 320.635 827.046 320.149C827.289 319.847 827.556 319.823 827.847 320.078C828.722 320.428 829.338 321.056 829.208 321.987C828.989 323.538 829.888 324.246 831.071 324.914C832.488 325.709 833.12 326.663 832.472 328.517C831.792 330.465 832.415 330.982 834.521 331.285C836.116 331.515 837.663 331.849 838.611 333.345C839.146 334.18 840.069 334.554 840.863 335.063C843.559 336.781 846.159 338.586 847.714 341.481C847.973 341.958 848.281 342.436 848.824 342.539C851.318 343.024 851.124 344.925 851.132 346.707C851.14 347.542 850.978 348.377 850.962 349.212C850.905 352.068 851.464 352.728 854.372 353.38C854.882 353.491 855.457 353.619 855.846 353.929C857.465 355.249 859.085 355.345 861.175 354.836C864.617 353.984 866.779 356.434 865.605 359.695C865.014 361.334 865.799 361.604 867.006 362.089C869.282 363.004 871.558 363.338 873.987 362.877C874.911 362.702 875.915 362.726 876.854 362.877C879.195 363.251 880.377 364.635 880.369 366.925C880.369 367.983 880.45 368.977 880.782 370.003C881.471 372.087 881.301 374.123 879.883 375.937C879.397 375.976 878.903 375.992 878.409 376Z" fill="#366C23"/>
<path d="M265.091 387.334C266.687 387.167 267.983 386.038 269.667 386.062C270.744 386.07 271.336 385.306 271.481 384.224C271.789 382.061 272.591 380.216 274.729 379.142C275.142 378.935 275.353 378.331 275.661 377.917C277.143 375.889 278.6 375.873 280.155 377.877C280.479 378.291 280.795 378.72 281.038 379.182C281.929 380.852 283.8 381.425 285.063 382.697C286.829 384.479 288.076 382.228 289.599 381.974C289.704 381.958 289.801 381.878 289.907 381.886C293.268 382.141 296.621 382.037 299.974 381.743C300.8 381.671 301.294 382.292 301.48 383.095C301.634 383.787 301.294 384.582 302.079 385.274C304.331 384.718 306.663 384.01 309.15 384.201C310.365 384.296 311.264 383.596 311.134 382.3C310.996 380.884 311.579 379.635 311.806 378.307C312.333 375.237 313.175 374.521 316.406 374.203C316.925 374.155 317.467 374.25 318.018 373.67C317.637 371.904 315.58 371.029 315.2 369.081C314.989 367.983 314.608 367.211 315.597 366.329C316.593 365.446 316.649 364.141 316.998 362.924C317.605 360.785 317.751 358.486 319.776 356.792C321.671 355.201 323.517 354.883 325.615 355.814C327.048 356.458 328.49 356.609 329.972 356.434C331.762 356.227 332.191 355.36 331.187 353.778C330.361 352.481 330.628 351.415 331.373 350.31C332.135 349.172 332.985 348.115 333.916 347.104C335.301 345.593 335.269 344.607 333.657 343.446C331.803 342.11 330.652 340.789 331.195 338.236C331.616 336.272 330.434 335.086 328.369 334.554C327.008 334.204 326.036 333.559 325.866 332.096C325.809 331.579 325.842 330.982 325.412 330.632C323.542 329.113 324.003 327.061 324.028 325.113C324.797 324.882 325.267 325.28 325.655 325.852C326.814 328.708 327.453 331.778 330.952 333.193C332.661 333.885 333.001 336.033 333.074 337.862C333.139 339.541 333.819 340.797 335.074 341.958C337.431 344.122 337.472 345.991 335.471 348.544C334.888 349.292 334.167 349.928 333.771 350.811C333.641 351.097 333.6 351.407 333.868 351.901C335.374 352.147 336.54 351.264 337.715 350.405C338.735 349.658 339.707 348.719 341.149 349.483C341.375 349.705 341.505 349.976 341.554 350.294C341.343 351.582 340.25 352.155 339.326 352.831C337.043 354.509 334.402 355.631 332.224 357.556C330.442 359.123 328.053 358.701 325.809 358.049C322.189 356.991 320.683 357.818 319.638 361.342C319.071 363.243 318.771 365.215 317.978 367.068C317.459 368.277 319.994 373.161 321.241 373.773C322.1 374.195 322.651 373.622 323.258 373.24C325.712 371.697 328.069 371.968 330.377 373.566C330.758 374.354 331.843 373.98 332.272 374.688C331.211 374.72 330.094 374.966 329.089 374.752C326.838 374.266 324.716 373.646 323.234 376.215C322.853 376.867 321.889 376.708 321.144 376.525C320.01 376.239 318.901 375.881 317.759 375.642C315.021 375.078 313.604 376.04 313.053 378.744C312.802 379.969 312.446 381.138 312.462 382.435C312.478 384.447 311.604 385.433 309.636 385.473C307.368 385.513 305.23 385.839 303.067 386.515C301.124 387.128 300.022 386.3 300.022 384.28C300.022 383.246 299.698 382.817 298.84 382.992C296.216 383.532 293.624 383.477 290.984 383.119C289.923 382.976 288.991 383.795 288.06 384.28C286.537 385.06 285.379 384.845 284.035 383.692C282.269 382.18 280.407 380.82 279.192 378.792C278.528 377.687 277.653 377.615 276.981 378.705C276.398 379.635 275.709 380.311 274.745 380.844C273.539 381.504 272.947 382.729 272.899 383.994C272.826 386.253 271.498 387.096 269.505 387.438C268.355 387.637 267.108 387.748 266.946 389.291C266.306 388.631 265.699 387.979 265.091 387.334Z" fill="#407D2B"/>
<path d="M667.828 298.762C668.76 299.708 669.958 299.199 671.035 299.335C672.104 299.47 673.327 298.937 674.194 299.995C673.967 300.217 673.716 300.472 673.408 300.504C669.286 300.949 665.115 301.156 661.009 300.79C656.182 300.353 652.797 296.988 649.541 293.91C646.22 290.76 643.037 287.865 638.405 286.402C636.153 285.694 633.95 284.596 631.585 283.841C629.463 283.165 627.819 283.053 625.843 283.817C623.543 284.7 621.227 285.089 618.692 284.222C616.278 283.395 614.092 284.549 612.197 286.012C608.196 289.098 603.903 291.389 598.623 291.285C598.307 291.277 597.91 291.317 597.716 291.532C595.027 294.562 590.491 296.256 590.459 301.212C590.451 302.277 590.167 303.295 589.568 304.186C588.402 305.936 588.596 307.678 589.22 309.587C590.192 312.546 590.435 315.528 588.475 318.288C587.049 318.439 586.725 317.541 586.628 316.435C587.009 314.128 586.879 311.901 586.11 309.635C585.316 307.296 585.276 304.886 586.782 302.699C586.96 302.436 587.211 302.134 587.187 301.856C586.669 296.416 591.05 293.854 594.071 290.498C595.456 288.955 597.124 287.969 599.36 288.016C603.028 288.088 606.276 286.823 609.014 284.493C612.472 281.55 616.197 280.301 620.806 281.494C624.304 282.393 625.722 280.969 625.43 277.414C625.309 275.951 625.236 274.479 625.535 273.032C626.175 269.993 627.471 268.912 630.638 269.142C634.031 269.389 637.328 267.782 640.786 268.816C641.952 269.166 642.948 268.069 643.669 267.138C645.459 264.792 646.406 262.191 645.985 259.208C645.524 255.939 645.637 253.1 649.314 251.262C651.549 250.141 652.886 247.62 650.853 245.186C649.897 244.04 649.913 242.879 650.788 241.463C652.545 238.6 651.104 235.928 647.719 235.323C646.147 235.045 644.552 234.894 642.964 234.75C639.725 234.448 638.024 232.627 637.716 229.493C637.506 227.322 638.178 224.824 636.833 223.058C635.278 221.014 632.63 222.605 630.5 222.239C629.221 222.017 627.73 222.048 627.099 220.855C626.281 219.32 624.628 219.805 623.559 219.018C623.284 218.318 623.114 217.674 624.24 217.634C624.653 217.547 625.098 217.515 625.471 217.348C626.823 216.751 627.811 217.014 628.127 218.509C628.435 219.988 629.415 220.267 630.719 220.187C632.209 220.1 633.707 220.124 635.181 219.957C637.684 219.67 639.109 220.45 639.482 222.78C639.822 224.928 639.96 227.115 640.049 229.286C640.13 231.195 641.061 232.778 642.835 232.651C645.491 232.468 648.042 234.058 650.707 232.905C651.395 232.611 652.035 233.017 652.222 233.669C652.926 236.079 653.558 238.505 654.181 240.93C654.254 241.201 654.206 241.71 654.036 241.813C651.736 243.158 653.315 244.494 653.938 245.902C654.667 247.548 654.627 249.091 653.177 250.499C651.898 251.748 650.901 253.314 649.225 254.102C648.026 254.667 647.791 255.526 647.913 256.655C648.083 258.206 648.488 259.773 648.342 261.292C647.921 265.682 645.799 269.15 642.009 271.632C640.996 272.292 640.259 272.228 639.522 271.377C638.542 270.232 637.352 270.296 636.032 270.669C634.015 271.242 632.031 271.942 629.852 271.194C628.961 270.892 628.321 271.441 627.925 272.379C626.864 274.901 627.617 277.311 628.208 279.745C628.232 279.84 628.289 280.015 628.33 280.015C630.549 280.015 631.853 282.695 634.201 282.083C635.878 281.645 637.109 281.773 637.967 283.395C638.146 283.729 638.607 284.191 638.883 284.151C640.826 283.904 641.912 285.439 643.418 286.044C646.949 287.483 648.885 290.506 651.347 293.003C651.946 293.608 652.319 294.34 653.315 294.379C654.109 294.411 654.781 294.865 655.186 295.469C657.162 298.364 660.288 298.468 663.325 298.81C664.386 299.175 665.439 299.263 666.484 298.754C666.953 298.746 667.391 298.754 667.828 298.762Z" fill="#356C23"/>
<path d="M515.382 149.065C516.046 150.982 516.353 152.859 515.608 154.879C515.26 155.818 515.357 156.955 515.39 157.997C515.43 159.445 515.228 160.717 513.77 161.465C513.584 161.561 513.389 161.68 513.26 161.831C512.628 162.555 511.883 163.422 512.498 164.328C513.041 165.124 514.053 164.726 514.855 164.432C516.451 163.851 518.07 163.318 519.609 162.626C521.537 161.759 523.132 162.284 524.631 163.493C525.287 164.026 525.845 164.678 526.526 165.171C528.048 166.293 529.49 167.176 531.717 166.778C534.714 166.245 537.872 166.969 540.909 166.102C541.363 165.975 541.946 166.229 542.456 166.365C545.534 167.16 548.636 167.876 551.665 168.814C553.293 169.315 554.095 168.886 554.5 167.367C554.71 166.563 554.921 165.752 555.18 164.965C555.795 163.104 557.383 162.372 559.408 162.73C562.242 163.239 563.983 165.346 565.911 167.041C568.001 168.87 568.292 168.751 569.912 166.699C571.062 165.243 572.536 164.034 573.427 162.324C574.164 160.908 575.881 160.622 577.322 161.266C579.193 162.109 580.53 165.267 579.874 167.319C579.404 168.79 581.858 175.042 583.218 175.782C583.777 176.084 584.36 176.346 584.944 176.601C586.158 177.134 586.944 177.858 586.256 179.273C585.988 179.822 586.183 180.26 586.466 180.737C587.551 182.566 589.357 184.069 588.944 186.591C588.823 187.307 589.932 187.649 590.564 187.935C593.383 189.223 593.569 192.357 595.343 194.377C595.804 194.902 595.221 195.523 594.452 195.658C593.642 195.801 592.994 196.191 593.026 197.066C593.067 198.092 594.014 198.323 594.776 198.649C595.059 198.768 595.399 198.784 595.715 198.784C599.36 198.768 603.045 198.267 605.831 195.96C608.698 193.59 611.994 193.511 615.298 193.025C615.922 192.938 616.578 193.025 617.21 193.073C618.522 193.176 619.299 192.771 619.891 191.451C620.79 189.422 621.543 189.303 623.665 190.186C625.827 191.085 625.779 191.037 627.552 189.16C629.528 187.076 632.282 186.304 634.93 185.692C636.615 185.302 637.546 184.777 638.032 183.139C638.907 180.172 641.142 178.764 644.179 178.542C645.046 178.478 645.807 178.327 646.569 177.85C649.079 176.283 651.752 176.068 654.441 177.357C656.587 178.383 658.604 176.991 660.701 177.174C661.236 177.221 661.503 176.474 661.414 175.949C661.276 175.137 660.993 174.342 660.774 173.547C661.252 173.396 661.738 173.245 662.216 173.085C662.337 173.587 662.475 174.08 662.588 174.589C663.228 177.595 662.491 178.414 659.308 178.645C657.016 178.812 654.87 179.202 652.554 178.08C651.047 177.357 648.958 177.762 647.419 178.923C646.52 179.6 645.58 179.838 644.471 179.83C641.936 179.814 640.186 181.095 639.449 183.409C638.769 185.533 637.7 186.726 635.279 186.996C633.545 187.195 631.885 188.134 630.241 188.85C629.391 189.224 628.646 189.741 628.151 190.663C627.042 192.715 626.426 192.85 624.126 192.079C623.292 191.801 622.312 190.695 621.583 191.761C620.822 192.874 619.348 193.876 620.133 195.626C620.304 196 620.287 196.445 620.401 196.843C621.672 201.051 620.611 204.709 617.801 208.018C616.675 209.346 617.291 211.033 617.145 212.56C616.691 212.886 616.23 212.886 615.768 212.576C614.61 210.269 615.039 208.169 616.497 206.109C618.336 203.508 619.121 200.677 618.287 197.487C617.874 195.897 616.934 195.109 615.339 195.205C612.456 195.38 609.597 195.658 607.248 197.639C603.871 200.47 599.667 200.828 595.545 200.995C592.54 201.114 590.418 198.156 591.407 195.38C592.233 193.065 591.52 191.419 589.722 190.186C587.754 188.826 587.106 186.893 586.15 184.865C584.79 181.97 583.866 178.844 580.91 176.577C578.359 174.62 578.148 170.882 577.492 167.733C577.371 167.136 577.622 166.484 577.565 165.856C577.484 164.989 577.258 164.153 576.302 163.859C575.403 163.581 574.966 164.305 574.496 164.853C573.322 166.205 572.171 167.589 570.916 168.87C569.167 170.652 567.28 170.89 565.263 169.26C563.943 168.194 562.631 167.12 561.238 166.158C558.994 164.615 557.925 164.925 556.751 167.295C554.824 171.192 553.989 171.717 549.794 170.357C544.109 168.512 538.334 168.186 532.487 168.854C529.377 169.212 526.736 168.425 524.566 166.373C522.468 164.4 520.354 164.384 517.836 165.45C514.863 166.707 512.506 168.305 510.044 170.668C502.601 177.802 493.757 183.004 482.759 183.155C480.499 183.187 478.653 182.28 476.839 181.095C473.218 178.733 469.461 179.194 466.747 182.415C465.371 184.046 463.645 184.435 461.637 184.467C457.952 184.523 457.952 184.563 457.968 188.261C457.976 188.993 458.065 189.74 457.952 190.456C457.474 193.415 458.211 195.555 461.175 197.098C463.224 198.163 464.69 200.144 464.812 202.705C464.917 205.028 466.683 206.093 468.383 207.199C474.247 211.001 476.579 217.698 474.142 224.268C473.364 226.359 474.045 227.441 475.94 228.181C477.325 228.73 478.782 229.072 480.127 229.732C481.382 230.344 482.581 231.076 483.237 232.341C485.399 236.484 488.55 239.873 491.765 243.221C494.049 245.607 497.127 254.102 496.884 257.323C495.976 257.792 495.288 257.434 494.681 256.774C493.725 253.792 491.878 251.127 491.384 247.97C491.214 246.888 490.453 246.108 489.692 245.361C486.282 242.028 483.204 238.449 480.912 234.257C480.321 233.176 479.349 232.571 478.215 232.166C477.114 231.768 475.996 231.418 474.927 230.949C470.238 228.889 469.72 227.68 471.534 222.947C473.21 218.581 471.291 212.528 467.314 209.935C464.496 208.098 461.977 206.213 461.677 202.443C461.532 200.55 459.766 199.46 458.122 198.672C456.235 197.774 454.518 196.835 454.502 194.417C452.947 194.839 451.902 195.61 450.671 195.944C448.873 196.43 447.982 197.495 448.266 199.412C448.581 201.528 447.707 203.063 445.763 204.033C443.973 204.932 443.196 206.364 443.212 208.368C443.26 213.697 441.09 218.39 438.304 222.756C436.7 225.27 434.19 226.964 431.104 227.6C430.44 227.704 429.8 227.672 429.192 227.362C428.893 227.179 428.747 226.908 428.731 226.566C428.836 226.081 429.12 225.723 429.525 225.437C430.95 224.673 432.748 224.562 433.801 223.122C437.988 219.137 439.81 214.063 440.175 208.551C440.369 205.592 440.993 203.254 443.754 201.759C444.888 201.146 445.407 200.168 445.107 198.863C444.5 196.183 446.046 194.775 448.241 193.733C449.578 193.097 451.011 192.652 452.291 191.88C455.142 190.154 455.911 187.513 454.234 184.658C453.489 183.385 452.607 182.224 452.607 180.657C452.607 179.186 451.343 178.892 450.298 178.399C444.888 175.822 444.346 171.996 448.808 167.892C448.994 167.717 449.254 167.661 449.48 167.55C449.027 167.144 448.905 167.86 448.549 167.812C445.82 167.741 444.589 165.521 443.066 163.899C441.778 162.531 440.806 162.443 439.243 163.35C433.21 166.834 426.415 168.321 419.806 170.286C418.972 170.532 418.097 170.508 417.271 170.27C414.598 169.506 411.861 169.148 409.091 168.934C405.787 168.679 403.705 166.874 402.288 163.963C400.919 161.147 400.571 158.148 400.004 155.174C399.137 150.68 395.29 147.872 390.852 149.36C386.462 150.839 383.239 149.208 379.862 147.101C377.294 145.502 375.877 143.378 376.331 140.284C376.484 139.227 376.501 138.073 375.642 137.326C371.771 133.953 370.645 129.443 370.021 124.695C369.916 123.462 369.617 122.174 370.896 121.283C371.633 121.442 371.892 121.911 371.973 122.627C372.2 124.488 372.581 126.334 372.743 128.203C373.002 131.257 374.913 133.357 376.93 135.353C378.38 136.793 379.303 138.129 378.566 140.324C377.481 143.545 380.242 144.707 382.275 146.099C383.385 146.862 384.794 147.14 385.952 147.936C387.078 148.715 388.212 147.856 389.24 147.419C393.014 145.82 396.254 146.83 399.34 149.137C401.17 150.505 401.948 152.279 402.191 154.482C402.523 157.472 402.976 160.415 404.345 163.231C405.576 165.76 407.536 167.072 410.079 166.961C412.824 166.842 415.262 167.804 417.846 168.234C418.372 168.321 418.899 168.568 419.385 168.273C421.539 166.945 424.204 167.224 426.374 166.301C430.796 164.424 435.753 163.724 439.575 160.463C441.389 158.912 443.066 159.397 444.005 161.553C444.815 163.414 446.783 164.082 447.909 165.625C448.444 166.357 449.488 165.211 450.315 165.601C450.971 165.911 451.797 166.046 451.991 166.905C452.161 167.645 451.667 168.091 451.092 168.409C450.12 168.957 449.683 169.968 448.994 170.739C447.358 172.576 447.812 174.803 449.991 175.941C451.116 176.521 452.331 176.951 453.546 177.333C455.052 177.81 455.514 178.613 455.117 180.172C454.639 182.065 454.899 182.344 456.859 182.399C458.883 182.455 460.908 182.383 462.933 182.328C464.253 182.288 465.16 181.636 465.484 180.355C465.994 178.327 467.371 177.738 469.331 177.969C470.295 178.08 471.218 177.77 472.157 177.579C474.239 177.166 476.142 177.555 477.77 179.035C479.762 180.848 481.892 181.803 484.735 180.657C486.266 180.037 488.088 180.18 489.765 180.013C491.765 179.814 493.482 179.154 495.142 178.208C496.43 177.476 497.718 176.919 499.2 176.529C501.419 175.949 502.747 173.936 504.156 172.266C504.934 171.344 505.533 170.54 506.878 170.405C508.425 170.246 509.388 169.204 509.534 167.685C509.72 165.8 511.186 164.336 511.227 162.42C511.235 162.133 511.413 161.751 511.648 161.592C515.463 158.848 513.883 154.593 514.758 151.03C514.555 150.226 513.843 149.288 515.382 149.065Z" fill="#356B23"/>
<path d="M515.382 149.065C514.637 149.542 514.807 150.306 514.75 151.006C514.175 150.433 514.142 149.686 514.142 148.954C514.118 144.802 513.146 140.642 513.746 136.53C514.053 134.391 514.928 132.116 516.451 130.414C517.406 129.34 517.512 128.497 516.402 127.869C514.215 126.628 514.685 125.005 515.414 123.279C515.908 122.126 516.515 121.005 515.689 119.732C514.475 119.629 513.891 120.742 512.911 121.1C511.267 121.697 510.466 121.569 509.931 119.947C509.453 118.475 508.668 117.759 507.177 117.298C505.217 116.686 503.743 115.318 502.658 113.544C501.354 111.42 501.565 109.448 503.679 108.112C505.306 107.086 507.404 106.067 507.906 104.524C508.497 102.711 507.906 100.404 507.437 98.4081C506.862 95.9663 506.489 93.5086 506.043 91.0509C505.598 88.6091 506.173 87.933 508.587 88.0364C511.008 88.1398 511.34 87.7024 510.514 85.5072C510.109 84.4334 509.664 83.3676 509.291 82.2859C508.765 80.7588 508.425 79.2874 510.295 78.2772C511.113 77.8318 511.162 77.0524 511.057 76.0979C510.765 73.505 510.571 70.8962 511.47 68.3351C511.664 67.7943 511.616 67.0387 511.389 66.4978C509.98 63.2209 509.575 59.6179 507.979 56.4205C506.619 53.6844 506.432 51.2267 509.218 49.1905C510.279 48.419 510.401 47.2339 510.304 46.0568C510.166 44.3388 511.057 43.3287 512.523 42.6128C515.382 41.205 518.338 40.0199 521.391 39.0973C523.594 38.4371 523.967 37.9838 523.578 35.8363C523.537 35.6295 523.424 35.4466 523.383 35.2398C522.687 32.1219 523.513 30.6425 526.696 29.5369C527.409 29.2904 528.129 29.1154 528.64 28.5427C529.425 27.6519 529.846 26.7213 528.494 25.9737C526.85 25.059 525.7 23.5478 523.829 22.8002C521.602 21.9173 520.087 17.9404 520.848 15.8168C522.671 10.6946 524.493 5.57244 526.923 0.680908C527.417 0.704769 527.903 0.736589 528.397 0.76045C525.692 5.53267 524.266 10.806 522.225 15.8407C521.513 17.5984 522.8 21.106 524.712 21.6866C526.939 22.3627 527.984 24.2955 529.806 25.3612C531.166 26.1566 531.215 27.3497 530.235 28.5825C529.458 29.5529 528.615 30.4278 527.263 30.8175C524.647 31.5731 524.209 32.5275 524.744 35.2318C524.882 35.9476 524.979 36.6714 524.995 37.4032C525.044 38.9939 524.258 40.0199 522.646 40.2665C519.439 40.7676 516.669 42.3822 513.721 43.5514C512.312 44.1161 511.454 44.991 511.583 46.6454C511.713 48.3316 510.919 49.6757 509.575 50.7097C508.165 51.7994 508.044 53.239 508.74 54.6627C510.449 58.1782 511.089 62.0358 512.587 65.6149C513.098 66.8398 513.09 68.1124 512.677 69.3134C511.94 71.4768 512.004 73.6959 512.409 75.8355C512.677 77.2671 512.563 78.2693 511.405 79.1283C510.295 79.9475 510.15 80.9895 510.619 82.1984C511 83.1767 511.308 84.1789 511.761 85.1254C512.239 86.1275 512.385 87.1456 512.102 88.1796C511.753 89.4283 511.13 90.0805 509.542 89.6908C507.218 89.1181 507.194 89.2613 507.558 91.4486C508.254 95.6561 508.951 99.8715 509.648 104.079C509.777 104.851 509.745 105.63 508.951 105.988C507.372 106.704 506.424 108.183 504.893 109.002C502.901 110.068 502.82 111.229 504.14 113.114C505.12 114.522 506.311 115.819 508.02 116.177C509.615 116.511 510.506 117.37 510.895 118.754C511.324 120.289 512.077 120.297 513.179 119.462C513.349 119.334 513.495 119.183 513.665 119.056C514.377 118.523 514.855 117.362 516.03 117.966C517.204 118.563 517.528 119.676 517.439 120.909C517.398 121.529 517.463 122.245 517.171 122.746C516.119 124.616 516.013 126.055 518.038 127.519C519.042 128.242 519.067 129.929 518.079 130.947C515.131 133.985 514.661 137.763 515.001 141.573C515.187 144.07 515.333 146.56 515.382 149.065Z" fill="#366C23"/>
<path d="M300.864 100.158C299.002 101.367 297.252 102.743 295.228 103.705C293.94 104.318 293.503 105.24 294.45 106.473C295.373 107.674 295.114 109.074 295.187 110.41C295.244 111.42 295.616 111.945 296.734 111.913C299.293 111.826 301.383 113.313 303.667 114.101C305.708 114.801 306.59 117.712 305.724 120.098C304.736 122.826 304.388 125.721 303.003 128.362C302.095 130.096 302.687 131.742 304.039 133.476C305.586 135.464 308.048 137.357 306.979 140.586C306.631 141.644 307.522 142.551 308.291 143.299C311.134 146.027 311.393 149.105 309.506 152.414C307.012 156.772 305.983 161.505 305.384 166.412C305.157 168.257 304.809 170.103 304.517 171.956C304.039 174.994 304.703 176.895 307.489 178.414C310.34 179.973 312.349 181.834 311.555 185.366C311.417 185.978 311.839 186.32 312.179 186.718C314.414 189.375 315.767 192.349 315.588 195.865C315.54 196.835 315.767 197.63 316.528 198.394C317.961 199.85 317.961 201.663 317.095 203.357C315.888 205.711 315.548 208.026 316.342 210.587C316.892 212.385 316.909 214.293 316.909 216.186C316.917 220.235 314.835 223.448 310.94 224.904C309.773 225.341 308.81 225.787 308.332 226.964C307.87 228.085 307.012 228.809 305.967 229.413C305.06 229.938 304.266 230.622 303.489 231.354C301.634 233.104 300.97 234.902 302.509 237.152C304.193 239.618 303.084 242.489 303.667 245.13C303.91 246.228 303.683 247.413 304.671 248.272C304.744 248.335 304.776 248.455 304.841 248.534C306.185 250.165 304.468 252.312 305.683 253.879C306.85 255.374 307.716 256.798 306.922 258.747C306.663 259.383 307.109 259.964 307.433 260.497C308.081 261.602 308.405 262.819 308.623 264.052C308.777 264.959 308.972 266.024 308.194 266.74C306.971 267.854 306.185 269.174 305.813 270.733C305.586 271.687 303.885 271.974 304.639 273.35C305.311 274.583 306.169 275.744 307.522 276.157C309.725 276.833 311.474 278.13 313.199 279.522C316.01 281.789 319.848 282.544 322.23 285.487C322.861 286.267 323.785 286.068 324.36 285.177C324.878 284.389 325.493 283.618 325.801 282.751C326.174 281.709 326.878 280.953 327.575 280.174C329.178 278.384 330.539 278.146 332.62 279.212C334.629 280.238 335.876 279.967 336.929 278.042C337.488 277.016 337.844 275.927 339.164 275.601C340.671 275.227 342.129 274.256 343.74 275.282C344.145 275.632 344.21 276.062 344.056 276.539C341.343 277.168 339.075 278.353 337.358 280.683C336.216 282.234 334.418 282.687 332.523 281.558C330.839 280.556 329.567 281.089 328.417 282.568C323.857 288.438 323.841 288.422 317.597 284.914C316.803 285.392 317.03 286.219 316.989 286.887C316.755 291.285 315.661 295.374 312.608 298.762C311.863 299.581 312.114 300.289 312.705 300.989C313.62 302.063 314.463 303.295 314.333 304.656C314.058 307.551 314.608 310.112 316.082 312.665C316.649 313.651 316.811 314.765 318.018 315.282C318.715 315.584 319.33 316.117 319.549 316.825C320.44 319.688 321.533 322.289 324.829 323.355C325.769 323.657 326.068 324.755 325.242 325.709C324.837 325.502 324.432 325.295 324.027 325.081C323.663 324.89 323.307 324.58 322.918 324.532C320.035 324.166 318.617 322.424 318.245 319.752C318.01 318.042 317.508 316.833 315.418 316.666C314.122 316.562 313.256 315.616 313.847 314.192C314.284 313.142 314.131 312.379 313.215 311.742C311.79 310.748 311.555 309.356 311.984 307.837C312.624 305.57 312.527 303.685 310.527 301.888C308.753 300.297 309.061 298.674 310.915 297.259C311.798 296.59 312.365 295.859 312.624 294.737C312.972 293.242 313.167 291.603 314.6 290.569C314.754 290.458 314.949 290.172 314.9 290.045C314.098 287.802 315.378 285.511 314.73 283.284C314.471 282.385 314.058 281.55 313.134 281.025C311.134 279.888 309.636 278.027 307.182 277.486C305.724 277.168 304.703 275.927 303.837 274.686C302.922 273.382 302.444 272.284 303.869 270.828C305.238 269.429 305.635 267.353 306.979 265.786C308.105 264.473 307.117 262.708 306.388 261.356C305.708 260.083 305.181 258.961 305.797 257.53C306.177 256.647 305.675 255.907 305.076 255.263C304.023 254.134 303.586 253.052 303.95 251.334C304.606 248.28 301.456 245.782 298.062 246.753C295.762 247.413 293.405 248.113 291.13 248.789C287.898 249.751 284.61 251.135 281.063 250.873C281.484 248.932 283.476 250.706 284.245 249.576C284.723 248.828 285.371 248.256 286.311 248.335C288.514 248.51 290.32 247.659 292.32 246.856C294.474 245.989 296.904 245.313 299.382 245.265C301.909 245.217 301.901 245.035 302.152 242.561C302.363 240.485 301.828 238.632 300.913 236.842C299.755 234.567 300.127 232.802 302.071 230.988C304.193 229.008 306.906 227.56 308.202 224.768C308.526 224.061 309.368 223.997 310.089 223.774C313.466 222.748 315.475 220.02 315.572 216.584C315.637 214.278 315.556 211.955 314.884 209.76C314.187 207.477 314.56 205.457 315.605 203.445C316.439 201.838 316.819 200.295 315.111 198.975C314.236 198.299 314.203 197.352 314.268 196.414C314.382 194.831 314.122 193.296 313.693 191.785C313.434 191.681 313.264 191.506 313.199 191.228C312.9 190.448 312.778 189.51 312.26 188.913C310.786 187.235 309.636 185.692 310.284 183.179C310.648 181.779 309.036 180.904 307.854 180.18C306.688 179.472 305.521 178.892 304.582 177.778C303.019 175.941 302.671 174.215 303.132 171.789C303.764 168.432 304.331 165.044 304.801 161.656C305.311 157.957 306.866 154.68 308.486 151.404C309.709 148.93 309.757 146.647 307.668 144.524C306.323 143.156 305.578 141.692 305.756 139.513C305.91 137.668 304.517 135.822 303.148 134.422C301.221 132.45 300.711 130.231 301.78 127.845C302.938 125.268 303.432 122.508 304.412 119.891C305.262 117.616 304.347 115.747 302.039 114.928C300.006 114.212 298.216 112.526 295.722 113.441C294.871 113.751 294.248 112.892 294.15 112.232C293.802 109.877 293.729 107.507 292.62 105.28C292.247 104.54 292.871 103.642 293.584 103.109C294.256 102.608 295.017 102.218 295.738 101.78C296.621 100.89 297.374 99.7761 298.888 99.9351C299.156 99.6886 299.423 99.434 299.69 99.1875C300.014 98.8375 300.273 98.3364 300.905 98.6625C300.889 99.1795 300.873 99.6727 300.864 100.158Z" fill="#346A22"/>
<path d="M284.254 249.608C283.549 250.888 281.816 249.719 281.071 250.904C279.337 251.222 277.718 250.634 276.114 250.189C274.543 249.751 273.045 247.842 273.425 246.41C273.879 244.732 273.611 242.903 274.591 241.352C274.705 242.044 274.502 242.831 275.231 243.332C275.183 244.048 275.183 244.772 275.077 245.48C274.737 247.635 275.247 248.383 277.369 249.067C279.629 249.807 281.937 249.719 284.254 249.608Z" fill="#3C7128"/>
<path d="M17.3361 154.283C17.9031 156.86 19.4338 158.482 22.0578 159.278C24.0421 159.882 25.589 160.988 26.2369 163.207C26.8605 165.354 29.4522 165.832 30.7237 167.518C30.8614 167.693 31.3554 167.764 31.6146 167.677C34.4816 166.738 37.5997 167.653 40.4344 166.492C41.0094 166.253 41.9408 165.895 42.2485 166.142C44.7673 168.154 48.671 167.263 50.8334 170.182C52.5828 168.934 53.579 167.049 54.8343 165.434C55.7495 164.265 55.9439 162.746 54.8505 161.362C53.7086 159.922 53.0849 158.451 54.8181 156.955C55.0206 156.78 55.0125 156.383 55.1016 156.08C56.2921 151.905 57.8309 150.91 62.0019 151.634C64.2858 152.032 64.2858 152.032 64.9013 149.916C65.0471 149.415 65.3144 148.914 65.3387 148.413C65.4844 145.255 68.2948 144.078 70.1575 142.265C71.34 141.119 72.814 141.732 73.8993 142.71C75.8349 144.444 78.2322 142.885 80.2894 143.673C80.4675 143.744 80.9211 143.187 81.2045 142.893C83.0025 141.008 85.2621 141.143 87.4407 141.788C88.9228 142.225 90.494 142.917 91.5793 143.951C93.2396 145.542 94.9323 144.953 96.6978 144.675C97.4267 144.555 97.7669 144.142 97.5644 143.339C96.7788 140.245 98.9979 137.548 98.8197 134.462C98.755 133.269 99.743 131.829 101.33 131.543C102.626 131.305 103.023 130.366 103.412 129.404C103.954 128.059 104.108 126.604 105.226 125.459C105.979 124.695 105.696 123.629 104.934 122.921C104.035 122.078 103.12 121.203 103.865 119.971C104.611 118.746 105.898 118.173 107.397 118.197C107.826 118.205 108.255 118.284 108.676 118.253C110.677 118.093 111.802 116.972 111.932 115.047C112.037 113.441 110.563 111.548 108.992 111.253C108.368 111.134 107.761 110.943 107.129 110.856C105.477 110.633 104.683 109.488 104.521 108.088C104.376 106.807 105.024 105.749 106.327 105.057C107.688 104.334 109.057 103.562 110.053 102.305C110.887 101.255 111.049 100.253 110.166 99.1795C109.899 98.8534 109.543 98.5751 109.365 98.2092C108.409 96.3321 105.898 96.4196 104.853 94.9084C103.849 93.4529 103.266 91.7428 101.468 90.9236C100.164 90.3271 99.6782 89.2215 99.7592 87.8296C99.8483 86.2389 99.2814 84.9504 97.7993 84.1709C96.9651 83.7334 96.7626 83.0335 96.5682 82.1427C96.058 79.8123 95.8636 79.8998 93.3935 79.8839C91.474 79.8679 89.838 80.0827 88.5746 81.6814C88.0076 82.4052 87.0601 82.4131 86.1935 82.2859C85.0677 82.1188 84.3874 81.5541 84.8896 80.3452C86.9386 75.4218 86.3636 70.2678 86.3393 65.1536C86.3393 64.6286 86.1368 63.9446 86.396 63.6106C88.2344 61.2404 87.0196 59.3713 85.5456 57.4703C85.0839 56.8658 85.0839 56.0943 85.1568 55.3467C85.578 55.5535 85.991 55.7603 86.4122 55.975C86.9386 56.5238 87.3597 57.1283 87.5703 57.868C87.6513 58.0668 87.7404 58.2736 87.8214 58.4725C87.9429 58.719 88.1129 58.9338 88.3316 59.1008C88.607 59.8882 89.3035 60.787 88.8256 61.4869C86.7766 64.4855 87.8619 67.8101 87.7404 70.9598C87.6189 74.014 87.5541 77.0046 86.5093 79.9157C86.4203 80.1543 86.6146 80.4963 86.6794 80.8065C86.9386 80.8065 87.2706 80.886 87.3273 80.7985C89.0767 78.2454 92.0409 78.8976 94.4706 78.1579C95.4668 77.8557 96.1309 78.3965 96.5925 79.1521C97.8317 81.1485 98.6659 83.4073 100.521 85.006C100.666 85.1333 100.812 85.3878 100.788 85.5628C100.375 88.5216 102.829 89.7385 104.335 91.6394C105.728 93.3972 107.397 94.5823 109.097 95.9424C112.88 98.9568 113.463 101.836 109.162 105.065C108.498 105.558 107.802 106.012 107.032 106.402C105.469 107.189 105.566 108.629 107.121 109.488C107.891 109.909 108.725 110.124 109.591 109.901C110.928 109.559 111.616 110.251 112.037 111.325C112.677 112.939 113.811 114.387 113.017 116.375C112.118 118.618 111.349 119.398 108.911 119.565C108.174 119.613 107.405 119.477 106.692 119.629C105.242 119.939 105.056 120.647 105.963 121.959C107.283 123.868 107.332 125.196 105.874 127.002C105.226 127.797 105.21 128.759 104.781 129.547C104.011 130.963 104.133 133.142 101.476 133.126C100.367 133.118 99.9617 134.574 99.8969 135.576C99.7916 137.365 99.6215 139.083 98.7955 140.738C98.3824 141.573 98.6092 142.583 98.9331 143.506C99.3705 144.746 98.925 145.573 97.613 145.836C95.2238 146.321 92.705 147.737 90.6803 145.041C89.1253 145.176 88.3802 143.903 87.2787 143.211C85.829 142.297 83.3588 142.416 82.2574 143.776C81.0911 145.224 79.9816 145.399 78.4023 144.754C77.9568 144.571 77.2846 144.603 76.8311 144.794C75.4138 145.399 74.3366 144.802 73.3242 143.975C72.0446 142.925 71.1618 143.132 69.7688 144.174C67.331 145.995 66.5778 148.429 65.9785 151.101C65.4844 153.289 64.796 153.734 62.6498 153.257C61.6051 153.026 60.6089 152.708 59.5155 152.811C57.7337 152.978 56.7052 153.989 56.5432 155.794C56.5351 155.889 56.5756 156.001 56.6161 156.096C57.3045 157.679 54.6561 158.061 55.3041 159.636C55.7738 160.797 56.8267 161.68 56.9482 163.008C57.0777 164.479 56.4217 165.832 55.5065 166.722C54.1378 168.067 53.4413 169.824 52.0807 171.161C50.6148 172.6 51.0035 173.658 52.9473 174.445C54.1216 174.923 55.466 174.883 56.5756 175.599C57.5637 176.235 58.2197 176.935 57.6204 178.176C57.4827 178.454 57.4827 178.812 57.3207 179.067C55.0854 182.463 55.9196 186.01 56.7376 189.565C56.851 190.059 56.9482 190.639 56.8024 191.1C56.3407 192.532 57.2478 193.542 58.2116 193.94C60.5117 194.886 62.1882 196.7 64.383 197.79C65.695 198.434 66.2539 198.243 66.918 197.185C68.562 194.56 71.3562 192.628 71.7449 189.239C71.8421 188.412 72.6277 187.824 73.2594 187.259C74.693 185.986 75.5758 185.899 77.0984 187.442C78.3375 188.698 79.4308 189.422 81.2369 188.651C81.8686 188.38 82.7271 188.46 83.456 188.571C86.2745 189.001 88.6556 187.887 91.0691 186.726C92.2353 186.161 92.8184 185.525 92.8103 184.109C92.8022 181.477 95.3858 179.504 97.9532 180.252C102.197 181.5 106.489 181.866 110.879 181.707C112.774 181.636 114.086 182.526 114.912 184.229C115.738 185.923 116.508 187.649 117.698 189.16C118.379 190.019 118.946 189.892 119.415 189.104C119.837 188.388 120.096 187.577 120.395 186.798C121.545 183.767 124.291 182.415 127.514 183.465C128.721 183.855 129.539 184.109 130.535 182.94C131.151 182.216 132.487 182.145 133.329 181.548C134.933 180.403 136.836 179.512 137.573 177.452C137.735 176.999 138.148 176.497 138.578 176.283C142.101 174.549 143.939 171.32 146.037 168.321C146.401 167.804 146.798 167.303 147.09 166.746C148.896 163.334 152.087 162.292 155.602 162.491C157.197 162.586 158.072 162.197 158.703 161.02C160.437 157.814 163.725 157.878 166.681 157.265C167.572 157.082 168.357 157.456 168.86 158.26C169.022 158.53 169.159 158.824 169.362 159.063C170.682 160.646 172.302 161.266 173.476 160.55C175.063 159.572 174.739 157.886 174.286 156.685C173.703 155.126 174.1 153.44 173.128 151.897C172.261 150.513 173.087 148.938 174.658 147.912C175.452 147.395 176.294 146.981 176.926 146.218C178.019 144.889 179.251 143.752 177.59 141.907C176.805 141.04 177.291 139.688 177.315 138.542C177.347 136.681 177.671 134.796 176.302 133.134C175.679 132.378 175.817 131.265 176.116 130.39C176.683 128.759 176.286 127.224 175.622 125.84C174.221 122.913 174.367 120.209 176.238 117.568C176.732 116.105 178.157 115.779 179.323 115.135C181.81 114.132 183.664 112.653 183.972 109.774C184.142 108.151 185.114 106.871 186.329 105.789C187.115 105.089 188.046 104.485 188.67 103.665C190.435 101.303 192.743 99.2432 191.464 95.6322C190.775 93.6835 190.751 91.3292 193.262 89.8817C194.857 88.959 194.825 87.2649 194.282 85.6662C193.869 84.4572 193.286 82.771 194.355 82.1984C195.756 81.4507 196.558 83.3835 197.603 84.1391C198.194 84.5686 198.364 85.5548 198.81 86.4616C199.628 85.1572 200.243 83.98 199.879 82.5324C199.474 80.9019 199.887 79.4305 200.826 78.0784C202.349 77.3466 203.823 76.4717 205.629 76.6944C205.815 76.8694 206.001 77.0444 206.188 77.2194C203.62 78.8499 201.385 80.6156 202.041 84.1789C202.195 85.0379 201.539 85.9843 201.069 86.8036C199.83 88.9749 198.818 89.0465 196.736 87.1615C196.688 87.241 196.615 87.3126 196.582 87.3921C194.865 91.4326 193.335 95.3936 193.505 100.023C193.586 102.289 191.229 104.413 189.237 106.067C187.997 107.093 186.726 108.199 186.418 109.79C185.73 113.273 183.438 115.397 180.66 117.346C176.562 120.217 176.521 120.774 177.76 125.522C178.789 129.467 178.87 133.555 179.429 137.58C179.591 138.717 179.38 139.926 179.89 140.984C181.413 144.142 180.141 146.576 177.639 148.389C175.549 149.9 175.007 151.483 176.084 153.742C176.351 154.299 176.473 154.959 176.489 155.579C176.635 159.858 176.667 164.122 179.923 167.597C180.814 168.544 179.963 169.793 179.404 170.811C178.667 172.131 177.947 173.594 178.692 174.994C181.729 180.745 184.669 186.567 192.144 188.038C197.012 189.001 199.96 193.773 198.858 198.553C198.315 200.923 197.975 203.23 198.405 205.688C198.89 208.487 197.676 210.229 195.011 211.374C190.832 213.172 190.241 217.26 193.756 220.179C194.331 220.656 194.914 221.134 195.222 221.81C197.093 225.922 200.656 227.123 204.851 227.234C205.491 227.25 206.293 227.059 206.714 227.481C210.683 231.434 216.384 229.27 220.863 231.418C221.746 231.839 222.774 231.553 223.649 231.092C227.545 229.032 231.683 229.223 235.822 229.923C237.733 230.249 239.377 230.042 241.005 229.04C243.694 227.393 246.763 226.733 249.582 228.037C254.182 230.177 257.333 228.141 260.386 225.262C265.634 220.33 270.242 221.014 273.798 227.393C275.385 230.233 276.203 233.406 277.491 236.381C278.633 239.022 276.843 241.376 275.239 243.515C274.097 243.404 274.041 242.521 273.887 241.694C275.482 236.341 272.364 232.03 270.194 227.751C268.347 224.1 265.804 224.188 262.807 227.099C261.123 228.737 259.122 229.938 257.187 231.227C255.348 232.452 253.332 232.476 251.388 231.585C247.881 229.97 244.577 230.209 241.378 232.309C238.122 234.448 234.72 232.317 231.392 232.595C230.031 232.706 228.541 232.364 227.31 232.993C223.754 234.806 220.345 234.464 216.562 233.406C209.743 231.505 204.446 237.407 206.504 244.16C207.411 247.142 205.977 249.799 204.592 252.193C203.223 254.563 203.126 256.655 204.187 259.033C205.078 261.045 205.718 263.201 206.933 265.046C209.954 269.588 210.529 274.63 210.108 279.808C209.848 282.966 208.399 285.909 208.52 289.241C208.593 291.285 206.212 292.232 204.155 291.5C203.547 291.285 202.899 291.023 202.519 290.546C198.826 285.925 193.983 285.853 188.686 286.839C185.786 287.38 184.928 289.512 184.272 291.643C183.519 294.085 182.765 296.272 180.781 298.149C179.34 299.517 179.234 301.872 179.696 303.82C180.287 306.326 180.166 308.815 180.085 311.313C179.996 314.041 179.89 316.658 181.421 319.195C182.522 321.024 181.956 322.997 180.522 324.723C177.874 327.912 177.825 328.445 180.36 332.12C183.187 336.216 183.673 340.614 182.587 345.307C182.296 346.572 181.777 347.693 180.571 348.377C179.704 347.963 178.991 347.391 178.676 346.452C180.935 341.887 180.425 337.624 177.566 333.416C174.456 328.843 174.553 327.427 177.849 323.092C178.991 321.581 178.959 320.205 177.93 318.773C176.732 317.119 176.497 315.353 176.967 313.405C177.566 310.923 177.525 308.426 176.845 305.944C176.043 302.993 176.934 300.122 177.323 297.235C177.363 296.925 177.436 296.503 177.663 296.376C181.275 294.316 181 290.068 183.073 287.102C184.685 284.795 186.313 283.292 189.269 283.65C189.909 283.729 190.581 283.793 191.172 283.57C195.991 281.757 199.636 283.841 202.997 286.943C203.604 287.499 204.179 288.494 205.07 288.112C206.261 287.603 205.54 286.473 205.426 285.614C205.297 284.668 205.2 283.769 205.694 282.87C208.318 278.114 207.629 273.477 205.353 268.784C203.207 264.378 200.462 260.147 200.332 255.016C200.445 254.229 200.713 253.489 200.996 252.75C201.725 251.262 202.535 249.815 203.223 248.296C203.928 246.737 203.96 245.321 203.078 243.865C202.827 243.118 202.762 242.346 202.762 241.567C202.705 239.006 204.041 237.009 205.41 234.981C207.459 231.943 206.933 230.551 203.377 230.185C198.882 229.716 195.133 228.316 192.994 224.1C192.76 223.639 192.444 223.122 191.982 222.907C187.39 220.823 188.637 216.863 188.921 213.347C189.107 211.072 190.808 209.649 192.962 208.909C195.027 208.201 195.829 206.905 195.327 204.797C194.817 202.673 195.546 200.645 195.918 198.593C196.647 194.592 194.59 191.785 190.605 190.743C185.754 189.47 181.713 186.973 179.534 182.248C179.04 181.182 178.214 180.355 177.582 179.385C175.736 176.553 174.577 173.714 176.124 170.246C177.218 167.804 175.136 164.114 172.431 163.175C171.014 162.682 169.653 162.197 168.471 161.234C165.839 159.095 163.101 159.222 161.028 161.855C159.368 163.962 157.497 164.981 154.775 164.829C152.079 164.678 150.11 166.086 148.742 168.289C146.45 171.972 143.413 174.954 140.351 178.033C137.703 180.689 134.909 182.884 131.823 184.913C130.462 185.811 129.256 186.201 127.676 185.779C125.02 185.08 123.279 185.923 122.129 188.563C120.663 191.904 118.249 194.799 117.099 198.315C116.994 198.744 116.921 199.174 116.84 199.611C116.759 199.913 116.573 200.136 116.305 200.295C115.172 200.534 114.564 199.953 114.208 198.983C114.151 198.672 114.159 198.37 114.2 198.06C114.289 197.599 114.443 197.161 114.605 196.724C117.48 192.461 114.929 188.953 112.92 185.398C112.41 184.491 111.462 184.276 110.458 184.197C106.433 183.847 102.375 183.855 98.4391 182.693C96.9975 182.272 95.3534 182.574 95.1509 184.268C94.6164 188.802 90.8342 189.74 87.5865 190.281C83.8205 190.902 79.6819 192.644 75.9888 189.573C74.9845 188.738 74.0288 189.51 73.7697 190.48C72.8869 193.884 70.2547 196.151 68.3272 198.871C67.493 200.04 67.0718 201.154 67.493 202.657C69.6068 210.221 67.8251 213.466 60.0339 215.701C57.2964 216.489 54.6804 217.634 51.781 218.072C49.5538 218.406 47.9664 220.211 47.3752 222.541C47.1889 223.265 47.0593 223.997 46.1684 224.212C45.6339 224.204 45.2613 223.941 44.986 223.52C43.9412 219.949 47.2537 215.622 51.4247 214.985C55.5551 214.357 59.4183 212.965 63.0791 210.969C64.7718 210.046 65.7112 208.662 65.4439 206.881C64.9499 203.548 64.0752 200.311 60.9004 198.291C59.9205 197.662 58.9729 196.978 57.9767 196.374C55.9682 195.157 54.6318 193.503 54.4294 191.093C54.0973 187.187 52.8906 183.274 54.7452 179.409C55.4093 178.025 54.5509 177.317 53.255 176.863C50.631 175.949 48.4442 174.573 48.0231 171.55C47.9421 171.001 47.6829 170.381 47.1565 170.341C44.3705 170.135 42.0461 167.868 38.8713 169.045C36.5226 169.912 33.7932 169.888 31.2907 169.8C28.0592 169.689 26.2045 166.913 24.5604 164.591C23.3456 162.881 22.2036 161.489 20.187 160.757C18.0083 159.97 16.7449 158.005 15.0765 156.558C14.3395 155.913 14.2828 155.126 14.6473 154.275C14.9793 153.503 15.3843 152.764 15.7082 151.992C17.1256 148.612 16.6963 147.641 13.068 146.456C11.6426 145.987 10.201 145.597 9.01852 144.659C7.80368 143.688 6.60502 143.641 5.16341 144.221C3.60031 144.858 1.88333 145.438 0.652284 143.521C0.627987 143.1 0.595586 142.678 0.571289 142.249C2.35306 143.084 4.08624 142.901 5.68984 141.851C7.17195 140.881 8.30579 141.08 9.57733 142.328C10.8489 143.585 12.493 144.388 14.3395 144.611C16.4533 144.874 17.6844 146.369 18.7859 147.856C19.9602 149.431 18.5348 150.775 17.9598 152.159C18.6887 153.09 17.7006 153.599 17.3361 154.283Z" fill="#346A21"/>
<path d="M108.255 311.209C107.834 311.209 107.421 311.209 107 311.209C105.728 306.302 105.761 301.434 106.627 296.4C107.194 293.107 108.053 289.655 106.894 286.195C106.457 284.875 107.016 283.491 107.874 282.361C108.555 281.471 108.96 280.556 108.555 279.458C107.364 276.261 108.603 273.27 109.494 270.319C110.426 267.21 110.466 264.203 109.51 261.149C109.259 260.353 109.065 259.502 108.636 258.802C106.643 255.557 107.048 252.344 109.089 249.417C110.304 247.675 110.887 245.997 110.839 243.929C110.806 242.704 111.203 241.463 111.406 240.239C113.123 241.026 112.191 242.346 112.078 243.5C112.256 245.838 111.948 247.954 110.369 249.95C108.425 252.416 108.166 255.16 109.842 258.071C111.746 261.379 111.802 265.102 111.373 268.737C111.138 270.749 110.158 272.642 109.761 274.686C109.47 276.173 109.324 277.557 109.753 278.989C110.199 280.468 110.239 281.813 109.049 283.061C107.81 284.358 107.988 285.988 108.393 287.515C108.862 289.289 108.757 290.967 108.409 292.757C107.729 296.201 107.64 299.732 107.105 303.216C106.838 304.974 107.607 306.891 107.899 308.744C108.028 309.563 108.134 310.382 108.255 311.209Z" fill="#366C23"/>
<path d="M112.07 243.5C111.827 242.418 112.458 241.161 111.397 240.238C111.721 238.481 111.576 236.818 111.025 235.061C110.288 232.714 111.624 230.829 113.455 229.445C114.459 228.69 114.605 228.061 113.932 227.123C112.645 225.325 112.248 223.066 110.741 221.372C110.158 220.728 109.94 219.79 110.166 218.994C110.96 216.25 109.016 213.538 110.126 210.818C110.28 210.436 110.466 209.999 110.782 209.76C113.098 207.994 112.807 205.592 112.507 203.182C113.025 203.174 113.536 203.166 114.054 203.158C114.151 205.727 114.459 208.312 112.167 210.301C110.968 211.335 111.082 212.822 111.454 214.103C111.819 215.367 111.867 216.505 111.551 217.761C111.292 218.787 111.357 219.933 112.07 220.76C113.608 222.557 113.949 224.951 115.325 226.821C116.338 228.205 115.933 229.374 114.637 230.32C112.418 231.951 111.721 233.947 112.799 236.564C113.325 237.844 112.839 241.066 112.07 243.5Z" fill="#396E25"/>
<path d="M344.534 349.594C345.271 349.666 346.081 349.578 346.737 349.848C347.992 350.373 348.486 349.681 349.377 348.958C352.285 346.595 354.957 343.867 359.015 343.207C362.125 342.706 364.36 339.7 364.417 336.454C364.433 335.54 364.595 334.641 365.316 334.227C367.511 332.971 367.891 330.728 368.62 328.7C369.56 326.059 373.277 323.538 376.039 324.047C377.23 324.269 378.307 324.405 379.473 324.031C380.396 323.728 381.409 323.736 382.316 324.031C383.571 324.436 384.859 324.587 386.106 324.428C389.281 324.031 391.978 325.089 394.278 327.029C396.011 328.493 397.647 328.469 399.534 327.594C402.676 326.146 405.981 325.478 409.455 325.693C410.192 325.741 411.091 325.55 411.569 326.178C412.557 327.483 413.699 327.276 414.906 326.719C416.437 326.019 418.21 325.494 418.494 323.498C418.818 321.311 419.701 319.497 421.677 318.32C422.43 317.867 422.649 317.254 422.349 316.451C422.276 316.252 422.163 316.069 422.114 315.87C420.891 310.247 423.79 307.272 429.719 308.123C430.764 308.274 431.833 308.497 432.797 308.911C433.955 309.404 435.016 309.468 436.182 309.014C437.089 308.664 438.296 308.41 438.944 309.062C440.531 310.653 442.823 311.257 444.321 312.625C445.901 314.065 446.662 313.373 447.755 312.625C448.622 312.037 449.359 311.249 450.225 310.653C453.068 308.704 453.732 308.847 455.781 311.718C456.737 311.758 457.207 310.907 457.944 310.541C459.645 309.69 459.936 308.33 459.491 306.564C458.81 303.86 459.045 303.359 461.467 302.015C462.698 301.331 463.751 300.607 464.553 299.398C465.84 297.449 468.132 296.917 470.149 296.026C470.789 295.739 471.429 295.946 472.004 296.217C476.879 298.539 481.536 301.18 485.213 305.188C487.23 307.384 487.667 307.455 490.008 305.562C490.413 305.236 490.728 304.799 491.085 304.409C491.279 304.186 491.482 303.971 491.7 303.765C492.049 303.462 492.453 303.279 492.899 303.16C494.835 302.651 496.714 303.343 498.609 303.454C499.354 303.486 499.799 303.049 500.156 302.468C500.423 302.015 500.625 301.53 500.876 301.068C501.411 300.416 501.929 300.114 502.358 301.164C502.116 304.385 500.139 306.214 497.28 305.443C494.543 304.711 492.267 305.021 490.251 306.994C489.198 308.028 487.934 308.394 486.46 308.243C485.553 308.147 485.083 307.781 484.516 306.978C482.459 304.059 479.981 301.474 476.507 300.17C475.551 299.812 474.952 299.104 474.15 298.635C471.218 296.909 467.978 297.259 465.929 299.923C464.796 301.402 463.605 302.619 461.88 303.319C460.568 303.852 460.301 304.711 460.616 306.079C461.402 309.507 459.888 312.044 456.591 313.071C455.449 313.42 454.421 313.198 454.024 311.933C453.538 310.366 452.769 310.684 451.651 311.345C450.347 312.108 449.367 313.23 448.152 314.065C446.095 315.473 445.617 314.964 443.374 313.77C441.495 312.768 439.851 311.631 438.271 310.287C437.866 309.937 437.202 309.969 436.733 310.199C434.805 311.13 432.983 310.637 431.201 309.857C429.751 309.229 428.269 309.332 426.795 309.531C423.92 309.921 422.908 311.201 423.199 314.001C423.264 314.614 423.45 315.226 423.628 315.823C424.09 317.373 424.009 318.686 422.349 319.577C420.834 320.396 420.284 321.812 419.911 323.426C419.255 326.282 415.408 328.898 412.468 328.652C412.168 328.628 411.788 328.556 411.593 328.358C409.018 325.788 406.102 327.157 403.284 327.666C401.113 328.055 399.307 329.646 396.951 329.503C395.655 329.423 394.529 329.344 393.468 328.342C391.516 326.48 389.176 325.606 386.292 325.701C382.737 325.82 379.157 325.383 375.586 325.256C373.439 325.176 370.54 327.324 369.795 329.352C369.009 331.499 368.547 333.838 366.328 335.166C365.923 335.405 365.883 335.794 365.851 336.232C365.502 340.924 363.04 343.668 358.618 344.631C355.281 345.363 352.819 347.677 350.422 349.825C348.98 351.121 347.903 351.726 345.976 351.089C344.502 350.604 342.922 350.127 341.278 350.373C341.238 350.095 341.197 349.825 341.157 349.546L341.197 349.57C342.315 349.212 343.425 349.196 344.534 349.594Z" fill="#356B23"/>
</svg>
